G04 PROTEUS GERBER X2 FILE*
%TF.GenerationSoftware,Labcenter,Proteus,8.11-SP0-Build30052*%
%TF.CreationDate,2024-03-04T06:39:40+00:00*%
%TF.FileFunction,Soldermask,Top*%
%TF.FilePolarity,Negative*%
%TF.Part,Single*%
%TF.SameCoordinates,{347c642e-2b0e-48e9-919d-a538f2e8b90d}*%
%FSLAX45Y45*%
%MOMM*%
G01*
%TA.AperFunction,Material*%
%ADD19C,2.032000*%
%TA.AperFunction,Material*%
%ADD70C,2.286000*%
%AMPPAD011*
4,1,36,
-1.016000,1.143000,
1.016000,1.143000,
1.041970,1.140470,
1.065980,1.133200,
1.087580,1.121650,
1.106290,1.106290,
1.121650,1.087570,
1.133200,1.065980,
1.140470,1.041970,
1.143000,1.016000,
1.143000,-1.016000,
1.140470,-1.041970,
1.133200,-1.065980,
1.121650,-1.087570,
1.106290,-1.106290,
1.087580,-1.121650,
1.065980,-1.133200,
1.041970,-1.140470,
1.016000,-1.143000,
-1.016000,-1.143000,
-1.041970,-1.140470,
-1.065980,-1.133200,
-1.087580,-1.121650,
-1.106290,-1.106290,
-1.121650,-1.087570,
-1.133200,-1.065980,
-1.140470,-1.041970,
-1.143000,-1.016000,
-1.143000,1.016000,
-1.140470,1.041970,
-1.133200,1.065980,
-1.121650,1.087570,
-1.106290,1.106290,
-1.087580,1.121650,
-1.065980,1.133200,
-1.041970,1.140470,
-1.016000,1.143000,
0*%
%TA.AperFunction,Material*%
%ADD71PPAD011*%
%ADD20C,3.302000*%
%TA.AperFunction,Profile*%
%ADD17C,0.203200*%
%TD.AperFunction*%
D19*
X+13198409Y+762813D03*
X+11818801Y+3016708D03*
X+10443959Y+492331D03*
X+13200000Y+6634091D03*
X+13361479Y+5161639D03*
X+15388591Y+1763672D03*
X+16906622Y+1763672D03*
X+12918379Y+2804414D03*
X+11970000Y+4740000D03*
X+14756000Y+6660000D03*
X+10402281Y+7620267D03*
X+9199886Y+7504373D03*
X+11393814Y+5301101D03*
X+10240000Y+5414000D03*
X+12440000Y+6282364D03*
X+12440000Y+4979801D03*
X+12445698Y+3785212D03*
X+11824416Y+3780708D03*
X+12978000Y+8030000D03*
X+11176000Y+7747000D03*
X+9330000Y+5340000D03*
X+12954050Y+7300088D03*
X+14756000Y+3007834D03*
X+14757594Y+3940602D03*
X+16637000Y+7390000D03*
X+11841436Y+5300014D03*
X+12861414Y+4743939D03*
X+12649857Y+5059402D03*
X+12650000Y+6029089D03*
X+17320828Y+4808669D03*
X+13589000Y+1016000D03*
X+8078593Y+8385968D03*
X+15996042Y+8702291D03*
X+12700000Y+7112000D03*
X+15770486Y+1760168D03*
X+14615304Y-206851D03*
X+15253812Y-500000D03*
X+15497436Y+5108609D03*
X+15494000Y+3130000D03*
X+13620000Y+7550000D03*
X+16260000Y+7690000D03*
X+16800000Y+6859973D03*
X+17101448Y+6958620D03*
X+15494000Y+6604000D03*
X+9953834Y+5553289D03*
X+12806202Y+6297175D03*
X+16420000Y+7239000D03*
X+13840000Y+6740000D03*
X+13200000Y+4259861D03*
X+12947667Y+3646419D03*
X+13421801Y+2548889D03*
X+13970000Y+2286000D03*
X+13970000Y+1610000D03*
X+17120000Y+1520000D03*
X+14758784Y+2271216D03*
X+9395334Y+2251958D03*
X+17399855Y-37805D03*
X+11843007Y+7670000D03*
X+11843007Y+7313007D03*
X+6395575Y+8892378D03*
X+14187224Y+8670000D03*
X+10160000Y+8890000D03*
X+13519946Y+5068823D03*
X+19553644Y+8512267D03*
X+15770382Y+2622028D03*
X+16916549Y+6078591D03*
X+17180000Y+290000D03*
X+13370000Y+380003D03*
X+11694000Y+1120508D03*
X+15244133Y+1072618D03*
X+11934000Y+110000D03*
X+15748000Y+127000D03*
D70*
X+9700000Y+6570000D03*
X+9700000Y+6316000D03*
X+9700000Y+6062000D03*
X+9700000Y+5808000D03*
X+9700000Y+5554000D03*
X+9700000Y+5300000D03*
X+9700000Y+5046000D03*
X+9700000Y+4792000D03*
X+9700000Y+4538000D03*
X+9700000Y+4284000D03*
X+9700000Y+4030000D03*
X+9700000Y+3776000D03*
X+9700000Y+3522000D03*
X+9700000Y+3268000D03*
X+9700000Y+3014000D03*
X+9700000Y+2760000D03*
X+9700000Y+2506000D03*
X+9700000Y+2252000D03*
X+9700000Y+1998000D03*
X+9700000Y+1744000D03*
X+11600000Y+1744000D03*
X+11600000Y+1998000D03*
X+11600000Y+2252000D03*
X+11600000Y+2506000D03*
X+11600000Y+2760000D03*
X+11600000Y+3014000D03*
X+11600000Y+3268000D03*
X+11600000Y+3522000D03*
X+11600000Y+3776000D03*
X+11600000Y+4030000D03*
X+11600000Y+4284000D03*
X+11600000Y+4538000D03*
X+11600000Y+4792000D03*
X+11600000Y+5046000D03*
X+11600000Y+5300000D03*
X+11600000Y+5554000D03*
X+11600000Y+5808000D03*
X+11600000Y+6062000D03*
X+11600000Y+6316000D03*
X+11600000Y+6570000D03*
X+10270000Y+2160000D03*
X+10524000Y+2160000D03*
X+10778000Y+2160000D03*
X+11032000Y+2160000D03*
X+15200000Y+6586000D03*
X+15200000Y+6332000D03*
X+15200000Y+6078000D03*
X+15200000Y+5824000D03*
X+15200000Y+5570000D03*
X+15200000Y+5316000D03*
X+15200000Y+5062000D03*
X+15200000Y+4808000D03*
X+15200000Y+4554000D03*
X+15200000Y+4300000D03*
X+15200000Y+4046000D03*
X+15200000Y+3792000D03*
X+15200000Y+3538000D03*
X+15200000Y+3284000D03*
X+15200000Y+3030000D03*
X+15200000Y+2776000D03*
X+15200000Y+2522000D03*
X+15200000Y+2268000D03*
X+15200000Y+2014000D03*
X+15200000Y+1760000D03*
X+17100000Y+1760000D03*
X+17100000Y+2014000D03*
X+17100000Y+2268000D03*
X+17100000Y+2522000D03*
X+17100000Y+2776000D03*
X+17100000Y+3030000D03*
X+17100000Y+3284000D03*
X+17100000Y+3538000D03*
X+17100000Y+3792000D03*
X+17100000Y+4046000D03*
X+17100000Y+4300000D03*
X+17100000Y+4554000D03*
X+17100000Y+4808000D03*
X+17100000Y+5062000D03*
X+17100000Y+5316000D03*
X+17100000Y+5570000D03*
X+17100000Y+5824000D03*
X+17100000Y+6078000D03*
X+17100000Y+6332000D03*
X+17100000Y+6586000D03*
X+15770000Y+2176000D03*
X+16024000Y+2176000D03*
X+16278000Y+2176000D03*
X+16532000Y+2176000D03*
X+12998000Y+8670000D03*
X+13252000Y+8670000D03*
X+13506000Y+8670000D03*
X+13760000Y+8670000D03*
X+5100000Y+7992000D03*
X+5100000Y+8246000D03*
X+5100000Y+8500000D03*
X+21500000Y+8508000D03*
X+21500000Y+8254000D03*
X+21500000Y+8000000D03*
D71*
X+7900000Y+8660000D03*
X+8154000Y+8660000D03*
X+18154000Y+8700000D03*
X+17900000Y+8700000D03*
D19*
X+17100000Y+7684000D03*
X+17100000Y+8700000D03*
D20*
X+16000000Y+8000000D03*
X+15492000Y+8000000D03*
D71*
X+17400000Y-400000D03*
X+17146000Y-400000D03*
X+9554000Y-400000D03*
X+9300000Y-400000D03*
D19*
X+13200000Y+1000000D03*
X+13200000Y+2016000D03*
D70*
X+10154000Y+900000D03*
X+9900000Y+900000D03*
X+9646000Y+900000D03*
X+9392000Y+900000D03*
X+16814000Y+1000000D03*
X+16560000Y+1000000D03*
X+16306000Y+1000000D03*
X+16052000Y+1000000D03*
X+11936000Y-140000D03*
X+12190000Y-140000D03*
X+12444000Y-140000D03*
X+12698000Y-140000D03*
X+12952000Y-140000D03*
X+13206000Y-140000D03*
D19*
X+10019000Y+8100000D03*
X+10400000Y+8100000D03*
D70*
X+11106000Y-100000D03*
X+11360000Y-100000D03*
D19*
X+9200000Y+8200000D03*
X+9200000Y+7184000D03*
D70*
X+13200000Y+2546000D03*
X+13200000Y+2800000D03*
X+13200000Y+3646000D03*
X+13200000Y+3900000D03*
X+13200000Y+4746000D03*
X+13200000Y+5000000D03*
X+13200000Y+5892000D03*
X+13200000Y+6146000D03*
X+13200000Y+6400000D03*
X+13200000Y+7300000D03*
X+13200000Y+7554000D03*
X+13200000Y+7808000D03*
X+15896000Y-300000D03*
X+16150000Y-300000D03*
X+16404000Y-300000D03*
X+14900000Y+800000D03*
X+14646000Y+800000D03*
X+14392000Y+800000D03*
X+14138000Y+800000D03*
X+11946000Y-460000D03*
X+12200000Y-460000D03*
X+12454000Y-460000D03*
X+12708000Y-460000D03*
X+12962000Y-460000D03*
X+13216000Y-460000D03*
X+11106000Y-450000D03*
X+11360000Y-450000D03*
D17*
X+4800000Y+9200000D02*
X+21800000Y+9200000D01*
X+21800000Y+7200000D01*
X+4800000Y+9200000D02*
X+4800000Y+7200000D01*
X+9000000Y+7200000D01*
X+21800000Y+7200000D02*
X+17600000Y+7200000D01*
X+17600000Y-800000D01*
X+9000000Y+7200000D02*
X+9000000Y-800000D01*
X+17600000Y-800000D01*
M02*
