G04 PROTEUS GERBER X2 FILE*
%TF.GenerationSoftware,Labcenter,Proteus,8.11-SP0-Build30052*%
%TF.CreationDate,2024-03-04T06:39:40+00:00*%
%TF.FileFunction,Copper,L1,Top*%
%TF.FilePolarity,Positive*%
%TF.Part,Single*%
%TF.SameCoordinates,{347c642e-2b0e-48e9-919d-a538f2e8b90d}*%
%FSLAX45Y45*%
%MOMM*%
G01*
%TA.AperFunction,Conductor*%
%ADD10C,1.016000*%
%ADD11C,1.270000*%
%TA.AperFunction,ViaPad*%
%ADD12C,1.016000*%
%TA.AperFunction,ComponentPad*%
%ADD13C,2.032000*%
%TA.AperFunction,ComponentPad*%
%ADD14R,2.032000X2.032000*%
%ADD15C,1.778000*%
%ADD16C,3.048000*%
%TA.AperFunction,Profile*%
%ADD17C,0.203200*%
%TD.AperFunction*%
G36*
X+21688241Y+8607126D02*
X+21584168Y+8711199D01*
X+21415832Y+8711199D01*
X+21296801Y+8592168D01*
X+21296801Y+8423832D01*
X+21339633Y+8381000D01*
X+21296801Y+8338168D01*
X+21296801Y+8169832D01*
X+21339633Y+8127000D01*
X+21296801Y+8084168D01*
X+21296801Y+7915832D01*
X+21415832Y+7796801D01*
X+21584168Y+7796801D01*
X+21688241Y+7900874D01*
X+21688241Y+7311760D01*
X+17553709Y+7311760D01*
X+17488241Y+7246292D01*
X+17488241Y+4856780D01*
X+17475767Y+4869254D01*
X+17475767Y+4872847D01*
X+17385006Y+4963608D01*
X+17288975Y+4963608D01*
X+17303199Y+4977832D01*
X+17303199Y+5146168D01*
X+17260367Y+5189000D01*
X+17303199Y+5231832D01*
X+17303199Y+5400168D01*
X+17260367Y+5443000D01*
X+17303199Y+5485832D01*
X+17303199Y+5654168D01*
X+17260367Y+5697000D01*
X+17303199Y+5739832D01*
X+17303199Y+5908168D01*
X+17260367Y+5951000D01*
X+17303199Y+5993832D01*
X+17303199Y+6162168D01*
X+17260367Y+6205000D01*
X+17303199Y+6247832D01*
X+17303199Y+6416168D01*
X+17260367Y+6459000D01*
X+17303199Y+6501832D01*
X+17303199Y+6670168D01*
X+17200496Y+6772871D01*
X+17266547Y+6838922D01*
X+17266547Y+7027006D01*
X+17169834Y+7123719D01*
X+17033062Y+7123719D01*
X+16936349Y+7027006D01*
X+16936349Y+6975692D01*
X+16919874Y+6959216D01*
X+16864178Y+7014912D01*
X+16860436Y+7014912D01*
X+17022399Y+7176875D01*
X+17022399Y+7493501D01*
X+17178907Y+7493501D01*
X+17290499Y+7605093D01*
X+17290499Y+7762907D01*
X+17178907Y+7874499D01*
X+17022399Y+7874499D01*
X+17022399Y+7936875D01*
X+17413125Y+8327601D01*
X+19262450Y+8327601D01*
X+19294717Y+8359868D01*
X+19486926Y+8359868D01*
X+19489466Y+8357328D01*
X+19617822Y+8357328D01*
X+19708583Y+8448089D01*
X+19708583Y+8576445D01*
X+19617822Y+8667206D01*
X+19489466Y+8667206D01*
X+19486926Y+8664666D01*
X+19168467Y+8664666D01*
X+19136200Y+8632399D01*
X+18357199Y+8632399D01*
X+18357199Y+8903199D01*
X+17696801Y+8903199D01*
X+17696801Y+8632399D01*
X+17290499Y+8632399D01*
X+17290499Y+8778907D01*
X+17178907Y+8890499D01*
X+17021093Y+8890499D01*
X+16909501Y+8778907D01*
X+16909501Y+8621093D01*
X+17021093Y+8509501D01*
X+17163977Y+8509501D01*
X+16717601Y+8063125D01*
X+16717601Y+7528516D01*
X+16701178Y+7544939D01*
X+16697585Y+7544939D01*
X+16640125Y+7602399D01*
X+16391516Y+7602399D01*
X+16414939Y+7625822D01*
X+16414939Y+7754178D01*
X+16324178Y+7844939D01*
X+16204148Y+7844939D01*
X+16253999Y+7894790D01*
X+16253999Y+8105210D01*
X+16105210Y+8253999D01*
X+15894790Y+8253999D01*
X+15746001Y+8105210D01*
X+15746001Y+7894790D01*
X+15878392Y+7762399D01*
X+15613608Y+7762399D01*
X+15745999Y+7894790D01*
X+15745999Y+8105210D01*
X+15621608Y+8229601D01*
X+15747125Y+8229601D01*
X+16023399Y+8505875D01*
X+16023399Y+8514124D01*
X+16056627Y+8547352D01*
X+16060220Y+8547352D01*
X+16150981Y+8638113D01*
X+16150981Y+8766469D01*
X+16060220Y+8857230D01*
X+15931864Y+8857230D01*
X+15841103Y+8766469D01*
X+15841103Y+8762876D01*
X+15718601Y+8640374D01*
X+15718601Y+8632125D01*
X+15620875Y+8534399D01*
X+14285107Y+8534399D01*
X+14352322Y+8601614D01*
X+14352322Y+8738386D01*
X+14015609Y+9075099D01*
X+11247245Y+9075099D01*
X+11227245Y+9055099D01*
X+6565134Y+9055099D01*
X+6562756Y+9057477D01*
X+6327189Y+9057477D01*
X+6230476Y+8960764D01*
X+6230476Y+8823992D01*
X+6327189Y+8727279D01*
X+6425986Y+8727279D01*
X+6428364Y+8724901D01*
X+7696801Y+8724901D01*
X+7696801Y+8456801D01*
X+7930309Y+8456801D01*
X+7923654Y+8450146D01*
X+7923654Y+8321790D01*
X+8014415Y+8231029D01*
X+8081509Y+8231029D01*
X+8082937Y+8229601D01*
X+9009501Y+8229601D01*
X+9009501Y+8121093D01*
X+9121093Y+8009501D01*
X+9278907Y+8009501D01*
X+9390499Y+8121093D01*
X+9390499Y+8229601D01*
X+9879195Y+8229601D01*
X+9828501Y+8178907D01*
X+9828501Y+8021093D01*
X+9940093Y+7909501D01*
X+10097907Y+7909501D01*
X+10209499Y+8021093D01*
X+10209499Y+8178907D01*
X+10158805Y+8229601D01*
X+10260195Y+8229601D01*
X+10209501Y+8178907D01*
X+10209501Y+8021093D01*
X+10321093Y+7909501D01*
X+10478907Y+7909501D01*
X+10590499Y+8021093D01*
X+10590499Y+8178907D01*
X+10539805Y+8229601D01*
X+15362392Y+8229601D01*
X+15238001Y+8105210D01*
X+15238001Y+7894790D01*
X+15370392Y+7762399D01*
X+13616875Y+7762399D01*
X+13559415Y+7704939D01*
X+13555822Y+7704939D01*
X+13465061Y+7614178D01*
X+13465061Y+7485822D01*
X+13555822Y+7395061D01*
X+13684178Y+7395061D01*
X+13746718Y+7457601D01*
X+13992078Y+7457601D01*
X+13367601Y+6833124D01*
X+13367601Y+6519766D01*
X+13336196Y+6551170D01*
X+13354939Y+6569913D01*
X+13354939Y+6698269D01*
X+13352399Y+6700809D01*
X+13352399Y+6929125D01*
X+13184723Y+7096801D01*
X+13284168Y+7096801D01*
X+13403199Y+7215832D01*
X+13403199Y+7384168D01*
X+13360367Y+7427000D01*
X+13403199Y+7469832D01*
X+13403199Y+7638168D01*
X+13360367Y+7681000D01*
X+13403199Y+7723832D01*
X+13403199Y+7892168D01*
X+13284168Y+8011199D01*
X+13132939Y+8011199D01*
X+13132939Y+8094178D01*
X+13042178Y+8184939D01*
X+12913822Y+8184939D01*
X+12911282Y+8182399D01*
X+11395875Y+8182399D01*
X+11115415Y+7901939D01*
X+11111822Y+7901939D01*
X+11021061Y+7811178D01*
X+11021061Y+7682822D01*
X+11111822Y+7592061D01*
X+11240178Y+7592061D01*
X+11330939Y+7682822D01*
X+11330939Y+7686415D01*
X+11522125Y+7877601D01*
X+12911282Y+7877601D01*
X+12913822Y+7875061D01*
X+12996801Y+7875061D01*
X+12996801Y+7723832D01*
X+13039633Y+7681000D01*
X+12996801Y+7638168D01*
X+12996801Y+7469832D01*
X+13011606Y+7455027D01*
X+12889872Y+7455027D01*
X+12887332Y+7452487D01*
X+12455649Y+7452487D01*
X+12175560Y+7172398D01*
X+11921515Y+7172398D01*
X+11997946Y+7248829D01*
X+11997946Y+7377185D01*
X+11995406Y+7379725D01*
X+11995406Y+7603282D01*
X+11997946Y+7605822D01*
X+11997946Y+7734178D01*
X+11907185Y+7824939D01*
X+11778829Y+7824939D01*
X+11688068Y+7734178D01*
X+11688068Y+7605822D01*
X+11690608Y+7603282D01*
X+11690608Y+7379725D01*
X+11688068Y+7377185D01*
X+11688068Y+7248829D01*
X+11764499Y+7172398D01*
X+9706874Y+7172398D01*
X+9177601Y+6643125D01*
X+9177601Y+5406718D01*
X+9175061Y+5404178D01*
X+9175061Y+5275822D01*
X+9265822Y+5185061D01*
X+9394178Y+5185061D01*
X+9484939Y+5275822D01*
X+9484939Y+5404178D01*
X+9482399Y+5406718D01*
X+9482399Y+6516875D01*
X+9496801Y+6531277D01*
X+9496801Y+6485832D01*
X+9539633Y+6443000D01*
X+9496801Y+6400168D01*
X+9496801Y+6231832D01*
X+9539633Y+6189000D01*
X+9496801Y+6146168D01*
X+9496801Y+5977832D01*
X+9539633Y+5935000D01*
X+9496801Y+5892168D01*
X+9496801Y+5723832D01*
X+9539633Y+5681000D01*
X+9496801Y+5638168D01*
X+9496801Y+5469832D01*
X+9539633Y+5427000D01*
X+9496801Y+5384168D01*
X+9496801Y+5215832D01*
X+9539633Y+5173000D01*
X+9496801Y+5130168D01*
X+9496801Y+4961832D01*
X+9539633Y+4919000D01*
X+9496801Y+4876168D01*
X+9496801Y+4707832D01*
X+9539633Y+4665000D01*
X+9496801Y+4622168D01*
X+9496801Y+4453832D01*
X+9539633Y+4411000D01*
X+9496801Y+4368168D01*
X+9496801Y+4199832D01*
X+9539633Y+4157000D01*
X+9496801Y+4114168D01*
X+9496801Y+3945832D01*
X+9539633Y+3903000D01*
X+9496801Y+3860168D01*
X+9496801Y+3691832D01*
X+9539633Y+3649000D01*
X+9496801Y+3606168D01*
X+9496801Y+3437832D01*
X+9539633Y+3395000D01*
X+9496801Y+3352168D01*
X+9496801Y+3183832D01*
X+9539633Y+3141000D01*
X+9496801Y+3098168D01*
X+9496801Y+2929832D01*
X+9539633Y+2887000D01*
X+9496801Y+2844168D01*
X+9496801Y+2675832D01*
X+9539633Y+2633000D01*
X+9496801Y+2590168D01*
X+9496801Y+2421832D01*
X+9539633Y+2379000D01*
X+9522120Y+2361487D01*
X+9464540Y+2418167D01*
X+9326948Y+2417057D01*
X+9230235Y+2320344D01*
X+9230235Y+2183572D01*
X+9232901Y+2180906D01*
X+9232901Y+1623615D01*
X+9541615Y+1314901D01*
X+12023171Y+1314901D01*
X+12119884Y+1411614D01*
X+12119884Y+1417601D01*
X+13318915Y+1417601D01*
X+13331614Y+1404902D01*
X+13468386Y+1404902D01*
X+13858385Y+1794901D01*
X+14518377Y+1794901D01*
X+14923883Y+2202830D01*
X+14923883Y+2563853D01*
X+14921099Y+2566637D01*
X+14921099Y+3028386D01*
X+14910939Y+3038546D01*
X+14910939Y+3072012D01*
X+14820178Y+3162773D01*
X+14691822Y+3162773D01*
X+14601061Y+3072012D01*
X+14601061Y+3038546D01*
X+14590901Y+3028386D01*
X+14590901Y+2429866D01*
X+14593685Y+2427082D01*
X+14593685Y+2339602D01*
X+14380891Y+2125099D01*
X+13721615Y+2125099D01*
X+13318915Y+1722399D01*
X+11981660Y+1722399D01*
X+11904360Y+1645099D01*
X+11788466Y+1645099D01*
X+11803199Y+1659832D01*
X+11803199Y+1828168D01*
X+11760367Y+1871000D01*
X+11803199Y+1913832D01*
X+11803199Y+2082168D01*
X+11760367Y+2125000D01*
X+11803199Y+2167832D01*
X+11803199Y+2336168D01*
X+11760367Y+2379000D01*
X+11803199Y+2421832D01*
X+11803199Y+2590168D01*
X+11760367Y+2633000D01*
X+11803199Y+2675832D01*
X+11803199Y+2844168D01*
X+11785766Y+2861601D01*
X+12645668Y+2861601D01*
X+12763440Y+2743829D01*
X+12763440Y+2740236D01*
X+12854201Y+2649475D01*
X+12982557Y+2649475D01*
X+13022858Y+2689776D01*
X+13039633Y+2673000D01*
X+12996801Y+2630168D01*
X+12996801Y+2461832D01*
X+13115832Y+2342801D01*
X+13284168Y+2342801D01*
X+13346470Y+2405103D01*
X+13357623Y+2393950D01*
X+13485979Y+2393950D01*
X+13488519Y+2396490D01*
X+13500712Y+2396490D01*
X+13503601Y+2393601D01*
X+13646875Y+2393601D01*
X+13815061Y+2225415D01*
X+13815061Y+2221822D01*
X+13905822Y+2131061D01*
X+14034178Y+2131061D01*
X+14124939Y+2221822D01*
X+14124939Y+2350178D01*
X+14034178Y+2440939D01*
X+14030585Y+2440939D01*
X+13773125Y+2698399D01*
X+13629851Y+2698399D01*
X+13626962Y+2701288D01*
X+13488519Y+2701288D01*
X+13485979Y+2703828D01*
X+13391195Y+2703828D01*
X+13403199Y+2715832D01*
X+13403199Y+2884168D01*
X+13284168Y+3003199D01*
X+13115832Y+3003199D01*
X+13027272Y+2914638D01*
X+12982557Y+2959353D01*
X+12978964Y+2959353D01*
X+12771919Y+3166399D01*
X+11945960Y+3166399D01*
X+11943252Y+3169107D01*
X+11885519Y+3169107D01*
X+11882979Y+3171647D01*
X+11791014Y+3171647D01*
X+11803199Y+3183832D01*
X+11803199Y+3352168D01*
X+11760367Y+3395000D01*
X+11803199Y+3437832D01*
X+11803199Y+3606168D01*
X+11783598Y+3625769D01*
X+11888594Y+3625769D01*
X+11891134Y+3628309D01*
X+12504319Y+3628309D01*
X+12506283Y+3630273D01*
X+12509876Y+3630273D01*
X+12587040Y+3707436D01*
X+12800455Y+3494020D01*
X+12880949Y+3494020D01*
X+12883489Y+3491480D01*
X+13011845Y+3491480D01*
X+13039499Y+3519134D01*
X+13115832Y+3442801D01*
X+13284168Y+3442801D01*
X+13403199Y+3561832D01*
X+13403199Y+3730168D01*
X+13360367Y+3773000D01*
X+13403199Y+3815832D01*
X+13403199Y+3984168D01*
X+13284168Y+4103199D01*
X+13115832Y+4103199D01*
X+12996801Y+3984168D01*
X+12996801Y+3815832D01*
X+13011275Y+3801358D01*
X+12924166Y+3801358D01*
X+12603125Y+4122399D01*
X+12023125Y+4122399D01*
X+11962399Y+4183125D01*
X+11962399Y+4585061D01*
X+12034178Y+4585061D01*
X+12036735Y+4587618D01*
X+12447607Y+4589572D01*
X+12795230Y+4591006D01*
X+12797236Y+4589000D01*
X+12925592Y+4589000D01*
X+12997612Y+4661020D01*
X+13111554Y+4547078D01*
X+13047601Y+4483125D01*
X+13047601Y+4326579D01*
X+13045061Y+4324039D01*
X+13045061Y+4195683D01*
X+13135822Y+4104922D01*
X+13264178Y+4104922D01*
X+13354939Y+4195683D01*
X+13354939Y+4324039D01*
X+13352399Y+4326579D01*
X+13352399Y+4356875D01*
X+14052399Y+5056875D01*
X+14052399Y+6086875D01*
X+14362399Y+6396875D01*
X+14362399Y+6644080D01*
X+14423929Y+6705610D01*
X+14590901Y+6705610D01*
X+14590901Y+4025286D01*
X+14605195Y+4010992D01*
X+14605195Y+4007320D01*
X+14602655Y+4004780D01*
X+14602655Y+3876424D01*
X+14693416Y+3785663D01*
X+14821772Y+3785663D01*
X+14912533Y+3876424D01*
X+14912533Y+4004780D01*
X+14909993Y+4007320D01*
X+14909993Y+4014180D01*
X+14921099Y+4025286D01*
X+14921099Y+6705883D01*
X+15032613Y+6705980D01*
X+14996801Y+6670168D01*
X+14996801Y+6501832D01*
X+15039633Y+6459000D01*
X+14996801Y+6416168D01*
X+14996801Y+6247832D01*
X+15039633Y+6205000D01*
X+14996801Y+6162168D01*
X+14996801Y+5993832D01*
X+15039633Y+5951000D01*
X+14996801Y+5908168D01*
X+14996801Y+5739832D01*
X+15039633Y+5697000D01*
X+14996801Y+5654168D01*
X+14996801Y+5485832D01*
X+15039633Y+5443000D01*
X+14996801Y+5400168D01*
X+14996801Y+5231832D01*
X+15039633Y+5189000D01*
X+14996801Y+5146168D01*
X+14996801Y+4977832D01*
X+15039633Y+4935000D01*
X+14996801Y+4892168D01*
X+14996801Y+4723832D01*
X+15039633Y+4681000D01*
X+14996801Y+4638168D01*
X+14996801Y+4469832D01*
X+15039633Y+4427000D01*
X+14996801Y+4384168D01*
X+14996801Y+4215832D01*
X+15039633Y+4173000D01*
X+14996801Y+4130168D01*
X+14996801Y+3961832D01*
X+15039633Y+3919000D01*
X+14996801Y+3876168D01*
X+14996801Y+3707832D01*
X+15039633Y+3665000D01*
X+14996801Y+3622168D01*
X+14996801Y+3453832D01*
X+15039633Y+3411000D01*
X+14996801Y+3368168D01*
X+14996801Y+3199832D01*
X+15039633Y+3157000D01*
X+14996801Y+3114168D01*
X+14996801Y+2945832D01*
X+15039633Y+2903000D01*
X+14996801Y+2860168D01*
X+14996801Y+2691832D01*
X+15039633Y+2649000D01*
X+14996801Y+2606168D01*
X+14996801Y+2437832D01*
X+15039633Y+2395000D01*
X+14996801Y+2352168D01*
X+14996801Y+2183832D01*
X+15039633Y+2141000D01*
X+14996801Y+2098168D01*
X+14996801Y+1929832D01*
X+15039633Y+1887000D01*
X+14996801Y+1844168D01*
X+14996801Y+1675832D01*
X+15010234Y+1662399D01*
X+14133125Y+1662399D01*
X+14124939Y+1670585D01*
X+14124939Y+1674178D01*
X+14034178Y+1764939D01*
X+13905822Y+1764939D01*
X+13815061Y+1674178D01*
X+13815061Y+1545822D01*
X+13905822Y+1455061D01*
X+13909415Y+1455061D01*
X+14002077Y+1362399D01*
X+12537898Y+1362399D01*
X+12448406Y+1272907D01*
X+11760718Y+1272907D01*
X+11758178Y+1275447D01*
X+11629822Y+1275447D01*
X+11539061Y+1184686D01*
X+11539061Y+1056330D01*
X+11629822Y+965569D01*
X+11758178Y+965569D01*
X+11760718Y+968109D01*
X+12574656Y+968109D01*
X+12664148Y+1057601D01*
X+13009501Y+1057601D01*
X+13009501Y+921093D01*
X+13016195Y+914399D01*
X+10652875Y+914399D01*
X+10438875Y+700399D01*
X+10436503Y+700399D01*
X+10383374Y+647270D01*
X+10379781Y+647270D01*
X+10289020Y+556509D01*
X+10289020Y+428153D01*
X+10379781Y+337392D01*
X+10508137Y+337392D01*
X+10598898Y+428153D01*
X+10598898Y+429373D01*
X+10654399Y+484875D01*
X+10779125Y+609601D01*
X+13132504Y+609601D01*
X+13134231Y+607874D01*
X+13262587Y+607874D01*
X+13264314Y+609601D01*
X+13704875Y+609601D01*
X+13896875Y+417601D01*
X+15572077Y+417601D01*
X+15504398Y+349922D01*
X+13615605Y+349922D01*
X+13524939Y+440588D01*
X+13524939Y+444181D01*
X+13434178Y+534942D01*
X+13305822Y+534942D01*
X+13215061Y+444181D01*
X+13215061Y+315825D01*
X+13268487Y+262399D01*
X+12000718Y+262399D01*
X+11998178Y+264939D01*
X+11869822Y+264939D01*
X+11779061Y+174178D01*
X+11779061Y+45822D01*
X+11806758Y+18125D01*
X+11732801Y-55832D01*
X+11732801Y-224168D01*
X+11813633Y-305000D01*
X+11742801Y-375832D01*
X+11742801Y-544168D01*
X+11861832Y-663199D01*
X+12030168Y-663199D01*
X+12073000Y-620367D01*
X+12115832Y-663199D01*
X+12284168Y-663199D01*
X+12327000Y-620367D01*
X+12369832Y-663199D01*
X+12538168Y-663199D01*
X+12581000Y-620367D01*
X+12623832Y-663199D01*
X+12792168Y-663199D01*
X+12835000Y-620367D01*
X+12877832Y-663199D01*
X+13046168Y-663199D01*
X+13089000Y-620367D01*
X+13131832Y-663199D01*
X+13300168Y-663199D01*
X+13419199Y-544168D01*
X+13419199Y-375832D01*
X+13338367Y-295000D01*
X+13409199Y-224168D01*
X+13409199Y-104723D01*
X+13456875Y-152399D01*
X+14460365Y-152399D01*
X+14460365Y-271029D01*
X+14551126Y-361790D01*
X+14554719Y-361790D01*
X+14845328Y-652399D01*
X+15187094Y-652399D01*
X+15189634Y-654939D01*
X+15317990Y-654939D01*
X+15408751Y-564178D01*
X+15408751Y-435822D01*
X+15317990Y-345061D01*
X+15189634Y-345061D01*
X+15187094Y-347601D01*
X+14971578Y-347601D01*
X+14776376Y-152399D01*
X+15684125Y-152399D01*
X+15808585Y-27939D01*
X+15812178Y-27939D01*
X+15902939Y+62822D01*
X+15902939Y+137601D01*
X+17113282Y+137601D01*
X+17115822Y+135061D01*
X+17244178Y+135061D01*
X+17247602Y+138485D01*
X+17247602Y+106731D01*
X+17247456Y+106585D01*
X+17247456Y+28913D01*
X+17244916Y+26373D01*
X+17244916Y-101983D01*
X+17335677Y-192744D01*
X+17464033Y-192744D01*
X+17488241Y-168536D01*
X+17488241Y-196801D01*
X+16942801Y-196801D01*
X+16942801Y-603199D01*
X+17488241Y-603199D01*
X+17488241Y-688240D01*
X+9111759Y-688240D01*
X+9111759Y-603199D01*
X+9757199Y-603199D01*
X+9757199Y-196801D01*
X+9111759Y-196801D01*
X+9111759Y+7002835D01*
X+9121093Y+6993501D01*
X+9278907Y+6993501D01*
X+9390499Y+7105093D01*
X+9390499Y+7262907D01*
X+9284018Y+7369388D01*
X+9354825Y+7440195D01*
X+9354825Y+7467601D01*
X+10335830Y+7467601D01*
X+10338103Y+7465328D01*
X+10466459Y+7465328D01*
X+10557220Y+7556089D01*
X+10557220Y+7684445D01*
X+10466459Y+7775206D01*
X+10338103Y+7775206D01*
X+10335296Y+7772399D01*
X+9136874Y+7772399D01*
X+9047487Y+7683011D01*
X+9047487Y+7571091D01*
X+9044947Y+7568551D01*
X+9044947Y+7440195D01*
X+9115868Y+7369274D01*
X+9052322Y+7305728D01*
X+9046291Y+7311760D01*
X+4911759Y+7311760D01*
X+4911759Y+7892874D01*
X+5015832Y+7788801D01*
X+5184168Y+7788801D01*
X+5303199Y+7907832D01*
X+5303199Y+8076168D01*
X+5260367Y+8119000D01*
X+5303199Y+8161832D01*
X+5303199Y+8330168D01*
X+5260367Y+8373000D01*
X+5303199Y+8415832D01*
X+5303199Y+8584168D01*
X+5184168Y+8703199D01*
X+5015832Y+8703199D01*
X+4911759Y+8599126D01*
X+4911759Y+9088241D01*
X+21688241Y+9088241D01*
X+21688241Y+8607126D01*
G37*
%LPC*%
G36*
X+13278907Y+1825501D02*
X+13121093Y+1825501D01*
X+13009501Y+1937093D01*
X+13009501Y+2094907D01*
X+13121093Y+2206499D01*
X+13278907Y+2206499D01*
X+13390499Y+2094907D01*
X+13390499Y+1937093D01*
X+13278907Y+1825501D01*
G37*
G36*
X+10357199Y+984168D02*
X+10357199Y+815832D01*
X+10238168Y+696801D01*
X+10069832Y+696801D01*
X+10027000Y+739633D01*
X+9984168Y+696801D01*
X+9815832Y+696801D01*
X+9773000Y+739633D01*
X+9730168Y+696801D01*
X+9561832Y+696801D01*
X+9519000Y+739633D01*
X+9476168Y+696801D01*
X+9307832Y+696801D01*
X+9188801Y+815832D01*
X+9188801Y+984168D01*
X+9307832Y+1103199D01*
X+9476168Y+1103199D01*
X+9519000Y+1060367D01*
X+9561832Y+1103199D01*
X+9730168Y+1103199D01*
X+9773000Y+1060367D01*
X+9815832Y+1103199D01*
X+9984168Y+1103199D01*
X+10027000Y+1060367D01*
X+10069832Y+1103199D01*
X+10238168Y+1103199D01*
X+10357199Y+984168D01*
G37*
G36*
X+11563199Y-15832D02*
X+11563199Y-184168D01*
X+11472367Y-275000D01*
X+11563199Y-365832D01*
X+11563199Y-534168D01*
X+11444168Y-653199D01*
X+11275832Y-653199D01*
X+11233000Y-610367D01*
X+11190168Y-653199D01*
X+11021832Y-653199D01*
X+10902801Y-534168D01*
X+10902801Y-365832D01*
X+10993633Y-275000D01*
X+10902801Y-184168D01*
X+10902801Y-15832D01*
X+11021832Y+103199D01*
X+11190168Y+103199D01*
X+11233000Y+60367D01*
X+11275832Y+103199D01*
X+11444168Y+103199D01*
X+11563199Y-15832D01*
G37*
G36*
X+16607199Y-215832D02*
X+16607199Y-384168D01*
X+16488168Y-503199D01*
X+16319832Y-503199D01*
X+16277000Y-460367D01*
X+16234168Y-503199D01*
X+16065832Y-503199D01*
X+16023000Y-460367D01*
X+15980168Y-503199D01*
X+15811832Y-503199D01*
X+15692801Y-384168D01*
X+15692801Y-215832D01*
X+15811832Y-96801D01*
X+15980168Y-96801D01*
X+16023000Y-139633D01*
X+16065832Y-96801D01*
X+16234168Y-96801D01*
X+16277000Y-139633D01*
X+16319832Y-96801D01*
X+16488168Y-96801D01*
X+16607199Y-215832D01*
G37*
%LPD*%
G36*
X+12794801Y+8585832D02*
X+12846234Y+8534399D01*
X+8357199Y+8534399D01*
X+8357199Y+8724901D01*
X+11364015Y+8724901D01*
X+11384015Y+8744901D01*
X+12794801Y+8744901D01*
X+12794801Y+8585832D01*
G37*
G36*
X+16939633Y+6459000D02*
X+16896801Y+6416168D01*
X+16896801Y+6247832D01*
X+16900944Y+6243689D01*
X+16848163Y+6243689D01*
X+16594901Y+5990427D01*
X+16594901Y+5806385D01*
X+15644665Y+4856149D01*
X+15644477Y+5036533D01*
X+15652375Y+5044431D01*
X+15652375Y+5172787D01*
X+15561614Y+5263548D01*
X+15433258Y+5263548D01*
X+15403199Y+5233489D01*
X+15403199Y+5400168D01*
X+15360367Y+5443000D01*
X+15403199Y+5485832D01*
X+15403199Y+5654168D01*
X+15360367Y+5697000D01*
X+15403199Y+5739832D01*
X+15403199Y+5908168D01*
X+15360367Y+5951000D01*
X+15403199Y+5993832D01*
X+15403199Y+6162168D01*
X+15360367Y+6205000D01*
X+15403199Y+6247832D01*
X+15403199Y+6416168D01*
X+15360367Y+6459000D01*
X+15382942Y+6481574D01*
X+15443615Y+6420901D01*
X+16853402Y+6420901D01*
X+16915567Y+6483066D01*
X+16939633Y+6459000D01*
G37*
G36*
X+11396801Y+6654168D02*
X+11396801Y+6485832D01*
X+11439633Y+6443000D01*
X+11396801Y+6400168D01*
X+11396801Y+6231832D01*
X+11439633Y+6189000D01*
X+11396801Y+6146168D01*
X+11396801Y+5977832D01*
X+11439633Y+5935000D01*
X+11396801Y+5892168D01*
X+11396801Y+5723832D01*
X+11439633Y+5681000D01*
X+11396801Y+5638168D01*
X+11396801Y+5469832D01*
X+11410593Y+5456040D01*
X+11332153Y+5456040D01*
X+11221794Y+5566399D01*
X+10306718Y+5566399D01*
X+10304178Y+5568939D01*
X+10175822Y+5568939D01*
X+10108773Y+5501890D01*
X+10108773Y+5617467D01*
X+10106233Y+5620007D01*
X+10106233Y+6650709D01*
X+10161125Y+6705601D01*
X+11448234Y+6705601D01*
X+11396801Y+6654168D01*
G37*
G36*
X+10085061Y+5349822D02*
X+10175822Y+5259061D01*
X+10304178Y+5259061D01*
X+10306718Y+5261601D01*
X+11095544Y+5261601D01*
X+11208443Y+5148702D01*
X+11327096Y+5148702D01*
X+11329636Y+5146162D01*
X+11412795Y+5146162D01*
X+11396801Y+5130168D01*
X+11396801Y+4961832D01*
X+11439633Y+4919000D01*
X+11396801Y+4876168D01*
X+11396801Y+4707832D01*
X+11439633Y+4665000D01*
X+11396801Y+4622168D01*
X+11396801Y+4453832D01*
X+11439633Y+4411000D01*
X+11396801Y+4368168D01*
X+11396801Y+4199832D01*
X+11439633Y+4157000D01*
X+11396801Y+4114168D01*
X+11396801Y+3945832D01*
X+11439633Y+3903000D01*
X+11396801Y+3860168D01*
X+11396801Y+3691832D01*
X+11439633Y+3649000D01*
X+11396801Y+3606168D01*
X+11396801Y+3437832D01*
X+11439633Y+3395000D01*
X+11396801Y+3352168D01*
X+11396801Y+3183832D01*
X+11439633Y+3141000D01*
X+11396801Y+3098168D01*
X+11396801Y+2929832D01*
X+11439633Y+2887000D01*
X+11396801Y+2844168D01*
X+11396801Y+2675832D01*
X+11439633Y+2633000D01*
X+11396801Y+2590168D01*
X+11396801Y+2421832D01*
X+11439633Y+2379000D01*
X+11396801Y+2336168D01*
X+11396801Y+2167832D01*
X+11439633Y+2125000D01*
X+11396801Y+2082168D01*
X+11396801Y+1913832D01*
X+11439633Y+1871000D01*
X+11396801Y+1828168D01*
X+11396801Y+1659832D01*
X+11411534Y+1645099D01*
X+9888466Y+1645099D01*
X+9903199Y+1659832D01*
X+9903199Y+1828168D01*
X+9860367Y+1871000D01*
X+9903199Y+1913832D01*
X+9903199Y+2082168D01*
X+9860367Y+2125000D01*
X+9903199Y+2167832D01*
X+9903199Y+2336168D01*
X+9860367Y+2379000D01*
X+9903199Y+2421832D01*
X+9903199Y+2590168D01*
X+9860367Y+2633000D01*
X+9903199Y+2675832D01*
X+9903199Y+2844168D01*
X+9860367Y+2887000D01*
X+9903199Y+2929832D01*
X+9903199Y+3098168D01*
X+9860367Y+3141000D01*
X+9903199Y+3183832D01*
X+9903199Y+3352168D01*
X+9860367Y+3395000D01*
X+9903199Y+3437832D01*
X+9903199Y+3606168D01*
X+9860367Y+3649000D01*
X+9903199Y+3691832D01*
X+9903199Y+3860168D01*
X+9860367Y+3903000D01*
X+9903199Y+3945832D01*
X+9903199Y+4114168D01*
X+9860367Y+4157000D01*
X+9903199Y+4199832D01*
X+9903199Y+4368168D01*
X+9860367Y+4411000D01*
X+9903199Y+4453832D01*
X+9903199Y+4622168D01*
X+9860367Y+4665000D01*
X+9903199Y+4707832D01*
X+9903199Y+4876168D01*
X+9860367Y+4919000D01*
X+9903199Y+4961832D01*
X+9903199Y+5130168D01*
X+9860367Y+5173000D01*
X+9903199Y+5215832D01*
X+9903199Y+5384168D01*
X+9860367Y+5427000D01*
X+9860686Y+5427320D01*
X+9889656Y+5398350D01*
X+10018012Y+5398350D01*
X+10085061Y+5465399D01*
X+10085061Y+5349822D01*
G37*
%LPC*%
G36*
X+11235199Y+2244168D02*
X+11235199Y+2075832D01*
X+11116168Y+1956801D01*
X+10947832Y+1956801D01*
X+10905000Y+1999633D01*
X+10862168Y+1956801D01*
X+10693832Y+1956801D01*
X+10651000Y+1999633D01*
X+10608168Y+1956801D01*
X+10439832Y+1956801D01*
X+10397000Y+1999633D01*
X+10354168Y+1956801D01*
X+10185832Y+1956801D01*
X+10066801Y+2075832D01*
X+10066801Y+2244168D01*
X+10185832Y+2363199D01*
X+10354168Y+2363199D01*
X+10397000Y+2320367D01*
X+10439832Y+2363199D01*
X+10608168Y+2363199D01*
X+10651000Y+2320367D01*
X+10693832Y+2363199D01*
X+10862168Y+2363199D01*
X+10905000Y+2320367D01*
X+10947832Y+2363199D01*
X+11116168Y+2363199D01*
X+11235199Y+2244168D01*
G37*
%LPD*%
G36*
X+12439173Y+6437303D02*
X+12375822Y+6437303D01*
X+12285061Y+6346542D01*
X+12285061Y+6218186D01*
X+12287601Y+6215646D01*
X+12287601Y+5046519D01*
X+12285061Y+5043979D01*
X+12285061Y+4915623D01*
X+12306635Y+4894049D01*
X+12036184Y+4892933D01*
X+12034178Y+4894939D01*
X+11962399Y+4894939D01*
X+11962399Y+5201860D01*
X+11996375Y+5235836D01*
X+11996375Y+5364192D01*
X+11905614Y+5454953D01*
X+11788320Y+5454953D01*
X+11803199Y+5469832D01*
X+11803199Y+5638168D01*
X+11760367Y+5681000D01*
X+11803199Y+5723832D01*
X+11803199Y+5892168D01*
X+11760367Y+5935000D01*
X+11803199Y+5977832D01*
X+11803199Y+6146168D01*
X+11760367Y+6189000D01*
X+11803199Y+6231832D01*
X+11803199Y+6400168D01*
X+11760367Y+6443000D01*
X+11803199Y+6485832D01*
X+11803199Y+6654168D01*
X+11751766Y+6705601D01*
X+12170875Y+6705601D01*
X+12439173Y+6437303D01*
G37*
G36*
X+16896801Y+5485832D02*
X+16939633Y+5443000D01*
X+16896801Y+5400168D01*
X+16896801Y+5231832D01*
X+16939633Y+5189000D01*
X+16896801Y+5146168D01*
X+16896801Y+4977832D01*
X+16939633Y+4935000D01*
X+16896801Y+4892168D01*
X+16896801Y+4723832D01*
X+16939633Y+4681000D01*
X+16896801Y+4638168D01*
X+16896801Y+4469832D01*
X+16939633Y+4427000D01*
X+16896801Y+4384168D01*
X+16896801Y+4215832D01*
X+16939633Y+4173000D01*
X+16896801Y+4130168D01*
X+16896801Y+3961832D01*
X+16939633Y+3919000D01*
X+16896801Y+3876168D01*
X+16896801Y+3707832D01*
X+16939633Y+3665000D01*
X+16896801Y+3622168D01*
X+16896801Y+3453832D01*
X+16939633Y+3411000D01*
X+16896801Y+3368168D01*
X+16896801Y+3199832D01*
X+16939633Y+3157000D01*
X+16896801Y+3114168D01*
X+16896801Y+2945832D01*
X+16939633Y+2903000D01*
X+16896801Y+2860168D01*
X+16896801Y+2691832D01*
X+16939633Y+2649000D01*
X+16896801Y+2606168D01*
X+16896801Y+2437832D01*
X+16939633Y+2395000D01*
X+16896801Y+2352168D01*
X+16896801Y+2183832D01*
X+16939633Y+2141000D01*
X+16896801Y+2098168D01*
X+16896801Y+1929832D01*
X+16908022Y+1918611D01*
X+16842444Y+1918611D01*
X+16839904Y+1916071D01*
X+16679328Y+1916071D01*
X+16675656Y+1912399D01*
X+15909432Y+1912399D01*
X+15909264Y+1912567D01*
X+15837204Y+1912567D01*
X+15834664Y+1915107D01*
X+15706308Y+1915107D01*
X+15703601Y+1912400D01*
X+15578529Y+1912400D01*
X+15574858Y+1916071D01*
X+15455309Y+1916071D01*
X+15452769Y+1918611D01*
X+15391978Y+1918611D01*
X+15403199Y+1929832D01*
X+15403199Y+2098168D01*
X+15360367Y+2141000D01*
X+15403199Y+2183832D01*
X+15403199Y+2352168D01*
X+15360367Y+2395000D01*
X+15403199Y+2437832D01*
X+15403199Y+2606168D01*
X+15360367Y+2649000D01*
X+15403199Y+2691832D01*
X+15403199Y+2860168D01*
X+15360367Y+2903000D01*
X+15403199Y+2945832D01*
X+15403199Y+3001684D01*
X+15429822Y+2975061D01*
X+15558178Y+2975061D01*
X+15604901Y+3021784D01*
X+15604901Y+2730852D01*
X+15605283Y+2730470D01*
X+15605283Y+2553642D01*
X+15701996Y+2456929D01*
X+15838768Y+2456929D01*
X+15935481Y+2553642D01*
X+15935481Y+2867240D01*
X+15935099Y+2867622D01*
X+15935099Y+4679615D01*
X+16896801Y+5641317D01*
X+16896801Y+5485832D01*
G37*
%LPC*%
G36*
X+16735199Y+2260168D02*
X+16735199Y+2091832D01*
X+16616168Y+1972801D01*
X+16447832Y+1972801D01*
X+16405000Y+2015633D01*
X+16362168Y+1972801D01*
X+16193832Y+1972801D01*
X+16151000Y+2015633D01*
X+16108168Y+1972801D01*
X+15939832Y+1972801D01*
X+15897000Y+2015633D01*
X+15854168Y+1972801D01*
X+15685832Y+1972801D01*
X+15566801Y+2091832D01*
X+15566801Y+2260168D01*
X+15685832Y+2379199D01*
X+15854168Y+2379199D01*
X+15897000Y+2336367D01*
X+15939832Y+2379199D01*
X+16108168Y+2379199D01*
X+16151000Y+2336367D01*
X+16193832Y+2379199D01*
X+16362168Y+2379199D01*
X+16405000Y+2336367D01*
X+16447832Y+2379199D01*
X+16616168Y+2379199D01*
X+16735199Y+2260168D01*
G37*
%LPD*%
D10*
X+15200000Y+2268001D02*
X+15200000Y+2268000D01*
X+13198409Y+762813D02*
X+13198409Y+762000D01*
X+11818801Y+3016708D02*
X+11880127Y+3016708D01*
X+11882835Y+3014000D01*
X+11818034Y+3014000D02*
X+11882835Y+3014000D01*
X+10443959Y+492331D02*
X+10499628Y+548000D01*
X+10502000Y+548000D01*
X+13198409Y+762000D02*
X+10716000Y+762000D01*
X+10502000Y+548000D01*
X+13200000Y+6634091D02*
X+13200000Y+6728165D01*
X+12954000Y+7112000D02*
X+13200000Y+6866000D01*
X+13200000Y+6728165D01*
X+12700000Y+7112000D02*
X+12821675Y+7112000D01*
X+12954000Y+7112000D02*
X+12821675Y+7112000D01*
X+13419840Y+5220000D02*
X+13420000Y+5220000D01*
X+13361479Y+5161639D02*
X+13419840Y+5220000D01*
X+13462000Y+5262160D01*
X+13462000Y+5262000D01*
X+13420000Y+5220000D01*
X+15388591Y+1763672D02*
X+15511733Y+1763672D01*
X+15515404Y+1760001D01*
X+15769999Y+1760001D01*
X+16906622Y+1763672D02*
X+16742453Y+1763672D01*
X+16738781Y+1760000D01*
X+12918379Y+2804414D02*
X+12708793Y+3014000D01*
X+12571322Y+3014000D01*
X+11882835Y+3014000D02*
X+12571322Y+3014000D01*
D11*
X+14758784Y+2271216D02*
X+14758784Y+2361579D01*
X+14758784Y+2495468D01*
X+14756000Y+2498252D01*
D10*
X+14756000Y+2361579D01*
X+14758784Y+2361579D01*
X+15769999Y+1760001D02*
X+15770000Y+1760000D01*
X+15846306Y+1760000D01*
X+16738781Y+1760000D02*
X+15846306Y+1760000D01*
X+15846138Y+1760168D01*
X+15770486Y+1760168D02*
X+15846138Y+1760168D01*
X+9890000Y+7620000D02*
X+9920000Y+7620000D01*
X+10402014Y+7620000D01*
X+10402281Y+7620267D01*
X+9199886Y+7504373D02*
X+9199886Y+7619886D01*
X+9200000Y+7620000D01*
X+9890000Y+7620000D02*
X+9200000Y+7620000D01*
X+11393814Y+5301101D02*
X+11271568Y+5301101D01*
X+11158669Y+5414000D01*
X+10240000Y+5414000D01*
X+12440000Y+6282364D02*
X+12440000Y+4979801D01*
X+12445698Y+3785212D02*
X+12441194Y+3780708D01*
X+11824416Y+3780708D01*
X+12978000Y+8030000D02*
X+11459000Y+8030000D01*
X+11176000Y+7747000D01*
X+9330000Y+5340000D02*
X+9330000Y+6580000D01*
X+9770000Y+7020000D01*
X+12238686Y+7020000D01*
X+12518774Y+7300088D01*
X+12954050Y+7300088D01*
D11*
X+14756000Y+2960000D02*
X+14756000Y+2498252D01*
D10*
X+14756000Y+2960000D02*
X+14756000Y+3007834D01*
X+14757594Y+3940602D02*
X+14757594Y+4092078D01*
X+14756000Y+4093672D01*
D11*
X+14756000Y+6660000D02*
X+14756000Y+4093672D01*
D10*
X+16637000Y+7390000D02*
X+16577000Y+7450000D01*
X+14200001Y+7450000D01*
X+13520000Y+6769999D01*
X+13520000Y+5320160D01*
X+13462000Y+5262160D01*
X+11970000Y+4740000D02*
X+12861414Y+4743939D01*
X+12649857Y+5059402D02*
X+12650000Y+5059545D01*
X+12650000Y+6029089D01*
X+8078593Y+8385968D02*
X+8142094Y+8385968D01*
X+8146062Y+8382000D01*
X+15684000Y+8382000D01*
X+15871000Y+8569000D01*
X+15871000Y+8577249D01*
X+15996042Y+8702291D01*
X+14615304Y-206851D02*
X+14908453Y-500000D01*
X+15253812Y-500000D01*
X+15497436Y+5108609D02*
X+15492009Y+5103182D01*
X+15494000Y+3130000D01*
X+13620000Y+7550000D02*
X+13680000Y+7610000D01*
X+16180000Y+7610000D01*
X+16260000Y+7690000D01*
D11*
X+17101448Y+6958620D02*
X+17101448Y+6907307D01*
X+16785017Y+6590876D01*
X+16785017Y+6586000D01*
X+15512000Y+6586000D01*
X+15494000Y+6604000D01*
D10*
X+9953834Y+5553289D02*
X+9953834Y+6713834D01*
X+10098000Y+6858000D01*
X+12234000Y+6858000D01*
X+12794825Y+6297175D01*
X+12806202Y+6297175D01*
X+16420000Y+7239000D02*
X+16379000Y+7280000D01*
X+14280000Y+7280000D01*
X+13840000Y+6840000D01*
X+13840000Y+6740000D01*
X+13200000Y+4259861D02*
X+13200000Y+4361284D01*
X+16800000Y+6859973D02*
X+14608009Y+6858009D01*
X+14360804Y+6858009D01*
X+14208101Y+6705306D01*
X+14210000Y+6703407D01*
X+14210000Y+6460000D01*
X+13900000Y+6150000D01*
X+13900000Y+5120000D01*
X+13200000Y+4420000D01*
X+13200000Y+4361284D01*
X+12947667Y+3646419D02*
X+12863581Y+3646419D01*
X+12790000Y+3720000D01*
X+11841436Y+5300014D02*
X+11810000Y+5268578D01*
X+11810000Y+4120000D01*
X+11960000Y+3970000D01*
X+12540000Y+3970000D01*
X+12790000Y+3720000D01*
X+17465087Y+1090000D02*
X+17137087Y+762000D01*
X+17010326Y+762000D01*
X+17320828Y+4808669D02*
X+17465087Y+4664410D01*
X+17465087Y+1090000D01*
X+17010326Y+762000D02*
X+15240000Y+762000D01*
X+14986000Y+1016000D01*
X+13589000Y+1016000D01*
X+13421801Y+2548889D02*
X+13563837Y+2548889D01*
X+13566726Y+2546000D01*
X+13710000Y+2546000D01*
X+13970000Y+2286000D01*
X+13970000Y+1610000D02*
X+14070000Y+1510000D01*
X+17110000Y+1510000D01*
X+17120000Y+1520000D01*
D11*
X+14758784Y+2271216D02*
X+14449664Y+1960000D01*
X+13790000Y+1960000D01*
X+13400000Y+1570000D01*
D10*
X+12044785Y+1570000D01*
X+11954785Y+1480000D01*
D11*
X+9610000Y+1480000D01*
X+9398000Y+1692000D01*
X+9398000Y+2252000D01*
X+9395334Y+2251958D01*
D10*
X+13198409Y+762000D02*
X+13768000Y+762000D01*
X+13960000Y+570000D01*
X+17208000Y+570000D01*
X+17400000Y+378000D01*
X+17400000Y+43605D01*
X+17399855Y+43460D01*
X+17399855Y-37805D01*
X+11843007Y+7670000D02*
X+11843007Y+7313007D01*
D11*
X+6395575Y+8892378D02*
X+6494371Y+8892378D01*
X+6496749Y+8890000D01*
X+10160000Y+8890000D01*
X+14187224Y+8670000D02*
X+13947224Y+8910000D01*
X+11315630Y+8910000D01*
X+11295630Y+8890000D01*
X+10160000Y+8890000D01*
D10*
X+13519946Y+5068823D02*
X+13708707Y+5257583D01*
X+13708707Y+6230476D01*
X+13995033Y+6516801D01*
X+13995033Y+6735033D01*
X+14320000Y+7060000D01*
X+16690000Y+7060000D01*
X+16870000Y+7240000D01*
X+16870000Y+8000000D01*
X+17350000Y+8480000D01*
X+19199325Y+8480000D01*
X+19231592Y+8512267D01*
X+19553644Y+8512267D01*
D11*
X+15770382Y+2622028D02*
X+15770382Y+2798855D01*
X+15770000Y+2799237D01*
X+15770000Y+4748000D01*
X+16760000Y+5738000D01*
X+16760000Y+5922042D01*
X+16916549Y+6078591D01*
D10*
X+17180000Y+290000D02*
X+15660000Y+290000D01*
X+15568182Y+198182D01*
X+15568182Y+197523D01*
X+13552480Y+197523D01*
X+13370000Y+380003D01*
X+11694000Y+1120508D02*
X+12511531Y+1120508D01*
X+12601023Y+1210000D01*
X+15103716Y+1210000D01*
X+15241098Y+1072618D01*
X+15244133Y+1072618D01*
X+11934000Y+110000D02*
X+13410000Y+110000D01*
X+13520000Y+0D01*
X+15621000Y+0D01*
X+15748000Y+127000D01*
D12*
X+13198409Y+762813D03*
X+11818801Y+3016708D03*
X+10443959Y+492331D03*
X+13200000Y+6634091D03*
X+13361479Y+5161639D03*
X+15388591Y+1763672D03*
X+16906622Y+1763672D03*
X+12918379Y+2804414D03*
X+11970000Y+4740000D03*
X+14756000Y+6660000D03*
X+10402281Y+7620267D03*
X+9199886Y+7504373D03*
X+11393814Y+5301101D03*
X+10240000Y+5414000D03*
X+12440000Y+6282364D03*
X+12440000Y+4979801D03*
X+12445698Y+3785212D03*
X+11824416Y+3780708D03*
X+12978000Y+8030000D03*
X+11176000Y+7747000D03*
X+9330000Y+5340000D03*
X+12954050Y+7300088D03*
X+14756000Y+3007834D03*
X+14757594Y+3940602D03*
X+16637000Y+7390000D03*
X+11841436Y+5300014D03*
X+12861414Y+4743939D03*
X+12649857Y+5059402D03*
X+12650000Y+6029089D03*
X+17320828Y+4808669D03*
X+13589000Y+1016000D03*
X+8078593Y+8385968D03*
X+15996042Y+8702291D03*
X+12700000Y+7112000D03*
X+15770486Y+1760168D03*
X+14615304Y-206851D03*
X+15253812Y-500000D03*
X+15497436Y+5108609D03*
X+15494000Y+3130000D03*
X+13620000Y+7550000D03*
X+16260000Y+7690000D03*
X+16800000Y+6859973D03*
X+17101448Y+6958620D03*
X+15494000Y+6604000D03*
X+9953834Y+5553289D03*
X+12806202Y+6297175D03*
X+16420000Y+7239000D03*
X+13840000Y+6740000D03*
X+13200000Y+4259861D03*
X+12947667Y+3646419D03*
X+13421801Y+2548889D03*
X+13970000Y+2286000D03*
X+13970000Y+1610000D03*
X+17120000Y+1520000D03*
X+14758784Y+2271216D03*
X+9395334Y+2251958D03*
X+17399855Y-37805D03*
X+11843007Y+7670000D03*
X+11843007Y+7313007D03*
X+6395575Y+8892378D03*
X+14187224Y+8670000D03*
X+10160000Y+8890000D03*
X+13519946Y+5068823D03*
X+19553644Y+8512267D03*
X+15770382Y+2622028D03*
X+16916549Y+6078591D03*
X+17180000Y+290000D03*
X+13370000Y+380003D03*
X+11694000Y+1120508D03*
X+15244133Y+1072618D03*
X+11934000Y+110000D03*
X+15748000Y+127000D03*
D10*
X+21688241Y+8607126D02*
X+21584168Y+8711199D01*
X+21415832Y+8711199D01*
X+21296801Y+8592168D01*
X+21296801Y+8423832D01*
X+21339633Y+8381000D01*
X+21296801Y+8338168D01*
X+21296801Y+8169832D01*
X+21339633Y+8127000D01*
X+21296801Y+8084168D01*
X+21296801Y+7915832D01*
X+21415832Y+7796801D01*
X+21584168Y+7796801D01*
X+21688241Y+7900874D01*
X+21688241Y+7311760D01*
X+17553709Y+7311760D01*
X+17488241Y+7246292D01*
X+17488241Y+4856780D01*
X+17475767Y+4869254D01*
X+17475767Y+4872847D01*
X+17385006Y+4963608D01*
X+17288975Y+4963608D01*
X+17303199Y+4977832D01*
X+17303199Y+5146168D01*
X+17260367Y+5189000D01*
X+17303199Y+5231832D01*
X+17303199Y+5400168D01*
X+17260367Y+5443000D01*
X+17303199Y+5485832D01*
X+17303199Y+5654168D01*
X+17260367Y+5697000D01*
X+17303199Y+5739832D01*
X+17303199Y+5908168D01*
X+17260367Y+5951000D01*
X+17303199Y+5993832D01*
X+17303199Y+6162168D01*
X+17260367Y+6205000D01*
X+17303199Y+6247832D01*
X+17303199Y+6416168D01*
X+17260367Y+6459000D01*
X+17303199Y+6501832D01*
X+17303199Y+6670168D01*
X+17200496Y+6772871D01*
X+17266547Y+6838922D01*
X+17266547Y+7027006D01*
X+17169834Y+7123719D01*
X+17033062Y+7123719D01*
X+16936349Y+7027006D01*
X+16936349Y+6975692D01*
X+16919874Y+6959216D01*
X+16864178Y+7014912D01*
X+16860436Y+7014912D01*
X+17022399Y+7176875D01*
X+17022399Y+7493501D01*
X+17178907Y+7493501D01*
X+17290499Y+7605093D01*
X+17290499Y+7762907D01*
X+17178907Y+7874499D01*
X+17022399Y+7874499D01*
X+17022399Y+7936875D01*
X+17413125Y+8327601D01*
X+19262450Y+8327601D01*
X+19294717Y+8359868D01*
X+19486926Y+8359868D01*
X+19489466Y+8357328D01*
X+19617822Y+8357328D01*
X+19708583Y+8448089D01*
X+19708583Y+8576445D01*
X+19617822Y+8667206D01*
X+19489466Y+8667206D01*
X+19486926Y+8664666D01*
X+19168467Y+8664666D01*
X+19136200Y+8632399D01*
X+18357199Y+8632399D01*
X+18357199Y+8903199D01*
X+17696801Y+8903199D01*
X+17696801Y+8632399D01*
X+17290499Y+8632399D01*
X+17290499Y+8778907D01*
X+17178907Y+8890499D01*
X+17021093Y+8890499D01*
X+16909501Y+8778907D01*
X+16909501Y+8621093D01*
X+17021093Y+8509501D01*
X+17163977Y+8509501D01*
X+16717601Y+8063125D01*
X+16717601Y+7528516D01*
X+16701178Y+7544939D01*
X+16697585Y+7544939D01*
X+16640125Y+7602399D01*
X+16391516Y+7602399D01*
X+16414939Y+7625822D01*
X+16414939Y+7754178D01*
X+16324178Y+7844939D01*
X+16204148Y+7844939D01*
X+16253999Y+7894790D01*
X+16253999Y+8105210D01*
X+16105210Y+8253999D01*
X+15894790Y+8253999D01*
X+15746001Y+8105210D01*
X+15746001Y+7894790D01*
X+15878392Y+7762399D01*
X+15613608Y+7762399D01*
X+15745999Y+7894790D01*
X+15745999Y+8105210D01*
X+15621608Y+8229601D01*
X+15747125Y+8229601D01*
X+16023399Y+8505875D01*
X+16023399Y+8514124D01*
X+16056627Y+8547352D01*
X+16060220Y+8547352D01*
X+16150981Y+8638113D01*
X+16150981Y+8766469D01*
X+16060220Y+8857230D01*
X+15931864Y+8857230D01*
X+15841103Y+8766469D01*
X+15841103Y+8762876D01*
X+15718601Y+8640374D01*
X+15718601Y+8632125D01*
X+15620875Y+8534399D01*
X+14285107Y+8534399D01*
X+14352322Y+8601614D01*
X+14352322Y+8738386D01*
X+14015609Y+9075099D01*
X+11247245Y+9075099D01*
X+11227245Y+9055099D01*
X+6565134Y+9055099D01*
X+6562756Y+9057477D01*
X+6327189Y+9057477D01*
X+6230476Y+8960764D01*
X+6230476Y+8823992D01*
X+6327189Y+8727279D01*
X+6425986Y+8727279D01*
X+6428364Y+8724901D01*
X+7696801Y+8724901D01*
X+7696801Y+8456801D01*
X+7930309Y+8456801D01*
X+7923654Y+8450146D01*
X+7923654Y+8321790D01*
X+8014415Y+8231029D01*
X+8081509Y+8231029D01*
X+8082937Y+8229601D01*
X+9009501Y+8229601D01*
X+9009501Y+8121093D01*
X+9121093Y+8009501D01*
X+9278907Y+8009501D01*
X+9390499Y+8121093D01*
X+9390499Y+8229601D01*
X+9879195Y+8229601D01*
X+9828501Y+8178907D01*
X+9828501Y+8021093D01*
X+9940093Y+7909501D01*
X+10097907Y+7909501D01*
X+10209499Y+8021093D01*
X+10209499Y+8178907D01*
X+10158805Y+8229601D01*
X+10260195Y+8229601D01*
X+10209501Y+8178907D01*
X+10209501Y+8021093D01*
X+10321093Y+7909501D01*
X+10478907Y+7909501D01*
X+10590499Y+8021093D01*
X+10590499Y+8178907D01*
X+10539805Y+8229601D01*
X+15362392Y+8229601D01*
X+15238001Y+8105210D01*
X+15238001Y+7894790D01*
X+15370392Y+7762399D01*
X+13616875Y+7762399D01*
X+13559415Y+7704939D01*
X+13555822Y+7704939D01*
X+13465061Y+7614178D01*
X+13465061Y+7485822D01*
X+13555822Y+7395061D01*
X+13684178Y+7395061D01*
X+13746718Y+7457601D01*
X+13992078Y+7457601D01*
X+13367601Y+6833124D01*
X+13367601Y+6519766D01*
X+13336196Y+6551170D01*
X+13354939Y+6569913D01*
X+13354939Y+6698269D01*
X+13352399Y+6700809D01*
X+13352399Y+6929125D01*
X+13184723Y+7096801D01*
X+13284168Y+7096801D01*
X+13403199Y+7215832D01*
X+13403199Y+7384168D01*
X+13360367Y+7427000D01*
X+13403199Y+7469832D01*
X+13403199Y+7638168D01*
X+13360367Y+7681000D01*
X+13403199Y+7723832D01*
X+13403199Y+7892168D01*
X+13284168Y+8011199D01*
X+13132939Y+8011199D01*
X+13132939Y+8094178D01*
X+13042178Y+8184939D01*
X+12913822Y+8184939D01*
X+12911282Y+8182399D01*
X+11395875Y+8182399D01*
X+11115415Y+7901939D01*
X+11111822Y+7901939D01*
X+11021061Y+7811178D01*
X+11021061Y+7682822D01*
X+11111822Y+7592061D01*
X+11240178Y+7592061D01*
X+11330939Y+7682822D01*
X+11330939Y+7686415D01*
X+11522125Y+7877601D01*
X+12911282Y+7877601D01*
X+12913822Y+7875061D01*
X+12996801Y+7875061D01*
X+12996801Y+7723832D01*
X+13039633Y+7681000D01*
X+12996801Y+7638168D01*
X+12996801Y+7469832D01*
X+13011606Y+7455027D01*
X+12889872Y+7455027D01*
X+12887332Y+7452487D01*
X+12455649Y+7452487D01*
X+12175560Y+7172398D01*
X+11921515Y+7172398D01*
X+11997946Y+7248829D01*
X+11997946Y+7377185D01*
X+11995406Y+7379725D01*
X+11995406Y+7603282D01*
X+11997946Y+7605822D01*
X+11997946Y+7734178D01*
X+11907185Y+7824939D01*
X+11778829Y+7824939D01*
X+11688068Y+7734178D01*
X+11688068Y+7605822D01*
X+11690608Y+7603282D01*
X+11690608Y+7379725D01*
X+11688068Y+7377185D01*
X+11688068Y+7248829D01*
X+11764499Y+7172398D01*
X+9706874Y+7172398D01*
X+9177601Y+6643125D01*
X+9177601Y+5406718D01*
X+9175061Y+5404178D01*
X+9175061Y+5275822D01*
X+9265822Y+5185061D01*
X+9394178Y+5185061D01*
X+9484939Y+5275822D01*
X+9484939Y+5404178D01*
X+9482399Y+5406718D01*
X+9482399Y+6516875D01*
X+9496801Y+6531277D01*
X+9496801Y+6485832D01*
X+9539633Y+6443000D01*
X+9496801Y+6400168D01*
X+9496801Y+6231832D01*
X+9539633Y+6189000D01*
X+9496801Y+6146168D01*
X+9496801Y+5977832D01*
X+9539633Y+5935000D01*
X+9496801Y+5892168D01*
X+9496801Y+5723832D01*
X+9539633Y+5681000D01*
X+9496801Y+5638168D01*
X+9496801Y+5469832D01*
X+9539633Y+5427000D01*
X+9496801Y+5384168D01*
X+9496801Y+5215832D01*
X+9539633Y+5173000D01*
X+9496801Y+5130168D01*
X+9496801Y+4961832D01*
X+9539633Y+4919000D01*
X+9496801Y+4876168D01*
X+9496801Y+4707832D01*
X+9539633Y+4665000D01*
X+9496801Y+4622168D01*
X+9496801Y+4453832D01*
X+9539633Y+4411000D01*
X+9496801Y+4368168D01*
X+9496801Y+4199832D01*
X+9539633Y+4157000D01*
X+9496801Y+4114168D01*
X+9496801Y+3945832D01*
X+9539633Y+3903000D01*
X+9496801Y+3860168D01*
X+9496801Y+3691832D01*
X+9539633Y+3649000D01*
X+9496801Y+3606168D01*
X+9496801Y+3437832D01*
X+9539633Y+3395000D01*
X+9496801Y+3352168D01*
X+9496801Y+3183832D01*
X+9539633Y+3141000D01*
X+9496801Y+3098168D01*
X+9496801Y+2929832D01*
X+9539633Y+2887000D01*
X+9496801Y+2844168D01*
X+9496801Y+2675832D01*
X+9539633Y+2633000D01*
X+9496801Y+2590168D01*
X+9496801Y+2421832D01*
X+9539633Y+2379000D01*
X+9522120Y+2361487D01*
X+9464540Y+2418167D01*
X+9326948Y+2417057D01*
X+9230235Y+2320344D01*
X+9230235Y+2183572D01*
X+9232901Y+2180906D01*
X+9232901Y+1623615D01*
X+9541615Y+1314901D01*
X+12023171Y+1314901D01*
X+12119884Y+1411614D01*
X+12119884Y+1417601D01*
X+13318915Y+1417601D01*
X+13331614Y+1404902D01*
X+13468386Y+1404902D01*
X+13858385Y+1794901D01*
X+14518377Y+1794901D01*
X+14923883Y+2202830D01*
X+14923883Y+2563853D01*
X+14921099Y+2566637D01*
X+14921099Y+3028386D01*
X+14910939Y+3038546D01*
X+14910939Y+3072012D01*
X+14820178Y+3162773D01*
X+14691822Y+3162773D01*
X+14601061Y+3072012D01*
X+14601061Y+3038546D01*
X+14590901Y+3028386D01*
X+14590901Y+2429866D01*
X+14593685Y+2427082D01*
X+14593685Y+2339602D01*
X+14380891Y+2125099D01*
X+13721615Y+2125099D01*
X+13318915Y+1722399D01*
X+11981660Y+1722399D01*
X+11904360Y+1645099D01*
X+11788466Y+1645099D01*
X+11803199Y+1659832D01*
X+11803199Y+1828168D01*
X+11760367Y+1871000D01*
X+11803199Y+1913832D01*
X+11803199Y+2082168D01*
X+11760367Y+2125000D01*
X+11803199Y+2167832D01*
X+11803199Y+2336168D01*
X+11760367Y+2379000D01*
X+11803199Y+2421832D01*
X+11803199Y+2590168D01*
X+11760367Y+2633000D01*
X+11803199Y+2675832D01*
X+11803199Y+2844168D01*
X+11785766Y+2861601D01*
X+12645668Y+2861601D01*
X+12763440Y+2743829D01*
X+12763440Y+2740236D01*
X+12854201Y+2649475D01*
X+12982557Y+2649475D01*
X+13022858Y+2689776D01*
X+13039633Y+2673000D01*
X+12996801Y+2630168D01*
X+12996801Y+2461832D01*
X+13115832Y+2342801D01*
X+13284168Y+2342801D01*
X+13346470Y+2405103D01*
X+13357623Y+2393950D01*
X+13485979Y+2393950D01*
X+13488519Y+2396490D01*
X+13500712Y+2396490D01*
X+13503601Y+2393601D01*
X+13646875Y+2393601D01*
X+13815061Y+2225415D01*
X+13815061Y+2221822D01*
X+13905822Y+2131061D01*
X+14034178Y+2131061D01*
X+14124939Y+2221822D01*
X+14124939Y+2350178D01*
X+14034178Y+2440939D01*
X+14030585Y+2440939D01*
X+13773125Y+2698399D01*
X+13629851Y+2698399D01*
X+13626962Y+2701288D01*
X+13488519Y+2701288D01*
X+13485979Y+2703828D01*
X+13391195Y+2703828D01*
X+13403199Y+2715832D01*
X+13403199Y+2884168D01*
X+13284168Y+3003199D01*
X+13115832Y+3003199D01*
X+13027272Y+2914638D01*
X+12982557Y+2959353D01*
X+12978964Y+2959353D01*
X+12771919Y+3166399D01*
X+11945960Y+3166399D01*
X+11943252Y+3169107D01*
X+11885519Y+3169107D01*
X+11882979Y+3171647D01*
X+11791014Y+3171647D01*
X+11803199Y+3183832D01*
X+11803199Y+3352168D01*
X+11760367Y+3395000D01*
X+11803199Y+3437832D01*
X+11803199Y+3606168D01*
X+11783598Y+3625769D01*
X+11888594Y+3625769D01*
X+11891134Y+3628309D01*
X+12504319Y+3628309D01*
X+12506283Y+3630273D01*
X+12509876Y+3630273D01*
X+12587040Y+3707436D01*
X+12800455Y+3494020D01*
X+12880949Y+3494020D01*
X+12883489Y+3491480D01*
X+13011845Y+3491480D01*
X+13039499Y+3519134D01*
X+13115832Y+3442801D01*
X+13284168Y+3442801D01*
X+13403199Y+3561832D01*
X+13403199Y+3730168D01*
X+13360367Y+3773000D01*
X+13403199Y+3815832D01*
X+13403199Y+3984168D01*
X+13284168Y+4103199D01*
X+13115832Y+4103199D01*
X+12996801Y+3984168D01*
X+12996801Y+3815832D01*
X+13011275Y+3801358D01*
X+12924166Y+3801358D01*
X+12603125Y+4122399D01*
X+12023125Y+4122399D01*
X+11962399Y+4183125D01*
X+11962399Y+4585061D01*
X+12034178Y+4585061D01*
X+12036735Y+4587618D01*
X+12447607Y+4589572D01*
X+12795230Y+4591006D01*
X+12797236Y+4589000D01*
X+12925592Y+4589000D01*
X+12997612Y+4661020D01*
X+13111554Y+4547078D01*
X+13047601Y+4483125D01*
X+13047601Y+4326579D01*
X+13045061Y+4324039D01*
X+13045061Y+4195683D01*
X+13135822Y+4104922D01*
X+13264178Y+4104922D01*
X+13354939Y+4195683D01*
X+13354939Y+4324039D01*
X+13352399Y+4326579D01*
X+13352399Y+4356875D01*
X+14052399Y+5056875D01*
X+14052399Y+6086875D01*
X+14362399Y+6396875D01*
X+14362399Y+6644080D01*
X+14423929Y+6705610D01*
X+14590901Y+6705610D01*
X+14590901Y+4025286D01*
X+14605195Y+4010992D01*
X+14605195Y+4007320D01*
X+14602655Y+4004780D01*
X+14602655Y+3876424D01*
X+14693416Y+3785663D01*
X+14821772Y+3785663D01*
X+14912533Y+3876424D01*
X+14912533Y+4004780D01*
X+14909993Y+4007320D01*
X+14909993Y+4014180D01*
X+14921099Y+4025286D01*
X+14921099Y+6705883D01*
X+15032613Y+6705980D01*
X+14996801Y+6670168D01*
X+14996801Y+6501832D01*
X+15039633Y+6459000D01*
X+14996801Y+6416168D01*
X+14996801Y+6247832D01*
X+15039633Y+6205000D01*
X+14996801Y+6162168D01*
X+14996801Y+5993832D01*
X+15039633Y+5951000D01*
X+14996801Y+5908168D01*
X+14996801Y+5739832D01*
X+15039633Y+5697000D01*
X+14996801Y+5654168D01*
X+14996801Y+5485832D01*
X+15039633Y+5443000D01*
X+14996801Y+5400168D01*
X+14996801Y+5231832D01*
X+15039633Y+5189000D01*
X+14996801Y+5146168D01*
X+14996801Y+4977832D01*
X+15039633Y+4935000D01*
X+14996801Y+4892168D01*
X+14996801Y+4723832D01*
X+15039633Y+4681000D01*
X+14996801Y+4638168D01*
X+14996801Y+4469832D01*
X+15039633Y+4427000D01*
X+14996801Y+4384168D01*
X+14996801Y+4215832D01*
X+15039633Y+4173000D01*
X+14996801Y+4130168D01*
X+14996801Y+3961832D01*
X+15039633Y+3919000D01*
X+14996801Y+3876168D01*
X+14996801Y+3707832D01*
X+15039633Y+3665000D01*
X+14996801Y+3622168D01*
X+14996801Y+3453832D01*
X+15039633Y+3411000D01*
X+14996801Y+3368168D01*
X+14996801Y+3199832D01*
X+15039633Y+3157000D01*
X+14996801Y+3114168D01*
X+14996801Y+2945832D01*
X+15039633Y+2903000D01*
X+14996801Y+2860168D01*
X+14996801Y+2691832D01*
X+15039633Y+2649000D01*
X+14996801Y+2606168D01*
X+14996801Y+2437832D01*
X+15039633Y+2395000D01*
X+14996801Y+2352168D01*
X+14996801Y+2183832D01*
X+15039633Y+2141000D01*
X+14996801Y+2098168D01*
X+14996801Y+1929832D01*
X+15039633Y+1887000D01*
X+14996801Y+1844168D01*
X+14996801Y+1675832D01*
X+15010234Y+1662399D01*
X+14133125Y+1662399D01*
X+14124939Y+1670585D01*
X+14124939Y+1674178D01*
X+14034178Y+1764939D01*
X+13905822Y+1764939D01*
X+13815061Y+1674178D01*
X+13815061Y+1545822D01*
X+13905822Y+1455061D01*
X+13909415Y+1455061D01*
X+14002077Y+1362399D01*
X+12537898Y+1362399D01*
X+12448406Y+1272907D01*
X+11760718Y+1272907D01*
X+11758178Y+1275447D01*
X+11629822Y+1275447D01*
X+11539061Y+1184686D01*
X+11539061Y+1056330D01*
X+11629822Y+965569D01*
X+11758178Y+965569D01*
X+11760718Y+968109D01*
X+12574656Y+968109D01*
X+12664148Y+1057601D01*
X+13009501Y+1057601D01*
X+13009501Y+921093D01*
X+13016195Y+914399D01*
X+10652875Y+914399D01*
X+10438875Y+700399D01*
X+10436503Y+700399D01*
X+10383374Y+647270D01*
X+10379781Y+647270D01*
X+10289020Y+556509D01*
X+10289020Y+428153D01*
X+10379781Y+337392D01*
X+10508137Y+337392D01*
X+10598898Y+428153D01*
X+10598898Y+429373D01*
X+10654399Y+484875D01*
X+10779125Y+609601D01*
X+13132504Y+609601D01*
X+13134231Y+607874D01*
X+13262587Y+607874D01*
X+13264314Y+609601D01*
X+13704875Y+609601D01*
X+13896875Y+417601D01*
X+15572077Y+417601D01*
X+15504398Y+349922D01*
X+13615605Y+349922D01*
X+13524939Y+440588D01*
X+13524939Y+444181D01*
X+13434178Y+534942D01*
X+13305822Y+534942D01*
X+13215061Y+444181D01*
X+13215061Y+315825D01*
X+13268487Y+262399D01*
X+12000718Y+262399D01*
X+11998178Y+264939D01*
X+11869822Y+264939D01*
X+11779061Y+174178D01*
X+11779061Y+45822D01*
X+11806758Y+18125D01*
X+11732801Y-55832D01*
X+11732801Y-224168D01*
X+11813633Y-305000D01*
X+11742801Y-375832D01*
X+11742801Y-544168D01*
X+11861832Y-663199D01*
X+12030168Y-663199D01*
X+12073000Y-620367D01*
X+12115832Y-663199D01*
X+12284168Y-663199D01*
X+12327000Y-620367D01*
X+12369832Y-663199D01*
X+12538168Y-663199D01*
X+12581000Y-620367D01*
X+12623832Y-663199D01*
X+12792168Y-663199D01*
X+12835000Y-620367D01*
X+12877832Y-663199D01*
X+13046168Y-663199D01*
X+13089000Y-620367D01*
X+13131832Y-663199D01*
X+13300168Y-663199D01*
X+13419199Y-544168D01*
X+13419199Y-375832D01*
X+13338367Y-295000D01*
X+13409199Y-224168D01*
X+13409199Y-104723D01*
X+13456875Y-152399D01*
X+14460365Y-152399D01*
X+14460365Y-271029D01*
X+14551126Y-361790D01*
X+14554719Y-361790D01*
X+14845328Y-652399D01*
X+15187094Y-652399D01*
X+15189634Y-654939D01*
X+15317990Y-654939D01*
X+15408751Y-564178D01*
X+15408751Y-435822D01*
X+15317990Y-345061D01*
X+15189634Y-345061D01*
X+15187094Y-347601D01*
X+14971578Y-347601D01*
X+14776376Y-152399D01*
X+15684125Y-152399D01*
X+15808585Y-27939D01*
X+15812178Y-27939D01*
X+15902939Y+62822D01*
X+15902939Y+137601D01*
X+17113282Y+137601D01*
X+17115822Y+135061D01*
X+17244178Y+135061D01*
X+17247602Y+138485D01*
X+17247602Y+106731D01*
X+17247456Y+106585D01*
X+17247456Y+28913D01*
X+17244916Y+26373D01*
X+17244916Y-101983D01*
X+17335677Y-192744D01*
X+17464033Y-192744D01*
X+17488241Y-168536D01*
X+17488241Y-196801D01*
X+16942801Y-196801D01*
X+16942801Y-603199D01*
X+17488241Y-603199D01*
X+17488241Y-688240D01*
X+9111759Y-688240D01*
X+9111759Y-603199D01*
X+9757199Y-603199D01*
X+9757199Y-196801D01*
X+9111759Y-196801D01*
X+9111759Y+7002835D01*
X+9121093Y+6993501D01*
X+9278907Y+6993501D01*
X+9390499Y+7105093D01*
X+9390499Y+7262907D01*
X+9284018Y+7369388D01*
X+9354825Y+7440195D01*
X+9354825Y+7467601D01*
X+10335830Y+7467601D01*
X+10338103Y+7465328D01*
X+10466459Y+7465328D01*
X+10557220Y+7556089D01*
X+10557220Y+7684445D01*
X+10466459Y+7775206D01*
X+10338103Y+7775206D01*
X+10335296Y+7772399D01*
X+9136874Y+7772399D01*
X+9047487Y+7683011D01*
X+9047487Y+7571091D01*
X+9044947Y+7568551D01*
X+9044947Y+7440195D01*
X+9115868Y+7369274D01*
X+9052322Y+7305728D01*
X+9046291Y+7311760D01*
X+4911759Y+7311760D01*
X+4911759Y+7892874D01*
X+5015832Y+7788801D01*
X+5184168Y+7788801D01*
X+5303199Y+7907832D01*
X+5303199Y+8076168D01*
X+5260367Y+8119000D01*
X+5303199Y+8161832D01*
X+5303199Y+8330168D01*
X+5260367Y+8373000D01*
X+5303199Y+8415832D01*
X+5303199Y+8584168D01*
X+5184168Y+8703199D01*
X+5015832Y+8703199D01*
X+4911759Y+8599126D01*
X+4911759Y+9088241D01*
X+21688241Y+9088241D01*
X+21688241Y+8607126D01*
X+13278907Y+1825501D02*
X+13121093Y+1825501D01*
X+13009501Y+1937093D01*
X+13009501Y+2094907D01*
X+13121093Y+2206499D01*
X+13278907Y+2206499D01*
X+13390499Y+2094907D01*
X+13390499Y+1937093D01*
X+13278907Y+1825501D01*
X+10357199Y+984168D02*
X+10357199Y+815832D01*
X+10238168Y+696801D01*
X+10069832Y+696801D01*
X+10027000Y+739633D01*
X+9984168Y+696801D01*
X+9815832Y+696801D01*
X+9773000Y+739633D01*
X+9730168Y+696801D01*
X+9561832Y+696801D01*
X+9519000Y+739633D01*
X+9476168Y+696801D01*
X+9307832Y+696801D01*
X+9188801Y+815832D01*
X+9188801Y+984168D01*
X+9307832Y+1103199D01*
X+9476168Y+1103199D01*
X+9519000Y+1060367D01*
X+9561832Y+1103199D01*
X+9730168Y+1103199D01*
X+9773000Y+1060367D01*
X+9815832Y+1103199D01*
X+9984168Y+1103199D01*
X+10027000Y+1060367D01*
X+10069832Y+1103199D01*
X+10238168Y+1103199D01*
X+10357199Y+984168D01*
X+11563199Y-15832D02*
X+11563199Y-184168D01*
X+11472367Y-275000D01*
X+11563199Y-365832D01*
X+11563199Y-534168D01*
X+11444168Y-653199D01*
X+11275832Y-653199D01*
X+11233000Y-610367D01*
X+11190168Y-653199D01*
X+11021832Y-653199D01*
X+10902801Y-534168D01*
X+10902801Y-365832D01*
X+10993633Y-275000D01*
X+10902801Y-184168D01*
X+10902801Y-15832D01*
X+11021832Y+103199D01*
X+11190168Y+103199D01*
X+11233000Y+60367D01*
X+11275832Y+103199D01*
X+11444168Y+103199D01*
X+11563199Y-15832D01*
X+16607199Y-215832D02*
X+16607199Y-384168D01*
X+16488168Y-503199D01*
X+16319832Y-503199D01*
X+16277000Y-460367D01*
X+16234168Y-503199D01*
X+16065832Y-503199D01*
X+16023000Y-460367D01*
X+15980168Y-503199D01*
X+15811832Y-503199D01*
X+15692801Y-384168D01*
X+15692801Y-215832D01*
X+15811832Y-96801D01*
X+15980168Y-96801D01*
X+16023000Y-139633D01*
X+16065832Y-96801D01*
X+16234168Y-96801D01*
X+16277000Y-139633D01*
X+16319832Y-96801D01*
X+16488168Y-96801D01*
X+16607199Y-215832D01*
X+12794801Y+8585832D02*
X+12846234Y+8534399D01*
X+8357199Y+8534399D01*
X+8357199Y+8724901D01*
X+11364015Y+8724901D01*
X+11384015Y+8744901D01*
X+12794801Y+8744901D01*
X+12794801Y+8585832D01*
X+16939633Y+6459000D02*
X+16896801Y+6416168D01*
X+16896801Y+6247832D01*
X+16900944Y+6243689D01*
X+16848163Y+6243689D01*
X+16594901Y+5990427D01*
X+16594901Y+5806385D01*
X+15644665Y+4856149D01*
X+15644477Y+5036533D01*
X+15652375Y+5044431D01*
X+15652375Y+5172787D01*
X+15561614Y+5263548D01*
X+15433258Y+5263548D01*
X+15403199Y+5233489D01*
X+15403199Y+5400168D01*
X+15360367Y+5443000D01*
X+15403199Y+5485832D01*
X+15403199Y+5654168D01*
X+15360367Y+5697000D01*
X+15403199Y+5739832D01*
X+15403199Y+5908168D01*
X+15360367Y+5951000D01*
X+15403199Y+5993832D01*
X+15403199Y+6162168D01*
X+15360367Y+6205000D01*
X+15403199Y+6247832D01*
X+15403199Y+6416168D01*
X+15360367Y+6459000D01*
X+15382942Y+6481574D01*
X+15443615Y+6420901D01*
X+16853402Y+6420901D01*
X+16915567Y+6483066D01*
X+16939633Y+6459000D01*
X+11396801Y+6654168D02*
X+11396801Y+6485832D01*
X+11439633Y+6443000D01*
X+11396801Y+6400168D01*
X+11396801Y+6231832D01*
X+11439633Y+6189000D01*
X+11396801Y+6146168D01*
X+11396801Y+5977832D01*
X+11439633Y+5935000D01*
X+11396801Y+5892168D01*
X+11396801Y+5723832D01*
X+11439633Y+5681000D01*
X+11396801Y+5638168D01*
X+11396801Y+5469832D01*
X+11410593Y+5456040D01*
X+11332153Y+5456040D01*
X+11221794Y+5566399D01*
X+10306718Y+5566399D01*
X+10304178Y+5568939D01*
X+10175822Y+5568939D01*
X+10108773Y+5501890D01*
X+10108773Y+5617467D01*
X+10106233Y+5620007D01*
X+10106233Y+6650709D01*
X+10161125Y+6705601D01*
X+11448234Y+6705601D01*
X+11396801Y+6654168D01*
X+10085061Y+5349822D02*
X+10175822Y+5259061D01*
X+10304178Y+5259061D01*
X+10306718Y+5261601D01*
X+11095544Y+5261601D01*
X+11208443Y+5148702D01*
X+11327096Y+5148702D01*
X+11329636Y+5146162D01*
X+11412795Y+5146162D01*
X+11396801Y+5130168D01*
X+11396801Y+4961832D01*
X+11439633Y+4919000D01*
X+11396801Y+4876168D01*
X+11396801Y+4707832D01*
X+11439633Y+4665000D01*
X+11396801Y+4622168D01*
X+11396801Y+4453832D01*
X+11439633Y+4411000D01*
X+11396801Y+4368168D01*
X+11396801Y+4199832D01*
X+11439633Y+4157000D01*
X+11396801Y+4114168D01*
X+11396801Y+3945832D01*
X+11439633Y+3903000D01*
X+11396801Y+3860168D01*
X+11396801Y+3691832D01*
X+11439633Y+3649000D01*
X+11396801Y+3606168D01*
X+11396801Y+3437832D01*
X+11439633Y+3395000D01*
X+11396801Y+3352168D01*
X+11396801Y+3183832D01*
X+11439633Y+3141000D01*
X+11396801Y+3098168D01*
X+11396801Y+2929832D01*
X+11439633Y+2887000D01*
X+11396801Y+2844168D01*
X+11396801Y+2675832D01*
X+11439633Y+2633000D01*
X+11396801Y+2590168D01*
X+11396801Y+2421832D01*
X+11439633Y+2379000D01*
X+11396801Y+2336168D01*
X+11396801Y+2167832D01*
X+11439633Y+2125000D01*
X+11396801Y+2082168D01*
X+11396801Y+1913832D01*
X+11439633Y+1871000D01*
X+11396801Y+1828168D01*
X+11396801Y+1659832D01*
X+11411534Y+1645099D01*
X+9888466Y+1645099D01*
X+9903199Y+1659832D01*
X+9903199Y+1828168D01*
X+9860367Y+1871000D01*
X+9903199Y+1913832D01*
X+9903199Y+2082168D01*
X+9860367Y+2125000D01*
X+9903199Y+2167832D01*
X+9903199Y+2336168D01*
X+9860367Y+2379000D01*
X+9903199Y+2421832D01*
X+9903199Y+2590168D01*
X+9860367Y+2633000D01*
X+9903199Y+2675832D01*
X+9903199Y+2844168D01*
X+9860367Y+2887000D01*
X+9903199Y+2929832D01*
X+9903199Y+3098168D01*
X+9860367Y+3141000D01*
X+9903199Y+3183832D01*
X+9903199Y+3352168D01*
X+9860367Y+3395000D01*
X+9903199Y+3437832D01*
X+9903199Y+3606168D01*
X+9860367Y+3649000D01*
X+9903199Y+3691832D01*
X+9903199Y+3860168D01*
X+9860367Y+3903000D01*
X+9903199Y+3945832D01*
X+9903199Y+4114168D01*
X+9860367Y+4157000D01*
X+9903199Y+4199832D01*
X+9903199Y+4368168D01*
X+9860367Y+4411000D01*
X+9903199Y+4453832D01*
X+9903199Y+4622168D01*
X+9860367Y+4665000D01*
X+9903199Y+4707832D01*
X+9903199Y+4876168D01*
X+9860367Y+4919000D01*
X+9903199Y+4961832D01*
X+9903199Y+5130168D01*
X+9860367Y+5173000D01*
X+9903199Y+5215832D01*
X+9903199Y+5384168D01*
X+9860367Y+5427000D01*
X+9860686Y+5427320D01*
X+9889656Y+5398350D01*
X+10018012Y+5398350D01*
X+10085061Y+5465399D01*
X+10085061Y+5349822D01*
X+11235199Y+2244168D02*
X+11235199Y+2075832D01*
X+11116168Y+1956801D01*
X+10947832Y+1956801D01*
X+10905000Y+1999633D01*
X+10862168Y+1956801D01*
X+10693832Y+1956801D01*
X+10651000Y+1999633D01*
X+10608168Y+1956801D01*
X+10439832Y+1956801D01*
X+10397000Y+1999633D01*
X+10354168Y+1956801D01*
X+10185832Y+1956801D01*
X+10066801Y+2075832D01*
X+10066801Y+2244168D01*
X+10185832Y+2363199D01*
X+10354168Y+2363199D01*
X+10397000Y+2320367D01*
X+10439832Y+2363199D01*
X+10608168Y+2363199D01*
X+10651000Y+2320367D01*
X+10693832Y+2363199D01*
X+10862168Y+2363199D01*
X+10905000Y+2320367D01*
X+10947832Y+2363199D01*
X+11116168Y+2363199D01*
X+11235199Y+2244168D01*
X+12439173Y+6437303D02*
X+12375822Y+6437303D01*
X+12285061Y+6346542D01*
X+12285061Y+6218186D01*
X+12287601Y+6215646D01*
X+12287601Y+5046519D01*
X+12285061Y+5043979D01*
X+12285061Y+4915623D01*
X+12306635Y+4894049D01*
X+12036184Y+4892933D01*
X+12034178Y+4894939D01*
X+11962399Y+4894939D01*
X+11962399Y+5201860D01*
X+11996375Y+5235836D01*
X+11996375Y+5364192D01*
X+11905614Y+5454953D01*
X+11788320Y+5454953D01*
X+11803199Y+5469832D01*
X+11803199Y+5638168D01*
X+11760367Y+5681000D01*
X+11803199Y+5723832D01*
X+11803199Y+5892168D01*
X+11760367Y+5935000D01*
X+11803199Y+5977832D01*
X+11803199Y+6146168D01*
X+11760367Y+6189000D01*
X+11803199Y+6231832D01*
X+11803199Y+6400168D01*
X+11760367Y+6443000D01*
X+11803199Y+6485832D01*
X+11803199Y+6654168D01*
X+11751766Y+6705601D01*
X+12170875Y+6705601D01*
X+12439173Y+6437303D01*
X+16896801Y+5485832D02*
X+16939633Y+5443000D01*
X+16896801Y+5400168D01*
X+16896801Y+5231832D01*
X+16939633Y+5189000D01*
X+16896801Y+5146168D01*
X+16896801Y+4977832D01*
X+16939633Y+4935000D01*
X+16896801Y+4892168D01*
X+16896801Y+4723832D01*
X+16939633Y+4681000D01*
X+16896801Y+4638168D01*
X+16896801Y+4469832D01*
X+16939633Y+4427000D01*
X+16896801Y+4384168D01*
X+16896801Y+4215832D01*
X+16939633Y+4173000D01*
X+16896801Y+4130168D01*
X+16896801Y+3961832D01*
X+16939633Y+3919000D01*
X+16896801Y+3876168D01*
X+16896801Y+3707832D01*
X+16939633Y+3665000D01*
X+16896801Y+3622168D01*
X+16896801Y+3453832D01*
X+16939633Y+3411000D01*
X+16896801Y+3368168D01*
X+16896801Y+3199832D01*
X+16939633Y+3157000D01*
X+16896801Y+3114168D01*
X+16896801Y+2945832D01*
X+16939633Y+2903000D01*
X+16896801Y+2860168D01*
X+16896801Y+2691832D01*
X+16939633Y+2649000D01*
X+16896801Y+2606168D01*
X+16896801Y+2437832D01*
X+16939633Y+2395000D01*
X+16896801Y+2352168D01*
X+16896801Y+2183832D01*
X+16939633Y+2141000D01*
X+16896801Y+2098168D01*
X+16896801Y+1929832D01*
X+16908022Y+1918611D01*
X+16842444Y+1918611D01*
X+16839904Y+1916071D01*
X+16679328Y+1916071D01*
X+16675656Y+1912399D01*
X+15909432Y+1912399D01*
X+15909264Y+1912567D01*
X+15837204Y+1912567D01*
X+15834664Y+1915107D01*
X+15706308Y+1915107D01*
X+15703601Y+1912400D01*
X+15578529Y+1912400D01*
X+15574858Y+1916071D01*
X+15455309Y+1916071D01*
X+15452769Y+1918611D01*
X+15391978Y+1918611D01*
X+15403199Y+1929832D01*
X+15403199Y+2098168D01*
X+15360367Y+2141000D01*
X+15403199Y+2183832D01*
X+15403199Y+2352168D01*
X+15360367Y+2395000D01*
X+15403199Y+2437832D01*
X+15403199Y+2606168D01*
X+15360367Y+2649000D01*
X+15403199Y+2691832D01*
X+15403199Y+2860168D01*
X+15360367Y+2903000D01*
X+15403199Y+2945832D01*
X+15403199Y+3001684D01*
X+15429822Y+2975061D01*
X+15558178Y+2975061D01*
X+15604901Y+3021784D01*
X+15604901Y+2730852D01*
X+15605283Y+2730470D01*
X+15605283Y+2553642D01*
X+15701996Y+2456929D01*
X+15838768Y+2456929D01*
X+15935481Y+2553642D01*
X+15935481Y+2867240D01*
X+15935099Y+2867622D01*
X+15935099Y+4679615D01*
X+16896801Y+5641317D01*
X+16896801Y+5485832D01*
X+16735199Y+2260168D02*
X+16735199Y+2091832D01*
X+16616168Y+1972801D01*
X+16447832Y+1972801D01*
X+16405000Y+2015633D01*
X+16362168Y+1972801D01*
X+16193832Y+1972801D01*
X+16151000Y+2015633D01*
X+16108168Y+1972801D01*
X+15939832Y+1972801D01*
X+15897000Y+2015633D01*
X+15854168Y+1972801D01*
X+15685832Y+1972801D01*
X+15566801Y+2091832D01*
X+15566801Y+2260168D01*
X+15685832Y+2379199D01*
X+15854168Y+2379199D01*
X+15897000Y+2336367D01*
X+15939832Y+2379199D01*
X+16108168Y+2379199D01*
X+16151000Y+2336367D01*
X+16193832Y+2379199D01*
X+16362168Y+2379199D01*
X+16405000Y+2336367D01*
X+16447832Y+2379199D01*
X+16616168Y+2379199D01*
X+16735199Y+2260168D01*
X+9903199Y+1998000D02*
X+9700000Y+1998000D01*
X+11396801Y+6316000D02*
X+11600000Y+6316000D01*
X+11803199Y+6316000D02*
X+11600000Y+6316000D01*
X+14996801Y+2014000D02*
X+15200000Y+2014000D01*
X+15403199Y+2014000D02*
X+15200000Y+2014000D01*
X+16896801Y+6332000D02*
X+17100000Y+6332000D01*
X+17303199Y+6332000D02*
X+17100000Y+6332000D01*
X+12794801Y+8670000D02*
X+12998000Y+8670000D01*
X+5303199Y+8246000D02*
X+5100000Y+8246000D01*
X+21296801Y+8254000D02*
X+21500000Y+8254000D01*
X+8357199Y+8660000D02*
X+8154000Y+8660000D01*
X+17696801Y+8700000D02*
X+17900000Y+8700000D01*
X+17900000Y+8903199D02*
X+17900000Y+8700000D01*
X+15745999Y+8000000D02*
X+15492000Y+8000000D01*
X+15238001Y+8000000D02*
X+15492000Y+8000000D01*
X+16942801Y-400000D02*
X+17146000Y-400000D01*
X+17146000Y-196801D02*
X+17146000Y-400000D01*
X+17146000Y-603199D02*
X+17146000Y-400000D01*
X+9300000Y-196801D02*
X+9300000Y-400000D01*
X+9300000Y-603199D02*
X+9300000Y-400000D01*
X+11563199Y-100000D02*
X+11360000Y-100000D01*
X+11360000Y+103199D02*
X+11360000Y-100000D01*
X+9200000Y+8009501D02*
X+9200000Y+8200000D01*
X+9009501Y+8200000D02*
X+9200000Y+8200000D01*
X+9390499Y+8200000D02*
X+9200000Y+8200000D01*
X+15692801Y-300000D02*
X+15896000Y-300000D01*
X+15896000Y-503199D02*
X+15896000Y-300000D01*
X+15896000Y-96801D02*
X+15896000Y-300000D01*
X+11563199Y-450000D02*
X+11360000Y-450000D01*
X+11360000Y-653199D02*
X+11360000Y-450000D01*
D13*
X+9700000Y+6570000D03*
X+9700000Y+6316000D03*
X+9700000Y+6062000D03*
X+9700000Y+5808000D03*
X+9700000Y+5554000D03*
X+9700000Y+5300000D03*
X+9700000Y+5046000D03*
X+9700000Y+4792000D03*
X+9700000Y+4538000D03*
X+9700000Y+4284000D03*
X+9700000Y+4030000D03*
X+9700000Y+3776000D03*
X+9700000Y+3522000D03*
X+9700000Y+3268000D03*
X+9700000Y+3014000D03*
X+9700000Y+2760000D03*
X+9700000Y+2506000D03*
X+9700000Y+2252000D03*
X+9700000Y+1998000D03*
X+9700000Y+1744000D03*
X+11600000Y+1744000D03*
X+11600000Y+1998000D03*
X+11600000Y+2252000D03*
X+11600000Y+2506000D03*
X+11600000Y+2760000D03*
X+11600000Y+3014000D03*
X+11600000Y+3268000D03*
X+11600000Y+3522000D03*
X+11600000Y+3776000D03*
X+11600000Y+4030000D03*
X+11600000Y+4284000D03*
X+11600000Y+4538000D03*
X+11600000Y+4792000D03*
X+11600000Y+5046000D03*
X+11600000Y+5300000D03*
X+11600000Y+5554000D03*
X+11600000Y+5808000D03*
X+11600000Y+6062000D03*
X+11600000Y+6316000D03*
X+11600000Y+6570000D03*
X+10270000Y+2160000D03*
X+10524000Y+2160000D03*
X+10778000Y+2160000D03*
X+11032000Y+2160000D03*
X+15200000Y+6586000D03*
X+15200000Y+6332000D03*
X+15200000Y+6078000D03*
X+15200000Y+5824000D03*
X+15200000Y+5570000D03*
X+15200000Y+5316000D03*
X+15200000Y+5062000D03*
X+15200000Y+4808000D03*
X+15200000Y+4554000D03*
X+15200000Y+4300000D03*
X+15200000Y+4046000D03*
X+15200000Y+3792000D03*
X+15200000Y+3538000D03*
X+15200000Y+3284000D03*
X+15200000Y+3030000D03*
X+15200000Y+2776000D03*
X+15200000Y+2522000D03*
X+15200000Y+2268000D03*
X+15200000Y+2014000D03*
X+15200000Y+1760000D03*
X+17100000Y+1760000D03*
X+17100000Y+2014000D03*
X+17100000Y+2268000D03*
X+17100000Y+2522000D03*
X+17100000Y+2776000D03*
X+17100000Y+3030000D03*
X+17100000Y+3284000D03*
X+17100000Y+3538000D03*
X+17100000Y+3792000D03*
X+17100000Y+4046000D03*
X+17100000Y+4300000D03*
X+17100000Y+4554000D03*
X+17100000Y+4808000D03*
X+17100000Y+5062000D03*
X+17100000Y+5316000D03*
X+17100000Y+5570000D03*
X+17100000Y+5824000D03*
X+17100000Y+6078000D03*
X+17100000Y+6332000D03*
X+17100000Y+6586000D03*
X+15770000Y+2176000D03*
X+16024000Y+2176000D03*
X+16278000Y+2176000D03*
X+16532000Y+2176000D03*
X+12998000Y+8670000D03*
X+13252000Y+8670000D03*
X+13506000Y+8670000D03*
X+13760000Y+8670000D03*
X+5100000Y+7992000D03*
X+5100000Y+8246000D03*
X+5100000Y+8500000D03*
X+21500000Y+8508000D03*
X+21500000Y+8254000D03*
X+21500000Y+8000000D03*
D14*
X+7900000Y+8660000D03*
X+8154000Y+8660000D03*
X+18154000Y+8700000D03*
X+17900000Y+8700000D03*
D15*
X+17100000Y+7684000D03*
X+17100000Y+8700000D03*
D16*
X+16000000Y+8000000D03*
X+15492000Y+8000000D03*
D14*
X+17400000Y-400000D03*
X+17146000Y-400000D03*
X+9554000Y-400000D03*
X+9300000Y-400000D03*
D15*
X+13200000Y+1000000D03*
X+13200000Y+2016000D03*
D13*
X+10154000Y+900000D03*
X+9900000Y+900000D03*
X+9646000Y+900000D03*
X+9392000Y+900000D03*
X+16814000Y+1000000D03*
X+16560000Y+1000000D03*
X+16306000Y+1000000D03*
X+16052000Y+1000000D03*
X+11936000Y-140000D03*
X+12190000Y-140000D03*
X+12444000Y-140000D03*
X+12698000Y-140000D03*
X+12952000Y-140000D03*
X+13206000Y-140000D03*
D15*
X+10019000Y+8100000D03*
X+10400000Y+8100000D03*
D13*
X+11106000Y-100000D03*
X+11360000Y-100000D03*
D15*
X+9200000Y+8200000D03*
X+9200000Y+7184000D03*
D13*
X+13200000Y+2546000D03*
X+13200000Y+2800000D03*
X+13200000Y+3646000D03*
X+13200000Y+3900000D03*
X+13200000Y+4746000D03*
X+13200000Y+5000000D03*
X+13200000Y+5892000D03*
X+13200000Y+6146000D03*
X+13200000Y+6400000D03*
X+13200000Y+7300000D03*
X+13200000Y+7554000D03*
X+13200000Y+7808000D03*
X+15896000Y-300000D03*
X+16150000Y-300000D03*
X+16404000Y-300000D03*
X+14900000Y+800000D03*
X+14646000Y+800000D03*
X+14392000Y+800000D03*
X+14138000Y+800000D03*
X+11946000Y-460000D03*
X+12200000Y-460000D03*
X+12454000Y-460000D03*
X+12708000Y-460000D03*
X+12962000Y-460000D03*
X+13216000Y-460000D03*
X+11106000Y-450000D03*
X+11360000Y-450000D03*
D17*
X+4800000Y+9200000D02*
X+21800000Y+9200000D01*
X+21800000Y+7200000D01*
X+4800000Y+9200000D02*
X+4800000Y+7200000D01*
X+9000000Y+7200000D01*
X+21800000Y+7200000D02*
X+17600000Y+7200000D01*
X+17600000Y-800000D01*
X+9000000Y+7200000D02*
X+9000000Y-800000D01*
X+17600000Y-800000D01*
M02*
