G04 PROTEUS GERBER X2 FILE*
%TF.GenerationSoftware,Labcenter,Proteus,8.11-SP0-Build30052*%
%TF.CreationDate,2024-03-04T06:39:40+00:00*%
%TF.FileFunction,Legend,Top*%
%TF.FilePolarity,Positive*%
%TF.Part,Single*%
%TF.SameCoordinates,{347c642e-2b0e-48e9-919d-a538f2e8b90d}*%
%FSLAX45Y45*%
%MOMM*%
G01*
%TA.AperFunction,Material*%
%ADD18C,0.203200*%
%TA.AperFunction,Profile*%
%ADD17C,0.203200*%
%TD.AperFunction*%
D18*
X+9350000Y+1450000D02*
X+11850000Y+1450000D01*
X+11850000Y+7070000D01*
X+9350000Y+7070000D01*
X+9350000Y+1450000D01*
X+9600000Y+1092200D02*
X+9625400Y+1066800D01*
X+9727000Y+1066800D01*
X+9752400Y+1092200D01*
X+9752400Y+1117600D01*
X+9727000Y+1143000D01*
X+9625400Y+1143000D01*
X+9600000Y+1168400D01*
X+9600000Y+1193800D01*
X+9625400Y+1219200D01*
X+9727000Y+1219200D01*
X+9752400Y+1193800D01*
X+9803200Y+1219200D02*
X+9955600Y+1219200D01*
X+9879400Y+1219200D02*
X+9879400Y+1066800D01*
X+10006400Y+1066800D02*
X+10006400Y+1219200D01*
X+10082600Y+1143000D01*
X+10158800Y+1219200D01*
X+10158800Y+1066800D01*
X+10235000Y+1193800D02*
X+10260400Y+1219200D01*
X+10336600Y+1219200D01*
X+10362000Y+1193800D01*
X+10362000Y+1168400D01*
X+10336600Y+1143000D01*
X+10362000Y+1117600D01*
X+10362000Y+1092200D01*
X+10336600Y+1066800D01*
X+10260400Y+1066800D01*
X+10235000Y+1092200D01*
X+10285800Y+1143000D02*
X+10336600Y+1143000D01*
X+10438200Y+1193800D02*
X+10463600Y+1219200D01*
X+10539800Y+1219200D01*
X+10565200Y+1193800D01*
X+10565200Y+1168400D01*
X+10539800Y+1143000D01*
X+10463600Y+1143000D01*
X+10438200Y+1117600D01*
X+10438200Y+1066800D01*
X+10565200Y+1066800D01*
X+10616000Y+1066800D02*
X+10616000Y+1219200D01*
X+10768400Y+1219200D01*
X+10616000Y+1143000D02*
X+10717600Y+1143000D01*
X+10971600Y+1117600D02*
X+10819200Y+1117600D01*
X+10920800Y+1219200D01*
X+10920800Y+1066800D01*
X+11022400Y+1092200D02*
X+11022400Y+1193800D01*
X+11047800Y+1219200D01*
X+11149400Y+1219200D01*
X+11174800Y+1193800D01*
X+11174800Y+1092200D01*
X+11149400Y+1066800D01*
X+11047800Y+1066800D01*
X+11022400Y+1092200D01*
X+11022400Y+1066800D02*
X+11174800Y+1219200D01*
X+11276400Y+1168400D02*
X+11327200Y+1219200D01*
X+11327200Y+1066800D01*
X+11581200Y+1092200D02*
X+11555800Y+1066800D01*
X+11479600Y+1066800D01*
X+11428800Y+1117600D01*
X+11428800Y+1168400D01*
X+11479600Y+1219200D01*
X+11555800Y+1219200D01*
X+11581200Y+1193800D01*
X+11784400Y+1092200D02*
X+11759000Y+1066800D01*
X+11682800Y+1066800D01*
X+11632000Y+1117600D01*
X+11632000Y+1168400D01*
X+11682800Y+1219200D01*
X+11759000Y+1219200D01*
X+11784400Y+1193800D01*
X+9965000Y+7125880D02*
X+9980875Y+7110640D01*
X+10044375Y+7110640D01*
X+10060250Y+7125880D01*
X+10060250Y+7141120D01*
X+10044375Y+7156360D01*
X+9980875Y+7156360D01*
X+9965000Y+7171600D01*
X+9965000Y+7186840D01*
X+9980875Y+7202080D01*
X+10044375Y+7202080D01*
X+10060250Y+7186840D01*
X+10187250Y+7110640D02*
X+10092000Y+7110640D01*
X+10092000Y+7202080D01*
X+10187250Y+7202080D01*
X+10092000Y+7156360D02*
X+10155500Y+7156360D01*
X+10219000Y+7110640D02*
X+10219000Y+7202080D01*
X+10314250Y+7110640D01*
X+10314250Y+7202080D01*
X+10346000Y+7125880D02*
X+10361875Y+7110640D01*
X+10425375Y+7110640D01*
X+10441250Y+7125880D01*
X+10441250Y+7141120D01*
X+10425375Y+7156360D01*
X+10361875Y+7156360D01*
X+10346000Y+7171600D01*
X+10346000Y+7186840D01*
X+10361875Y+7202080D01*
X+10425375Y+7202080D01*
X+10441250Y+7186840D01*
X+10473000Y+7171600D02*
X+10504750Y+7202080D01*
X+10536500Y+7202080D01*
X+10568250Y+7171600D01*
X+10568250Y+7141120D01*
X+10536500Y+7110640D01*
X+10504750Y+7110640D01*
X+10473000Y+7141120D01*
X+10473000Y+7171600D01*
X+10600000Y+7110640D02*
X+10600000Y+7202080D01*
X+10679375Y+7202080D01*
X+10695250Y+7186840D01*
X+10695250Y+7171600D01*
X+10679375Y+7156360D01*
X+10600000Y+7156360D01*
X+10679375Y+7156360D02*
X+10695250Y+7141120D01*
X+10695250Y+7110640D01*
X+10727000Y+7095400D02*
X+10822250Y+7095400D01*
X+10949250Y+7110640D02*
X+10854000Y+7110640D01*
X+10854000Y+7202080D01*
X+10949250Y+7202080D01*
X+10854000Y+7156360D02*
X+10917500Y+7156360D01*
X+11076250Y+7125880D02*
X+11060375Y+7110640D01*
X+11012750Y+7110640D01*
X+10981000Y+7141120D01*
X+10981000Y+7171600D01*
X+11012750Y+7202080D01*
X+11060375Y+7202080D01*
X+11076250Y+7186840D01*
X+11108000Y+7202080D02*
X+11108000Y+7125880D01*
X+11123875Y+7110640D01*
X+11187375Y+7110640D01*
X+11203250Y+7125880D01*
X+11203250Y+7202080D01*
X+14850000Y+1466000D02*
X+17350000Y+1466000D01*
X+17350000Y+7086000D01*
X+14850000Y+7086000D01*
X+14850000Y+1466000D01*
X+15100000Y+1108200D02*
X+15125400Y+1082800D01*
X+15227000Y+1082800D01*
X+15252400Y+1108200D01*
X+15252400Y+1133600D01*
X+15227000Y+1159000D01*
X+15125400Y+1159000D01*
X+15100000Y+1184400D01*
X+15100000Y+1209800D01*
X+15125400Y+1235200D01*
X+15227000Y+1235200D01*
X+15252400Y+1209800D01*
X+15303200Y+1235200D02*
X+15455600Y+1235200D01*
X+15379400Y+1235200D02*
X+15379400Y+1082800D01*
X+15506400Y+1082800D02*
X+15506400Y+1235200D01*
X+15582600Y+1159000D01*
X+15658800Y+1235200D01*
X+15658800Y+1082800D01*
X+15735000Y+1209800D02*
X+15760400Y+1235200D01*
X+15836600Y+1235200D01*
X+15862000Y+1209800D01*
X+15862000Y+1184400D01*
X+15836600Y+1159000D01*
X+15862000Y+1133600D01*
X+15862000Y+1108200D01*
X+15836600Y+1082800D01*
X+15760400Y+1082800D01*
X+15735000Y+1108200D01*
X+15785800Y+1159000D02*
X+15836600Y+1159000D01*
X+15938200Y+1209800D02*
X+15963600Y+1235200D01*
X+16039800Y+1235200D01*
X+16065200Y+1209800D01*
X+16065200Y+1184400D01*
X+16039800Y+1159000D01*
X+15963600Y+1159000D01*
X+15938200Y+1133600D01*
X+15938200Y+1082800D01*
X+16065200Y+1082800D01*
X+16116000Y+1082800D02*
X+16116000Y+1235200D01*
X+16268400Y+1235200D01*
X+16116000Y+1159000D02*
X+16217600Y+1159000D01*
X+16471600Y+1133600D02*
X+16319200Y+1133600D01*
X+16420800Y+1235200D01*
X+16420800Y+1082800D01*
X+16522400Y+1108200D02*
X+16522400Y+1209800D01*
X+16547800Y+1235200D01*
X+16649400Y+1235200D01*
X+16674800Y+1209800D01*
X+16674800Y+1108200D01*
X+16649400Y+1082800D01*
X+16547800Y+1082800D01*
X+16522400Y+1108200D01*
X+16522400Y+1082800D02*
X+16674800Y+1235200D01*
X+16776400Y+1184400D02*
X+16827200Y+1235200D01*
X+16827200Y+1082800D01*
X+17081200Y+1108200D02*
X+17055800Y+1082800D01*
X+16979600Y+1082800D01*
X+16928800Y+1133600D01*
X+16928800Y+1184400D01*
X+16979600Y+1235200D01*
X+17055800Y+1235200D01*
X+17081200Y+1209800D01*
X+17284400Y+1108200D02*
X+17259000Y+1082800D01*
X+17182800Y+1082800D01*
X+17132000Y+1133600D01*
X+17132000Y+1184400D01*
X+17182800Y+1235200D01*
X+17259000Y+1235200D01*
X+17284400Y+1209800D01*
X+15465000Y+7126640D02*
X+15465000Y+7218080D01*
X+15512625Y+7172360D01*
X+15560250Y+7218080D01*
X+15560250Y+7126640D01*
X+15592000Y+7126640D02*
X+15592000Y+7187600D01*
X+15623750Y+7218080D01*
X+15655500Y+7218080D01*
X+15687250Y+7187600D01*
X+15687250Y+7126640D01*
X+15592000Y+7157120D02*
X+15687250Y+7157120D01*
X+15719000Y+7141880D02*
X+15734875Y+7126640D01*
X+15798375Y+7126640D01*
X+15814250Y+7141880D01*
X+15814250Y+7157120D01*
X+15798375Y+7172360D01*
X+15734875Y+7172360D01*
X+15719000Y+7187600D01*
X+15719000Y+7202840D01*
X+15734875Y+7218080D01*
X+15798375Y+7218080D01*
X+15814250Y+7202840D01*
X+15846000Y+7218080D02*
X+15941250Y+7218080D01*
X+15893625Y+7218080D02*
X+15893625Y+7126640D01*
X+16068250Y+7126640D02*
X+15973000Y+7126640D01*
X+15973000Y+7218080D01*
X+16068250Y+7218080D01*
X+15973000Y+7172360D02*
X+16036500Y+7172360D01*
X+16100000Y+7126640D02*
X+16100000Y+7218080D01*
X+16179375Y+7218080D01*
X+16195250Y+7202840D01*
X+16195250Y+7187600D01*
X+16179375Y+7172360D01*
X+16100000Y+7172360D01*
X+16179375Y+7172360D02*
X+16195250Y+7157120D01*
X+16195250Y+7126640D01*
X+16227000Y+7111400D02*
X+16322250Y+7111400D01*
X+16449250Y+7126640D02*
X+16354000Y+7126640D01*
X+16354000Y+7218080D01*
X+16449250Y+7218080D01*
X+16354000Y+7172360D02*
X+16417500Y+7172360D01*
X+16576250Y+7141880D02*
X+16560375Y+7126640D01*
X+16512750Y+7126640D01*
X+16481000Y+7157120D01*
X+16481000Y+7187600D01*
X+16512750Y+7218080D01*
X+16560375Y+7218080D01*
X+16576250Y+7202840D01*
X+16608000Y+7218080D02*
X+16608000Y+7141880D01*
X+16623875Y+7126640D01*
X+16687375Y+7126640D01*
X+16703250Y+7141880D01*
X+16703250Y+7218080D01*
X+12744000Y+8416000D02*
X+14014000Y+8416000D01*
X+14014000Y+9051000D01*
X+12744000Y+9051000D01*
X+12744000Y+8416000D01*
X+12744000Y+8924000D02*
X+14014000Y+8924000D01*
X+12744000Y+9183080D02*
X+12744000Y+9106880D01*
X+12759875Y+9091640D01*
X+12823375Y+9091640D01*
X+12839250Y+9106880D01*
X+12839250Y+9183080D01*
X+12871000Y+9183080D02*
X+12871000Y+9091640D01*
X+12966250Y+9091640D01*
X+12998000Y+9183080D02*
X+13093250Y+9183080D01*
X+13045625Y+9183080D02*
X+13045625Y+9091640D01*
X+13125000Y+9091640D02*
X+13125000Y+9183080D01*
X+13204375Y+9183080D01*
X+13220250Y+9167840D01*
X+13220250Y+9152600D01*
X+13204375Y+9137360D01*
X+13125000Y+9137360D01*
X+13204375Y+9137360D02*
X+13220250Y+9122120D01*
X+13220250Y+9091640D01*
X+13252000Y+9091640D02*
X+13252000Y+9152600D01*
X+13283750Y+9183080D01*
X+13315500Y+9183080D01*
X+13347250Y+9152600D01*
X+13347250Y+9091640D01*
X+13252000Y+9122120D02*
X+13347250Y+9122120D01*
X+13379000Y+9106880D02*
X+13394875Y+9091640D01*
X+13458375Y+9091640D01*
X+13474250Y+9106880D01*
X+13474250Y+9122120D01*
X+13458375Y+9137360D01*
X+13394875Y+9137360D01*
X+13379000Y+9152600D01*
X+13379000Y+9167840D01*
X+13394875Y+9183080D01*
X+13458375Y+9183080D01*
X+13474250Y+9167840D01*
X+13506000Y+9152600D02*
X+13537750Y+9183080D01*
X+13569500Y+9183080D01*
X+13601250Y+9152600D01*
X+13601250Y+9122120D01*
X+13569500Y+9091640D01*
X+13537750Y+9091640D01*
X+13506000Y+9122120D01*
X+13506000Y+9152600D01*
X+13633000Y+9091640D02*
X+13633000Y+9183080D01*
X+13728250Y+9091640D01*
X+13728250Y+9183080D01*
X+13775875Y+9183080D02*
X+13839375Y+9183080D01*
X+13807625Y+9183080D02*
X+13807625Y+9091640D01*
X+13775875Y+9091640D02*
X+13839375Y+9091640D01*
X+13982250Y+9106880D02*
X+13966375Y+9091640D01*
X+13918750Y+9091640D01*
X+13887000Y+9122120D01*
X+13887000Y+9152600D01*
X+13918750Y+9183080D01*
X+13966375Y+9183080D01*
X+13982250Y+9167840D01*
X+4719000Y+7738000D02*
X+5354000Y+7738000D01*
X+5354000Y+8754000D01*
X+4719000Y+8754000D01*
X+4719000Y+7738000D01*
X+4846000Y+7738000D02*
X+4846000Y+8754000D01*
X+4586920Y+7992000D02*
X+4678360Y+7992000D01*
X+4678360Y+8087250D01*
X+4693600Y+8119000D02*
X+4693600Y+8214250D01*
X+4586920Y+8261875D02*
X+4586920Y+8325375D01*
X+4586920Y+8293625D02*
X+4678360Y+8293625D01*
X+4678360Y+8261875D02*
X+4678360Y+8325375D01*
X+4678360Y+8373000D02*
X+4586920Y+8373000D01*
X+4586920Y+8452375D01*
X+4602160Y+8468250D01*
X+4617400Y+8468250D01*
X+4632640Y+8452375D01*
X+4632640Y+8373000D01*
X+4632640Y+8452375D02*
X+4647880Y+8468250D01*
X+4678360Y+8468250D01*
X+21246000Y+7746000D02*
X+21881000Y+7746000D01*
X+21881000Y+8762000D01*
X+21246000Y+8762000D01*
X+21246000Y+7746000D01*
X+21754000Y+8762000D02*
X+21754000Y+7746000D01*
X+22013080Y+7746000D02*
X+21921640Y+7746000D01*
X+21921640Y+7825375D01*
X+21936880Y+7841250D01*
X+21952120Y+7841250D01*
X+21967360Y+7825375D01*
X+21967360Y+7746000D01*
X+21967360Y+7825375D02*
X+21982600Y+7841250D01*
X+22013080Y+7841250D01*
X+21921640Y+7888875D02*
X+21921640Y+7952375D01*
X+21921640Y+7920625D02*
X+22013080Y+7920625D01*
X+22013080Y+7888875D02*
X+22013080Y+7952375D01*
X+21982600Y+8063500D02*
X+21982600Y+8095250D01*
X+22013080Y+8095250D01*
X+22013080Y+8031750D01*
X+21982600Y+8000000D01*
X+21952120Y+8000000D01*
X+21921640Y+8031750D01*
X+21921640Y+8079375D01*
X+21936880Y+8095250D01*
X+22013080Y+8127000D02*
X+21921640Y+8127000D01*
X+21921640Y+8222250D02*
X+22013080Y+8222250D01*
X+21967360Y+8127000D02*
X+21967360Y+8222250D01*
X+21921640Y+8254000D02*
X+21921640Y+8349250D01*
X+21921640Y+8301625D02*
X+22013080Y+8301625D01*
X+22028320Y+8381000D02*
X+22028320Y+8476250D01*
X+21921640Y+8523875D02*
X+21921640Y+8587375D01*
X+21921640Y+8555625D02*
X+22013080Y+8555625D01*
X+22013080Y+8523875D02*
X+22013080Y+8587375D01*
X+22013080Y+8635000D02*
X+21921640Y+8635000D01*
X+21921640Y+8714375D01*
X+21936880Y+8730250D01*
X+21952120Y+8730250D01*
X+21967360Y+8714375D01*
X+21967360Y+8635000D01*
X+21967360Y+8714375D02*
X+21982600Y+8730250D01*
X+22013080Y+8730250D01*
X+8281000Y+8660000D02*
X+8280173Y+8680483D01*
X+8273455Y+8721450D01*
X+8259437Y+8762417D01*
X+8236659Y+8803384D01*
X+8201859Y+8844229D01*
X+8160892Y+8875845D01*
X+8119925Y+8896392D01*
X+8078958Y+8908629D01*
X+8037991Y+8913762D01*
X+8027000Y+8914000D01*
X+7773000Y+8660000D02*
X+7773827Y+8680483D01*
X+7780545Y+8721450D01*
X+7794563Y+8762417D01*
X+7817341Y+8803384D01*
X+7852141Y+8844229D01*
X+7893108Y+8875845D01*
X+7934075Y+8896392D01*
X+7975042Y+8908629D01*
X+8016009Y+8913762D01*
X+8027000Y+8914000D01*
X+7773000Y+8660000D02*
X+7773827Y+8639517D01*
X+7780545Y+8598550D01*
X+7794563Y+8557583D01*
X+7817341Y+8516616D01*
X+7852141Y+8475771D01*
X+7893108Y+8444155D01*
X+7934075Y+8423608D01*
X+7975042Y+8411371D01*
X+8016009Y+8406238D01*
X+8027000Y+8406000D01*
X+8281000Y+8660000D02*
X+8280173Y+8639517D01*
X+8273455Y+8598550D01*
X+8259437Y+8557583D01*
X+8236659Y+8516616D01*
X+8201859Y+8475771D01*
X+8160892Y+8444155D01*
X+8119925Y+8423608D01*
X+8078958Y+8411371D01*
X+8037991Y+8406238D01*
X+8027000Y+8406000D01*
X+7709500Y+8914000D02*
X+7836500Y+8914000D01*
X+7773000Y+8977500D02*
X+7773000Y+8850500D01*
X+7296750Y+9018140D02*
X+7296750Y+9109580D01*
X+7392000Y+9109580D02*
X+7392000Y+9018140D01*
X+7296750Y+9063860D02*
X+7392000Y+9063860D01*
X+7519000Y+9018140D02*
X+7423750Y+9018140D01*
X+7423750Y+9109580D01*
X+7519000Y+9109580D01*
X+7423750Y+9063860D02*
X+7487250Y+9063860D01*
X+7550750Y+9018140D02*
X+7550750Y+9079100D01*
X+7582500Y+9109580D01*
X+7614250Y+9109580D01*
X+7646000Y+9079100D01*
X+7646000Y+9018140D01*
X+7550750Y+9048620D02*
X+7646000Y+9048620D01*
X+7677750Y+9018140D02*
X+7677750Y+9109580D01*
X+7741250Y+9109580D01*
X+7773000Y+9079100D01*
X+7773000Y+9048620D01*
X+7741250Y+9018140D01*
X+7677750Y+9018140D01*
X+7804750Y+9002900D02*
X+7900000Y+9002900D01*
X+7931750Y+9109580D02*
X+7931750Y+9018140D01*
X+8027000Y+9018140D01*
X+8074625Y+9109580D02*
X+8138125Y+9109580D01*
X+8106375Y+9109580D02*
X+8106375Y+9018140D01*
X+8074625Y+9018140D02*
X+8138125Y+9018140D01*
X+8249250Y+9048620D02*
X+8281000Y+9048620D01*
X+8281000Y+9018140D01*
X+8217500Y+9018140D01*
X+8185750Y+9048620D01*
X+8185750Y+9079100D01*
X+8217500Y+9109580D01*
X+8265125Y+9109580D01*
X+8281000Y+9094340D01*
X+8312750Y+9018140D02*
X+8312750Y+9109580D01*
X+8408000Y+9109580D02*
X+8408000Y+9018140D01*
X+8312750Y+9063860D02*
X+8408000Y+9063860D01*
X+8439750Y+9109580D02*
X+8535000Y+9109580D01*
X+8487375Y+9109580D02*
X+8487375Y+9018140D01*
X+8598500Y+9079100D02*
X+8630250Y+9109580D01*
X+8630250Y+9018140D01*
X+18281000Y+8700000D02*
X+18280173Y+8720483D01*
X+18273455Y+8761450D01*
X+18259437Y+8802417D01*
X+18236659Y+8843384D01*
X+18201859Y+8884229D01*
X+18160892Y+8915845D01*
X+18119925Y+8936392D01*
X+18078958Y+8948629D01*
X+18037991Y+8953762D01*
X+18027000Y+8954000D01*
X+17773000Y+8700000D02*
X+17773827Y+8720483D01*
X+17780545Y+8761450D01*
X+17794563Y+8802417D01*
X+17817341Y+8843384D01*
X+17852141Y+8884229D01*
X+17893108Y+8915845D01*
X+17934075Y+8936392D01*
X+17975042Y+8948629D01*
X+18016009Y+8953762D01*
X+18027000Y+8954000D01*
X+17773000Y+8700000D02*
X+17773827Y+8679517D01*
X+17780545Y+8638550D01*
X+17794563Y+8597583D01*
X+17817341Y+8556616D01*
X+17852141Y+8515771D01*
X+17893108Y+8484155D01*
X+17934075Y+8463608D01*
X+17975042Y+8451371D01*
X+18016009Y+8446238D01*
X+18027000Y+8446000D01*
X+18281000Y+8700000D02*
X+18280173Y+8679517D01*
X+18273455Y+8638550D01*
X+18259437Y+8597583D01*
X+18236659Y+8556616D01*
X+18201859Y+8515771D01*
X+18160892Y+8484155D01*
X+18119925Y+8463608D01*
X+18078958Y+8451371D01*
X+18037991Y+8446238D01*
X+18027000Y+8446000D01*
X+18344500Y+8446000D02*
X+18217500Y+8446000D01*
X+18281000Y+8382500D02*
X+18281000Y+8509500D01*
X+17360250Y+8250420D02*
X+17360250Y+8341860D01*
X+17455500Y+8341860D02*
X+17455500Y+8250420D01*
X+17360250Y+8296140D02*
X+17455500Y+8296140D01*
X+17582500Y+8250420D02*
X+17487250Y+8250420D01*
X+17487250Y+8341860D01*
X+17582500Y+8341860D01*
X+17487250Y+8296140D02*
X+17550750Y+8296140D01*
X+17614250Y+8250420D02*
X+17614250Y+8311380D01*
X+17646000Y+8341860D01*
X+17677750Y+8341860D01*
X+17709500Y+8311380D01*
X+17709500Y+8250420D01*
X+17614250Y+8280900D02*
X+17709500Y+8280900D01*
X+17741250Y+8250420D02*
X+17741250Y+8341860D01*
X+17804750Y+8341860D01*
X+17836500Y+8311380D01*
X+17836500Y+8280900D01*
X+17804750Y+8250420D01*
X+17741250Y+8250420D01*
X+17868250Y+8235180D02*
X+17963500Y+8235180D01*
X+17995250Y+8341860D02*
X+17995250Y+8250420D01*
X+18090500Y+8250420D01*
X+18138125Y+8341860D02*
X+18201625Y+8341860D01*
X+18169875Y+8341860D02*
X+18169875Y+8250420D01*
X+18138125Y+8250420D02*
X+18201625Y+8250420D01*
X+18312750Y+8280900D02*
X+18344500Y+8280900D01*
X+18344500Y+8250420D01*
X+18281000Y+8250420D01*
X+18249250Y+8280900D01*
X+18249250Y+8311380D01*
X+18281000Y+8341860D01*
X+18328625Y+8341860D01*
X+18344500Y+8326620D01*
X+18376250Y+8250420D02*
X+18376250Y+8341860D01*
X+18471500Y+8341860D02*
X+18471500Y+8250420D01*
X+18376250Y+8296140D02*
X+18471500Y+8296140D01*
X+18503250Y+8341860D02*
X+18598500Y+8341860D01*
X+18550875Y+8341860D02*
X+18550875Y+8250420D01*
X+18646125Y+8326620D02*
X+18662000Y+8341860D01*
X+18709625Y+8341860D01*
X+18725500Y+8326620D01*
X+18725500Y+8311380D01*
X+18709625Y+8296140D01*
X+18662000Y+8296140D01*
X+18646125Y+8280900D01*
X+18646125Y+8250420D01*
X+18725500Y+8250420D01*
X+17100000Y+7811000D02*
X+17100000Y+7938000D01*
X+17036500Y+7938000D02*
X+17163500Y+7938000D01*
X+17163500Y+8446000D01*
X+17036500Y+8446000D01*
X+17036500Y+7938000D01*
X+17100000Y+8446000D02*
X+17100000Y+8573000D01*
X+32995860Y+5965000D02*
X+32904420Y+5965000D01*
X+32904420Y+6044375D01*
X+32919660Y+6060250D01*
X+32934900Y+6060250D01*
X+32950140Y+6044375D01*
X+32950140Y+5965000D01*
X+32950140Y+6044375D02*
X+32965380Y+6060250D01*
X+32995860Y+6060250D01*
X+32919660Y+6107875D02*
X+32904420Y+6123750D01*
X+32904420Y+6171375D01*
X+32919660Y+6187250D01*
X+32934900Y+6187250D01*
X+32950140Y+6171375D01*
X+32965380Y+6187250D01*
X+32980620Y+6187250D01*
X+32995860Y+6171375D01*
X+32995860Y+6123750D01*
X+32980620Y+6107875D01*
X+32950140Y+6139625D02*
X+32950140Y+6171375D01*
X+16254000Y+7492000D02*
X+16254000Y+8508000D01*
X+15238000Y+7492000D02*
X+15238000Y+8508000D01*
X+16254000Y+8508000D02*
X+15238000Y+8508000D01*
X+16254000Y+7492000D02*
X+15238000Y+7492000D01*
X+15365000Y+7359920D02*
X+15365000Y+7451360D01*
X+15444375Y+7451360D01*
X+15460250Y+7436120D01*
X+15460250Y+7420880D01*
X+15444375Y+7405640D01*
X+15460250Y+7390400D01*
X+15460250Y+7375160D01*
X+15444375Y+7359920D01*
X+15365000Y+7359920D01*
X+15365000Y+7405640D02*
X+15444375Y+7405640D01*
X+15492000Y+7451360D02*
X+15492000Y+7375160D01*
X+15507875Y+7359920D01*
X+15571375Y+7359920D01*
X+15587250Y+7375160D01*
X+15587250Y+7451360D01*
X+15619000Y+7451360D02*
X+15714250Y+7451360D01*
X+15619000Y+7359920D01*
X+15714250Y+7359920D01*
X+15746000Y+7451360D02*
X+15841250Y+7451360D01*
X+15746000Y+7359920D01*
X+15841250Y+7359920D01*
X+15968250Y+7359920D02*
X+15873000Y+7359920D01*
X+15873000Y+7451360D01*
X+15968250Y+7451360D01*
X+15873000Y+7405640D02*
X+15936500Y+7405640D01*
X+16000000Y+7359920D02*
X+16000000Y+7451360D01*
X+16079375Y+7451360D01*
X+16095250Y+7436120D01*
X+16095250Y+7420880D01*
X+16079375Y+7405640D01*
X+16000000Y+7405640D01*
X+16079375Y+7405640D02*
X+16095250Y+7390400D01*
X+16095250Y+7359920D01*
X+17527000Y-400000D02*
X+17526173Y-379517D01*
X+17519455Y-338550D01*
X+17505437Y-297583D01*
X+17482659Y-256616D01*
X+17447859Y-215771D01*
X+17406892Y-184155D01*
X+17365925Y-163608D01*
X+17324958Y-151371D01*
X+17283991Y-146238D01*
X+17273000Y-146000D01*
X+17019000Y-400000D02*
X+17019827Y-379517D01*
X+17026545Y-338550D01*
X+17040563Y-297583D01*
X+17063341Y-256616D01*
X+17098141Y-215771D01*
X+17139108Y-184155D01*
X+17180075Y-163608D01*
X+17221042Y-151371D01*
X+17262009Y-146238D01*
X+17273000Y-146000D01*
X+17019000Y-400000D02*
X+17019827Y-420483D01*
X+17026545Y-461450D01*
X+17040563Y-502417D01*
X+17063341Y-543384D01*
X+17098141Y-584229D01*
X+17139108Y-615845D01*
X+17180075Y-636392D01*
X+17221042Y-648629D01*
X+17262009Y-653762D01*
X+17273000Y-654000D01*
X+17527000Y-400000D02*
X+17526173Y-420483D01*
X+17519455Y-461450D01*
X+17505437Y-502417D01*
X+17482659Y-543384D01*
X+17447859Y-584229D01*
X+17406892Y-615845D01*
X+17365925Y-636392D01*
X+17324958Y-648629D01*
X+17283991Y-653762D01*
X+17273000Y-654000D01*
X+17590500Y-654000D02*
X+17463500Y-654000D01*
X+17527000Y-717500D02*
X+17527000Y-590500D01*
X+16669750Y-849580D02*
X+16669750Y-758140D01*
X+16749125Y-758140D01*
X+16765000Y-773380D01*
X+16765000Y-788620D01*
X+16749125Y-803860D01*
X+16669750Y-803860D01*
X+16749125Y-803860D02*
X+16765000Y-819100D01*
X+16765000Y-849580D01*
X+16892000Y-849580D02*
X+16796750Y-849580D01*
X+16796750Y-758140D01*
X+16892000Y-758140D01*
X+16796750Y-803860D02*
X+16860250Y-803860D01*
X+16923750Y-849580D02*
X+16923750Y-758140D01*
X+16987250Y-758140D01*
X+17019000Y-788620D01*
X+17019000Y-819100D01*
X+16987250Y-849580D01*
X+16923750Y-849580D01*
X+17050750Y-864820D02*
X+17146000Y-864820D01*
X+17177750Y-758140D02*
X+17177750Y-849580D01*
X+17273000Y-849580D01*
X+17320625Y-758140D02*
X+17384125Y-758140D01*
X+17352375Y-758140D02*
X+17352375Y-849580D01*
X+17320625Y-849580D02*
X+17384125Y-849580D01*
X+17495250Y-819100D02*
X+17527000Y-819100D01*
X+17527000Y-849580D01*
X+17463500Y-849580D01*
X+17431750Y-819100D01*
X+17431750Y-788620D01*
X+17463500Y-758140D01*
X+17511125Y-758140D01*
X+17527000Y-773380D01*
X+17558750Y-849580D02*
X+17558750Y-758140D01*
X+17654000Y-758140D02*
X+17654000Y-849580D01*
X+17558750Y-803860D02*
X+17654000Y-803860D01*
X+17685750Y-758140D02*
X+17781000Y-758140D01*
X+17733375Y-758140D02*
X+17733375Y-849580D01*
X+17844500Y-788620D02*
X+17876250Y-758140D01*
X+17876250Y-849580D01*
X+9681000Y-400000D02*
X+9680173Y-379517D01*
X+9673455Y-338550D01*
X+9659437Y-297583D01*
X+9636659Y-256616D01*
X+9601859Y-215771D01*
X+9560892Y-184155D01*
X+9519925Y-163608D01*
X+9478958Y-151371D01*
X+9437991Y-146238D01*
X+9427000Y-146000D01*
X+9173000Y-400000D02*
X+9173827Y-379517D01*
X+9180545Y-338550D01*
X+9194563Y-297583D01*
X+9217341Y-256616D01*
X+9252141Y-215771D01*
X+9293108Y-184155D01*
X+9334075Y-163608D01*
X+9375042Y-151371D01*
X+9416009Y-146238D01*
X+9427000Y-146000D01*
X+9173000Y-400000D02*
X+9173827Y-420483D01*
X+9180545Y-461450D01*
X+9194563Y-502417D01*
X+9217341Y-543384D01*
X+9252141Y-584229D01*
X+9293108Y-615845D01*
X+9334075Y-636392D01*
X+9375042Y-648629D01*
X+9416009Y-653762D01*
X+9427000Y-654000D01*
X+9681000Y-400000D02*
X+9680173Y-420483D01*
X+9673455Y-461450D01*
X+9659437Y-502417D01*
X+9636659Y-543384D01*
X+9601859Y-584229D01*
X+9560892Y-615845D01*
X+9519925Y-636392D01*
X+9478958Y-648629D01*
X+9437991Y-653762D01*
X+9427000Y-654000D01*
X+9744500Y-654000D02*
X+9617500Y-654000D01*
X+9681000Y-717500D02*
X+9681000Y-590500D01*
X+8823750Y-849580D02*
X+8823750Y-758140D01*
X+8903125Y-758140D01*
X+8919000Y-773380D01*
X+8919000Y-788620D01*
X+8903125Y-803860D01*
X+8823750Y-803860D01*
X+8903125Y-803860D02*
X+8919000Y-819100D01*
X+8919000Y-849580D01*
X+9046000Y-849580D02*
X+8950750Y-849580D01*
X+8950750Y-758140D01*
X+9046000Y-758140D01*
X+8950750Y-803860D02*
X+9014250Y-803860D01*
X+9077750Y-849580D02*
X+9077750Y-758140D01*
X+9141250Y-758140D01*
X+9173000Y-788620D01*
X+9173000Y-819100D01*
X+9141250Y-849580D01*
X+9077750Y-849580D01*
X+9204750Y-864820D02*
X+9300000Y-864820D01*
X+9331750Y-758140D02*
X+9331750Y-849580D01*
X+9427000Y-849580D01*
X+9474625Y-758140D02*
X+9538125Y-758140D01*
X+9506375Y-758140D02*
X+9506375Y-849580D01*
X+9474625Y-849580D02*
X+9538125Y-849580D01*
X+9649250Y-819100D02*
X+9681000Y-819100D01*
X+9681000Y-849580D01*
X+9617500Y-849580D01*
X+9585750Y-819100D01*
X+9585750Y-788620D01*
X+9617500Y-758140D01*
X+9665125Y-758140D01*
X+9681000Y-773380D01*
X+9712750Y-849580D02*
X+9712750Y-758140D01*
X+9808000Y-758140D02*
X+9808000Y-849580D01*
X+9712750Y-803860D02*
X+9808000Y-803860D01*
X+9839750Y-758140D02*
X+9935000Y-758140D01*
X+9887375Y-758140D02*
X+9887375Y-849580D01*
X+9982625Y-773380D02*
X+9998500Y-758140D01*
X+10046125Y-758140D01*
X+10062000Y-773380D01*
X+10062000Y-788620D01*
X+10046125Y-803860D01*
X+9998500Y-803860D01*
X+9982625Y-819100D01*
X+9982625Y-849580D01*
X+10062000Y-849580D01*
X+13200000Y+1127000D02*
X+13200000Y+1254000D01*
X+13136500Y+1254000D02*
X+13263500Y+1254000D01*
X+13263500Y+1762000D01*
X+13136500Y+1762000D01*
X+13136500Y+1254000D01*
X+13200000Y+1762000D02*
X+13200000Y+1889000D01*
X+13095860Y+1381000D02*
X+13004420Y+1381000D01*
X+13004420Y+1460375D01*
X+13019660Y+1476250D01*
X+13034900Y+1476250D01*
X+13050140Y+1460375D01*
X+13050140Y+1381000D01*
X+13050140Y+1460375D02*
X+13065380Y+1476250D01*
X+13095860Y+1476250D01*
X+13019660Y+1523875D02*
X+13004420Y+1539750D01*
X+13004420Y+1587375D01*
X+13019660Y+1603250D01*
X+13034900Y+1603250D01*
X+13050140Y+1587375D01*
X+13050140Y+1539750D01*
X+13065380Y+1523875D01*
X+13095860Y+1523875D01*
X+13095860Y+1603250D01*
X+9138000Y+519000D02*
X+10408000Y+519000D01*
X+10408000Y+1154000D01*
X+9138000Y+1154000D01*
X+9138000Y+519000D01*
X+10408000Y+646000D02*
X+9138000Y+646000D01*
X+9138000Y+386920D02*
X+9138000Y+478360D01*
X+9201500Y+478360D01*
X+9233250Y+447880D01*
X+9233250Y+417400D01*
X+9201500Y+386920D01*
X+9138000Y+386920D01*
X+9360250Y+386920D02*
X+9265000Y+386920D01*
X+9265000Y+478360D01*
X+9360250Y+478360D01*
X+9265000Y+432640D02*
X+9328500Y+432640D01*
X+9392000Y+386920D02*
X+9392000Y+478360D01*
X+9471375Y+478360D01*
X+9487250Y+463120D01*
X+9487250Y+447880D01*
X+9471375Y+432640D01*
X+9487250Y+417400D01*
X+9487250Y+402160D01*
X+9471375Y+386920D01*
X+9392000Y+386920D01*
X+9392000Y+432640D02*
X+9471375Y+432640D01*
X+9519000Y+478360D02*
X+9519000Y+402160D01*
X+9534875Y+386920D01*
X+9598375Y+386920D01*
X+9614250Y+402160D01*
X+9614250Y+478360D01*
X+9709500Y+417400D02*
X+9741250Y+417400D01*
X+9741250Y+386920D01*
X+9677750Y+386920D01*
X+9646000Y+417400D01*
X+9646000Y+447880D01*
X+9677750Y+478360D01*
X+9725375Y+478360D01*
X+9741250Y+463120D01*
X+9836500Y+417400D02*
X+9868250Y+417400D01*
X+9868250Y+386920D01*
X+9804750Y+386920D01*
X+9773000Y+417400D01*
X+9773000Y+447880D01*
X+9804750Y+478360D01*
X+9852375Y+478360D01*
X+9868250Y+463120D01*
X+9995250Y+386920D02*
X+9900000Y+386920D01*
X+9900000Y+478360D01*
X+9995250Y+478360D01*
X+9900000Y+432640D02*
X+9963500Y+432640D01*
X+10027000Y+386920D02*
X+10027000Y+478360D01*
X+10106375Y+478360D01*
X+10122250Y+463120D01*
X+10122250Y+447880D01*
X+10106375Y+432640D01*
X+10027000Y+432640D01*
X+10106375Y+432640D02*
X+10122250Y+417400D01*
X+10122250Y+386920D01*
X+10154000Y+371680D02*
X+10249250Y+371680D01*
X+10281000Y+402160D02*
X+10296875Y+386920D01*
X+10360375Y+386920D01*
X+10376250Y+402160D01*
X+10376250Y+417400D01*
X+10360375Y+432640D01*
X+10296875Y+432640D01*
X+10281000Y+447880D01*
X+10281000Y+463120D01*
X+10296875Y+478360D01*
X+10360375Y+478360D01*
X+10376250Y+463120D01*
X+15798000Y+619000D02*
X+17068000Y+619000D01*
X+17068000Y+1254000D01*
X+15798000Y+1254000D01*
X+15798000Y+619000D01*
X+17068000Y+746000D02*
X+15798000Y+746000D01*
X+15861500Y+486920D02*
X+15861500Y+578360D01*
X+15925000Y+578360D01*
X+15956750Y+547880D01*
X+15956750Y+517400D01*
X+15925000Y+486920D01*
X+15861500Y+486920D01*
X+16083750Y+486920D02*
X+15988500Y+486920D01*
X+15988500Y+578360D01*
X+16083750Y+578360D01*
X+15988500Y+532640D02*
X+16052000Y+532640D01*
X+16115500Y+486920D02*
X+16115500Y+578360D01*
X+16194875Y+578360D01*
X+16210750Y+563120D01*
X+16210750Y+547880D01*
X+16194875Y+532640D01*
X+16210750Y+517400D01*
X+16210750Y+502160D01*
X+16194875Y+486920D01*
X+16115500Y+486920D01*
X+16115500Y+532640D02*
X+16194875Y+532640D01*
X+16242500Y+578360D02*
X+16242500Y+502160D01*
X+16258375Y+486920D01*
X+16321875Y+486920D01*
X+16337750Y+502160D01*
X+16337750Y+578360D01*
X+16433000Y+517400D02*
X+16464750Y+517400D01*
X+16464750Y+486920D01*
X+16401250Y+486920D01*
X+16369500Y+517400D01*
X+16369500Y+547880D01*
X+16401250Y+578360D01*
X+16448875Y+578360D01*
X+16464750Y+563120D01*
X+16560000Y+517400D02*
X+16591750Y+517400D01*
X+16591750Y+486920D01*
X+16528250Y+486920D01*
X+16496500Y+517400D01*
X+16496500Y+547880D01*
X+16528250Y+578360D01*
X+16575875Y+578360D01*
X+16591750Y+563120D01*
X+16623500Y+486920D02*
X+16623500Y+578360D01*
X+16702875Y+578360D01*
X+16718750Y+563120D01*
X+16718750Y+547880D01*
X+16702875Y+532640D01*
X+16623500Y+532640D01*
X+16702875Y+532640D02*
X+16718750Y+517400D01*
X+16718750Y+486920D01*
X+16750500Y+471680D02*
X+16845750Y+471680D01*
X+16877500Y+486920D02*
X+16877500Y+578360D01*
X+16925125Y+532640D01*
X+16972750Y+578360D01*
X+16972750Y+486920D01*
X+11682000Y-394000D02*
X+13460000Y-394000D01*
X+13460000Y+241000D01*
X+11682000Y+241000D01*
X+11682000Y-394000D01*
X+11682000Y+114000D02*
X+13460000Y+114000D01*
X+12444000Y+312120D02*
X+12444000Y+296880D01*
X+12459875Y+281640D01*
X+12523375Y+281640D01*
X+12539250Y+296880D01*
X+12539250Y+373080D01*
X+12586875Y+357840D02*
X+12602750Y+373080D01*
X+12650375Y+373080D01*
X+12666250Y+357840D01*
X+12666250Y+342600D01*
X+12650375Y+327360D01*
X+12666250Y+312120D01*
X+12666250Y+296880D01*
X+12650375Y+281640D01*
X+12602750Y+281640D01*
X+12586875Y+296880D01*
X+12618625Y+327360D02*
X+12650375Y+327360D01*
X+10541366Y+8100000D02*
X+10540306Y+8126500D01*
X+10531703Y+8179502D01*
X+10513766Y+8232504D01*
X+10484677Y+8285506D01*
X+10440321Y+8338446D01*
X+10387319Y+8380206D01*
X+10334317Y+8407499D01*
X+10281315Y+8424003D01*
X+10228313Y+8431332D01*
X+10209500Y+8431866D01*
X+9877634Y+8100000D02*
X+9878694Y+8126500D01*
X+9887297Y+8179502D01*
X+9905234Y+8232504D01*
X+9934323Y+8285506D01*
X+9978679Y+8338446D01*
X+10031681Y+8380206D01*
X+10084683Y+8407499D01*
X+10137685Y+8424003D01*
X+10190687Y+8431332D01*
X+10209500Y+8431866D01*
X+9877634Y+8100000D02*
X+9878694Y+8073500D01*
X+9887297Y+8020498D01*
X+9905234Y+7967496D01*
X+9934323Y+7914494D01*
X+9978679Y+7861554D01*
X+10031681Y+7819794D01*
X+10084683Y+7792501D01*
X+10137685Y+7775997D01*
X+10190687Y+7768668D01*
X+10209500Y+7768134D01*
X+10541366Y+8100000D02*
X+10540306Y+8073500D01*
X+10531703Y+8020498D01*
X+10513766Y+7967496D01*
X+10484677Y+7914494D01*
X+10440321Y+7861554D01*
X+10387319Y+7819794D01*
X+10334317Y+7792501D01*
X+10281315Y+7775997D01*
X+10228313Y+7768668D01*
X+10209500Y+7768134D01*
X+9955500Y+8563946D02*
X+9955500Y+8472506D01*
X+10050750Y+8472506D01*
X+10082500Y+8472506D02*
X+10082500Y+8563946D01*
X+10146000Y+8563946D01*
X+10177750Y+8533466D01*
X+10177750Y+8502986D01*
X+10146000Y+8472506D01*
X+10082500Y+8472506D01*
X+10209500Y+8472506D02*
X+10209500Y+8563946D01*
X+10288875Y+8563946D01*
X+10304750Y+8548706D01*
X+10304750Y+8533466D01*
X+10288875Y+8518226D01*
X+10209500Y+8518226D01*
X+10288875Y+8518226D02*
X+10304750Y+8502986D01*
X+10304750Y+8472506D01*
X+10368250Y+8533466D02*
X+10400000Y+8563946D01*
X+10400000Y+8472506D01*
X+10852000Y-354000D02*
X+11614000Y-354000D01*
X+11614000Y+281000D01*
X+10852000Y+281000D01*
X+10852000Y-354000D01*
X+10852000Y+154000D02*
X+11614000Y+154000D01*
X+10090000Y+321640D02*
X+10090000Y+413080D01*
X+10137625Y+367360D01*
X+10185250Y+413080D01*
X+10185250Y+321640D01*
X+10217000Y+382600D02*
X+10248750Y+413080D01*
X+10280500Y+413080D01*
X+10312250Y+382600D01*
X+10312250Y+352120D01*
X+10280500Y+321640D01*
X+10248750Y+321640D01*
X+10217000Y+352120D01*
X+10217000Y+382600D01*
X+10344000Y+413080D02*
X+10439250Y+413080D01*
X+10391625Y+413080D02*
X+10391625Y+321640D01*
X+10471000Y+382600D02*
X+10502750Y+413080D01*
X+10534500Y+413080D01*
X+10566250Y+382600D01*
X+10566250Y+352120D01*
X+10534500Y+321640D01*
X+10502750Y+321640D01*
X+10471000Y+352120D01*
X+10471000Y+382600D01*
X+10598000Y+321640D02*
X+10598000Y+413080D01*
X+10677375Y+413080D01*
X+10693250Y+397840D01*
X+10693250Y+382600D01*
X+10677375Y+367360D01*
X+10598000Y+367360D01*
X+10677375Y+367360D02*
X+10693250Y+352120D01*
X+10693250Y+321640D01*
X+10725000Y+306400D02*
X+10820250Y+306400D01*
X+10852000Y+321640D02*
X+10852000Y+413080D01*
X+10915500Y+413080D01*
X+10947250Y+382600D01*
X+10947250Y+352120D01*
X+10915500Y+321640D01*
X+10852000Y+321640D01*
X+10979000Y+321640D02*
X+10979000Y+413080D01*
X+11058375Y+413080D01*
X+11074250Y+397840D01*
X+11074250Y+382600D01*
X+11058375Y+367360D01*
X+10979000Y+367360D01*
X+11058375Y+367360D02*
X+11074250Y+352120D01*
X+11074250Y+321640D01*
X+11121875Y+413080D02*
X+11185375Y+413080D01*
X+11153625Y+413080D02*
X+11153625Y+321640D01*
X+11121875Y+321640D02*
X+11185375Y+321640D01*
X+11233000Y+413080D02*
X+11233000Y+367360D01*
X+11280625Y+321640D01*
X+11328250Y+367360D01*
X+11328250Y+413080D01*
X+11455250Y+321640D02*
X+11360000Y+321640D01*
X+11360000Y+413080D01*
X+11455250Y+413080D01*
X+11360000Y+367360D02*
X+11423500Y+367360D01*
X+11487000Y+321640D02*
X+11487000Y+413080D01*
X+11566375Y+413080D01*
X+11582250Y+397840D01*
X+11582250Y+382600D01*
X+11566375Y+367360D01*
X+11487000Y+367360D01*
X+11566375Y+367360D02*
X+11582250Y+352120D01*
X+11582250Y+321640D01*
X+11614000Y+306400D02*
X+11709250Y+306400D01*
X+11741000Y+413080D02*
X+11741000Y+321640D01*
X+11836250Y+321640D01*
X+11868000Y+382600D02*
X+11899750Y+413080D01*
X+11931500Y+413080D01*
X+11963250Y+382600D01*
X+11963250Y+352120D01*
X+11931500Y+321640D01*
X+11899750Y+321640D01*
X+11868000Y+352120D01*
X+11868000Y+382600D01*
X+12058500Y+352120D02*
X+12090250Y+352120D01*
X+12090250Y+321640D01*
X+12026750Y+321640D01*
X+11995000Y+352120D01*
X+11995000Y+382600D01*
X+12026750Y+413080D01*
X+12074375Y+413080D01*
X+12090250Y+397840D01*
X+12137875Y+413080D02*
X+12201375Y+413080D01*
X+12169625Y+413080D02*
X+12169625Y+321640D01*
X+12137875Y+321640D02*
X+12201375Y+321640D01*
X+12344250Y+336880D02*
X+12328375Y+321640D01*
X+12280750Y+321640D01*
X+12249000Y+352120D01*
X+12249000Y+382600D01*
X+12280750Y+413080D01*
X+12328375Y+413080D01*
X+12344250Y+397840D01*
X+9200000Y+8073000D02*
X+9200000Y+7946000D01*
X+9136500Y+7438000D02*
X+9263500Y+7438000D01*
X+9263500Y+7946000D01*
X+9136500Y+7946000D01*
X+9136500Y+7438000D01*
X+9200000Y+7438000D02*
X+9200000Y+7311000D01*
X+9395580Y+7565000D02*
X+9304140Y+7565000D01*
X+9304140Y+7644375D01*
X+9319380Y+7660250D01*
X+9334620Y+7660250D01*
X+9349860Y+7644375D01*
X+9349860Y+7565000D01*
X+9349860Y+7644375D02*
X+9365100Y+7660250D01*
X+9395580Y+7660250D01*
X+9334620Y+7723750D02*
X+9304140Y+7755500D01*
X+9395580Y+7755500D01*
X+12819000Y+2292000D02*
X+13454000Y+2292000D01*
X+13454000Y+3054000D01*
X+12819000Y+3054000D01*
X+12819000Y+2292000D01*
X+12946000Y+2292000D02*
X+12946000Y+3054000D01*
X+12686920Y+2165000D02*
X+12778360Y+2165000D01*
X+12778360Y+2260250D01*
X+12778360Y+2292000D02*
X+12686920Y+2292000D01*
X+12686920Y+2355500D01*
X+12717400Y+2387250D01*
X+12747880Y+2387250D01*
X+12778360Y+2355500D01*
X+12778360Y+2292000D01*
X+12778360Y+2419000D02*
X+12686920Y+2419000D01*
X+12686920Y+2498375D01*
X+12702160Y+2514250D01*
X+12717400Y+2514250D01*
X+12732640Y+2498375D01*
X+12732640Y+2419000D01*
X+12732640Y+2498375D02*
X+12747880Y+2514250D01*
X+12778360Y+2514250D01*
X+12793600Y+2546000D02*
X+12793600Y+2641250D01*
X+12747880Y+2673000D02*
X+12763120Y+2673000D01*
X+12778360Y+2688875D01*
X+12778360Y+2752375D01*
X+12763120Y+2768250D01*
X+12686920Y+2768250D01*
X+12778360Y+2800000D02*
X+12686920Y+2800000D01*
X+12732640Y+2847625D01*
X+12686920Y+2895250D01*
X+12778360Y+2895250D01*
X+12778360Y+2927000D02*
X+12686920Y+2927000D01*
X+12686920Y+3006375D01*
X+12702160Y+3022250D01*
X+12717400Y+3022250D01*
X+12732640Y+3006375D01*
X+12732640Y+2927000D01*
X+12778360Y+3054000D02*
X+12686920Y+3054000D01*
X+12686920Y+3133375D01*
X+12702160Y+3149250D01*
X+12717400Y+3149250D01*
X+12732640Y+3133375D01*
X+12732640Y+3054000D01*
X+12732640Y+3133375D02*
X+12747880Y+3149250D01*
X+12778360Y+3149250D01*
X+12819000Y+3392000D02*
X+13454000Y+3392000D01*
X+13454000Y+4154000D01*
X+12819000Y+4154000D01*
X+12819000Y+3392000D01*
X+12946000Y+3392000D02*
X+12946000Y+4154000D01*
X+12686920Y+3011000D02*
X+12778360Y+3011000D01*
X+12778360Y+3106250D01*
X+12778360Y+3233250D02*
X+12778360Y+3138000D01*
X+12686920Y+3138000D01*
X+12686920Y+3233250D01*
X+12732640Y+3138000D02*
X+12732640Y+3201500D01*
X+12778360Y+3265000D02*
X+12686920Y+3265000D01*
X+12686920Y+3360250D01*
X+12732640Y+3265000D02*
X+12732640Y+3328500D01*
X+12686920Y+3392000D02*
X+12686920Y+3487250D01*
X+12686920Y+3439625D02*
X+12778360Y+3439625D01*
X+12793600Y+3519000D02*
X+12793600Y+3614250D01*
X+12686920Y+3661875D02*
X+12686920Y+3725375D01*
X+12686920Y+3693625D02*
X+12778360Y+3693625D01*
X+12778360Y+3661875D02*
X+12778360Y+3725375D01*
X+12778360Y+3773000D02*
X+12686920Y+3773000D01*
X+12686920Y+3852375D01*
X+12702160Y+3868250D01*
X+12717400Y+3868250D01*
X+12732640Y+3852375D01*
X+12732640Y+3773000D01*
X+12732640Y+3852375D02*
X+12747880Y+3868250D01*
X+12778360Y+3868250D01*
X+12793600Y+3900000D02*
X+12793600Y+3995250D01*
X+12747880Y+4027000D02*
X+12763120Y+4027000D01*
X+12778360Y+4042875D01*
X+12778360Y+4106375D01*
X+12763120Y+4122250D01*
X+12686920Y+4122250D01*
X+12778360Y+4154000D02*
X+12686920Y+4154000D01*
X+12732640Y+4201625D01*
X+12686920Y+4249250D01*
X+12778360Y+4249250D01*
X+12778360Y+4281000D02*
X+12686920Y+4281000D01*
X+12686920Y+4360375D01*
X+12702160Y+4376250D01*
X+12717400Y+4376250D01*
X+12732640Y+4360375D01*
X+12732640Y+4281000D01*
X+12778360Y+4408000D02*
X+12686920Y+4408000D01*
X+12686920Y+4487375D01*
X+12702160Y+4503250D01*
X+12717400Y+4503250D01*
X+12732640Y+4487375D01*
X+12732640Y+4408000D01*
X+12732640Y+4487375D02*
X+12747880Y+4503250D01*
X+12778360Y+4503250D01*
X+12819000Y+4492000D02*
X+13454000Y+4492000D01*
X+13454000Y+5254000D01*
X+12819000Y+5254000D01*
X+12819000Y+4492000D01*
X+12946000Y+4492000D02*
X+12946000Y+5254000D01*
X+12778360Y+4047500D02*
X+12686920Y+4047500D01*
X+12686920Y+4126875D01*
X+12702160Y+4142750D01*
X+12717400Y+4142750D01*
X+12732640Y+4126875D01*
X+12732640Y+4047500D01*
X+12732640Y+4126875D02*
X+12747880Y+4142750D01*
X+12778360Y+4142750D01*
X+12686920Y+4190375D02*
X+12686920Y+4253875D01*
X+12686920Y+4222125D02*
X+12778360Y+4222125D01*
X+12778360Y+4190375D02*
X+12778360Y+4253875D01*
X+12747880Y+4365000D02*
X+12747880Y+4396750D01*
X+12778360Y+4396750D01*
X+12778360Y+4333250D01*
X+12747880Y+4301500D01*
X+12717400Y+4301500D01*
X+12686920Y+4333250D01*
X+12686920Y+4380875D01*
X+12702160Y+4396750D01*
X+12778360Y+4428500D02*
X+12686920Y+4428500D01*
X+12686920Y+4523750D02*
X+12778360Y+4523750D01*
X+12732640Y+4428500D02*
X+12732640Y+4523750D01*
X+12686920Y+4555500D02*
X+12686920Y+4650750D01*
X+12686920Y+4603125D02*
X+12778360Y+4603125D01*
X+12793600Y+4682500D02*
X+12793600Y+4777750D01*
X+12686920Y+4825375D02*
X+12686920Y+4888875D01*
X+12686920Y+4857125D02*
X+12778360Y+4857125D01*
X+12778360Y+4825375D02*
X+12778360Y+4888875D01*
X+12778360Y+4936500D02*
X+12686920Y+4936500D01*
X+12686920Y+5015875D01*
X+12702160Y+5031750D01*
X+12717400Y+5031750D01*
X+12732640Y+5015875D01*
X+12732640Y+4936500D01*
X+12732640Y+5015875D02*
X+12747880Y+5031750D01*
X+12778360Y+5031750D01*
X+12793600Y+5063500D02*
X+12793600Y+5158750D01*
X+12747880Y+5190500D02*
X+12763120Y+5190500D01*
X+12778360Y+5206375D01*
X+12778360Y+5269875D01*
X+12763120Y+5285750D01*
X+12686920Y+5285750D01*
X+12778360Y+5317500D02*
X+12686920Y+5317500D01*
X+12732640Y+5365125D01*
X+12686920Y+5412750D01*
X+12778360Y+5412750D01*
X+12778360Y+5444500D02*
X+12686920Y+5444500D01*
X+12686920Y+5523875D01*
X+12702160Y+5539750D01*
X+12717400Y+5539750D01*
X+12732640Y+5523875D01*
X+12732640Y+5444500D01*
X+12778360Y+5571500D02*
X+12686920Y+5571500D01*
X+12686920Y+5650875D01*
X+12702160Y+5666750D01*
X+12717400Y+5666750D01*
X+12732640Y+5650875D01*
X+12732640Y+5571500D01*
X+12732640Y+5650875D02*
X+12747880Y+5666750D01*
X+12778360Y+5666750D01*
X+12819000Y+5638000D02*
X+13454000Y+5638000D01*
X+13454000Y+6654000D01*
X+12819000Y+6654000D01*
X+12819000Y+5638000D01*
X+12946000Y+5638000D02*
X+12946000Y+6654000D01*
X+12686920Y+4939500D02*
X+12763120Y+4939500D01*
X+12778360Y+4955375D01*
X+12778360Y+5018875D01*
X+12763120Y+5034750D01*
X+12686920Y+5034750D01*
X+12763120Y+5066500D02*
X+12778360Y+5082375D01*
X+12778360Y+5145875D01*
X+12763120Y+5161750D01*
X+12747880Y+5161750D01*
X+12732640Y+5145875D01*
X+12732640Y+5082375D01*
X+12717400Y+5066500D01*
X+12702160Y+5066500D01*
X+12686920Y+5082375D01*
X+12686920Y+5145875D01*
X+12702160Y+5161750D01*
X+12793600Y+5193500D02*
X+12793600Y+5288750D01*
X+12778360Y+5320500D02*
X+12686920Y+5320500D01*
X+12686920Y+5399875D01*
X+12702160Y+5415750D01*
X+12717400Y+5415750D01*
X+12732640Y+5399875D01*
X+12732640Y+5320500D01*
X+12732640Y+5399875D02*
X+12747880Y+5415750D01*
X+12778360Y+5415750D01*
X+12686920Y+5447500D02*
X+12778360Y+5542750D01*
X+12778360Y+5447500D02*
X+12686920Y+5542750D01*
X+12686920Y+5669750D02*
X+12778360Y+5574500D01*
X+12763120Y+5701500D02*
X+12778360Y+5717375D01*
X+12778360Y+5780875D01*
X+12763120Y+5796750D01*
X+12747880Y+5796750D01*
X+12732640Y+5780875D01*
X+12732640Y+5717375D01*
X+12717400Y+5701500D01*
X+12702160Y+5701500D01*
X+12686920Y+5717375D01*
X+12686920Y+5780875D01*
X+12702160Y+5796750D01*
X+12686920Y+5828500D02*
X+12778360Y+5828500D01*
X+12778360Y+5923750D01*
X+12778360Y+5955500D02*
X+12717400Y+5955500D01*
X+12686920Y+5987250D01*
X+12686920Y+6019000D01*
X+12717400Y+6050750D01*
X+12778360Y+6050750D01*
X+12747880Y+5955500D02*
X+12747880Y+6050750D01*
X+12686920Y+6082500D02*
X+12732640Y+6082500D01*
X+12778360Y+6130125D01*
X+12732640Y+6177750D01*
X+12686920Y+6177750D01*
X+12778360Y+6304750D02*
X+12778360Y+6209500D01*
X+12686920Y+6209500D01*
X+12686920Y+6304750D01*
X+12732640Y+6209500D02*
X+12732640Y+6273000D01*
X+12793600Y+6336500D02*
X+12793600Y+6431750D01*
X+12686920Y+6463500D02*
X+12686920Y+6558750D01*
X+12686920Y+6511125D02*
X+12778360Y+6511125D01*
X+12686920Y+6590500D02*
X+12778360Y+6685750D01*
X+12778360Y+6590500D02*
X+12686920Y+6685750D01*
X+12793600Y+6717500D02*
X+12793600Y+6812750D01*
X+12747880Y+6844500D02*
X+12763120Y+6844500D01*
X+12778360Y+6860375D01*
X+12778360Y+6923875D01*
X+12763120Y+6939750D01*
X+12686920Y+6939750D01*
X+12778360Y+6971500D02*
X+12686920Y+6971500D01*
X+12732640Y+7019125D01*
X+12686920Y+7066750D01*
X+12778360Y+7066750D01*
X+12778360Y+7098500D02*
X+12686920Y+7098500D01*
X+12686920Y+7177875D01*
X+12702160Y+7193750D01*
X+12717400Y+7193750D01*
X+12732640Y+7177875D01*
X+12732640Y+7098500D01*
X+12778360Y+7225500D02*
X+12686920Y+7225500D01*
X+12686920Y+7304875D01*
X+12702160Y+7320750D01*
X+12717400Y+7320750D01*
X+12732640Y+7304875D01*
X+12732640Y+7225500D01*
X+12732640Y+7304875D02*
X+12747880Y+7320750D01*
X+12778360Y+7320750D01*
X+12819000Y+7046000D02*
X+13454000Y+7046000D01*
X+13454000Y+8062000D01*
X+12819000Y+8062000D01*
X+12819000Y+7046000D01*
X+12946000Y+7046000D02*
X+12946000Y+8062000D01*
X+12686920Y+6347500D02*
X+12763120Y+6347500D01*
X+12778360Y+6363375D01*
X+12778360Y+6426875D01*
X+12763120Y+6442750D01*
X+12686920Y+6442750D01*
X+12763120Y+6474500D02*
X+12778360Y+6490375D01*
X+12778360Y+6553875D01*
X+12763120Y+6569750D01*
X+12747880Y+6569750D01*
X+12732640Y+6553875D01*
X+12732640Y+6490375D01*
X+12717400Y+6474500D01*
X+12702160Y+6474500D01*
X+12686920Y+6490375D01*
X+12686920Y+6553875D01*
X+12702160Y+6569750D01*
X+12793600Y+6601500D02*
X+12793600Y+6696750D01*
X+12686920Y+6728500D02*
X+12686920Y+6823750D01*
X+12686920Y+6776125D02*
X+12778360Y+6776125D01*
X+12686920Y+6855500D02*
X+12778360Y+6950750D01*
X+12778360Y+6855500D02*
X+12686920Y+6950750D01*
X+12686920Y+7077750D02*
X+12778360Y+6982500D01*
X+12763120Y+7109500D02*
X+12778360Y+7125375D01*
X+12778360Y+7188875D01*
X+12763120Y+7204750D01*
X+12747880Y+7204750D01*
X+12732640Y+7188875D01*
X+12732640Y+7125375D01*
X+12717400Y+7109500D01*
X+12702160Y+7109500D01*
X+12686920Y+7125375D01*
X+12686920Y+7188875D01*
X+12702160Y+7204750D01*
X+12686920Y+7236500D02*
X+12778360Y+7236500D01*
X+12778360Y+7331750D01*
X+12778360Y+7363500D02*
X+12717400Y+7363500D01*
X+12686920Y+7395250D01*
X+12686920Y+7427000D01*
X+12717400Y+7458750D01*
X+12778360Y+7458750D01*
X+12747880Y+7363500D02*
X+12747880Y+7458750D01*
X+12686920Y+7490500D02*
X+12732640Y+7490500D01*
X+12778360Y+7538125D01*
X+12732640Y+7585750D01*
X+12686920Y+7585750D01*
X+12778360Y+7712750D02*
X+12778360Y+7617500D01*
X+12686920Y+7617500D01*
X+12686920Y+7712750D01*
X+12732640Y+7617500D02*
X+12732640Y+7681000D01*
X+12793600Y+7744500D02*
X+12793600Y+7839750D01*
X+12778360Y+7871500D02*
X+12686920Y+7871500D01*
X+12686920Y+7950875D01*
X+12702160Y+7966750D01*
X+12717400Y+7966750D01*
X+12732640Y+7950875D01*
X+12732640Y+7871500D01*
X+12732640Y+7950875D02*
X+12747880Y+7966750D01*
X+12778360Y+7966750D01*
X+12686920Y+7998500D02*
X+12778360Y+8093750D01*
X+12778360Y+7998500D02*
X+12686920Y+8093750D01*
X+12793600Y+8125500D02*
X+12793600Y+8220750D01*
X+12747880Y+8252500D02*
X+12763120Y+8252500D01*
X+12778360Y+8268375D01*
X+12778360Y+8331875D01*
X+12763120Y+8347750D01*
X+12686920Y+8347750D01*
X+12778360Y+8379500D02*
X+12686920Y+8379500D01*
X+12732640Y+8427125D01*
X+12686920Y+8474750D01*
X+12778360Y+8474750D01*
X+12778360Y+8506500D02*
X+12686920Y+8506500D01*
X+12686920Y+8585875D01*
X+12702160Y+8601750D01*
X+12717400Y+8601750D01*
X+12732640Y+8585875D01*
X+12732640Y+8506500D01*
X+12778360Y+8633500D02*
X+12686920Y+8633500D01*
X+12686920Y+8712875D01*
X+12702160Y+8728750D01*
X+12717400Y+8728750D01*
X+12732640Y+8712875D01*
X+12732640Y+8633500D01*
X+12732640Y+8712875D02*
X+12747880Y+8728750D01*
X+12778360Y+8728750D01*
D17*
X+4800000Y+9200000D02*
X+21800000Y+9200000D01*
X+21800000Y+7200000D01*
X+4800000Y+9200000D02*
X+4800000Y+7200000D01*
X+9000000Y+7200000D01*
X+21800000Y+7200000D02*
X+17600000Y+7200000D01*
X+17600000Y-800000D01*
X+9000000Y+7200000D02*
X+9000000Y-800000D01*
X+17600000Y-800000D01*
D18*
X+15642000Y-554000D02*
X+16658000Y-554000D01*
X+16658000Y+81000D01*
X+15642000Y+81000D01*
X+15642000Y-554000D01*
X+15642000Y-46000D02*
X+16658000Y-46000D01*
X+16023000Y+121640D02*
X+16023000Y+213080D01*
X+16102375Y+213080D01*
X+16118250Y+197840D01*
X+16118250Y+182600D01*
X+16102375Y+167360D01*
X+16023000Y+167360D01*
X+16165875Y+213080D02*
X+16229375Y+213080D01*
X+16197625Y+213080D02*
X+16197625Y+121640D01*
X+16165875Y+121640D02*
X+16229375Y+121640D01*
X+13884000Y+419000D02*
X+15154000Y+419000D01*
X+15154000Y+1054000D01*
X+13884000Y+1054000D01*
X+13884000Y+419000D01*
X+15154000Y+546000D02*
X+13884000Y+546000D01*
X+13947500Y+286920D02*
X+13947500Y+378360D01*
X+14026875Y+378360D01*
X+14042750Y+363120D01*
X+14042750Y+347880D01*
X+14026875Y+332640D01*
X+14042750Y+317400D01*
X+14042750Y+302160D01*
X+14026875Y+286920D01*
X+13947500Y+286920D01*
X+13947500Y+332640D02*
X+14026875Y+332640D01*
X+14074500Y+378360D02*
X+14074500Y+286920D01*
X+14169750Y+286920D01*
X+14201500Y+378360D02*
X+14201500Y+302160D01*
X+14217375Y+286920D01*
X+14280875Y+286920D01*
X+14296750Y+302160D01*
X+14296750Y+378360D01*
X+14423750Y+286920D02*
X+14328500Y+286920D01*
X+14328500Y+378360D01*
X+14423750Y+378360D01*
X+14328500Y+332640D02*
X+14392000Y+332640D01*
X+14455500Y+378360D02*
X+14550750Y+378360D01*
X+14503125Y+378360D02*
X+14503125Y+286920D01*
X+14582500Y+347880D02*
X+14614250Y+378360D01*
X+14646000Y+378360D01*
X+14677750Y+347880D01*
X+14677750Y+317400D01*
X+14646000Y+286920D01*
X+14614250Y+286920D01*
X+14582500Y+317400D01*
X+14582500Y+347880D01*
X+14709500Y+347880D02*
X+14741250Y+378360D01*
X+14773000Y+378360D01*
X+14804750Y+347880D01*
X+14804750Y+317400D01*
X+14773000Y+286920D01*
X+14741250Y+286920D01*
X+14709500Y+317400D01*
X+14709500Y+347880D01*
X+14836500Y+378360D02*
X+14931750Y+378360D01*
X+14884125Y+378360D02*
X+14884125Y+286920D01*
X+14963500Y+286920D02*
X+14963500Y+378360D01*
X+15058750Y+378360D02*
X+15058750Y+286920D01*
X+14963500Y+332640D02*
X+15058750Y+332640D01*
X+11692000Y-714000D02*
X+13470000Y-714000D01*
X+13470000Y-79000D01*
X+11692000Y-79000D01*
X+11692000Y-714000D01*
X+11692000Y-206000D02*
X+13470000Y-206000D01*
X+12454000Y-7880D02*
X+12454000Y-23120D01*
X+12469875Y-38360D01*
X+12533375Y-38360D01*
X+12549250Y-23120D01*
X+12549250Y+53080D01*
X+12612750Y+22600D02*
X+12644500Y+53080D01*
X+12644500Y-38360D01*
X+10852000Y-704000D02*
X+11614000Y-704000D01*
X+11614000Y-69000D01*
X+10852000Y-69000D01*
X+10852000Y-704000D01*
X+10852000Y-196000D02*
X+11614000Y-196000D01*
X+10852000Y-28360D02*
X+10852000Y+63080D01*
X+10899625Y+17360D01*
X+10947250Y+63080D01*
X+10947250Y-28360D01*
X+10979000Y+32600D02*
X+11010750Y+63080D01*
X+11042500Y+63080D01*
X+11074250Y+32600D01*
X+11074250Y+2120D01*
X+11042500Y-28360D01*
X+11010750Y-28360D01*
X+10979000Y+2120D01*
X+10979000Y+32600D01*
X+11106000Y+63080D02*
X+11201250Y+63080D01*
X+11153625Y+63080D02*
X+11153625Y-28360D01*
X+11233000Y+32600D02*
X+11264750Y+63080D01*
X+11296500Y+63080D01*
X+11328250Y+32600D01*
X+11328250Y+2120D01*
X+11296500Y-28360D01*
X+11264750Y-28360D01*
X+11233000Y+2120D01*
X+11233000Y+32600D01*
X+11360000Y-28360D02*
X+11360000Y+63080D01*
X+11439375Y+63080D01*
X+11455250Y+47840D01*
X+11455250Y+32600D01*
X+11439375Y+17360D01*
X+11360000Y+17360D01*
X+11439375Y+17360D02*
X+11455250Y+2120D01*
X+11455250Y-28360D01*
X+11518750Y+32600D02*
X+11550500Y+63080D01*
X+11550500Y-28360D01*
M02*
