G04 PROTEUS GERBER X2 FILE*
%TF.GenerationSoftware,Labcenter,Proteus,8.11-SP0-Build30052*%
%TF.CreationDate,2024-03-04T06:39:40+00:00*%
%TF.FileFunction,AssemblyDrawing,Top*%
%TF.FilePolarity,Positive*%
%TF.Part,Single*%
%TF.SameCoordinates,{347c642e-2b0e-48e9-919d-a538f2e8b90d}*%
%FSLAX45Y45*%
%MOMM*%
G01*
%TA.AperFunction,Material*%
%ADD18C,0.203200*%
%ADD21C,0.812800*%
%ADD22C,0.516100*%
%ADD23C,0.094400*%
%ADD24C,0.167210*%
%ADD25C,0.085720*%
%ADD26C,0.051950*%
%ADD27C,0.711200*%
%ADD28C,0.110230*%
%ADD29C,1.219200*%
%ADD72C,0.161710*%
%ADD73C,0.057150*%
%ADD30C,0.104670*%
%ADD31C,0.408940*%
%ADD32C,0.165930*%
%ADD33C,0.035270*%
%ADD34C,0.079370*%
%ADD35C,0.052910*%
%ADD36C,0.048840*%
%ADD37C,0.036790*%
%TA.AperFunction,Profile*%
%ADD17C,0.203200*%
%TA.AperFunction,Material*%
%ADD38C,0.220130*%
%ADD39C,0.105830*%
%TD.AperFunction*%
D18*
X+9339840Y+1016000D02*
X+11860160Y+1016000D01*
X+11860160Y+7080160D01*
X+9339840Y+7080160D01*
X+9339840Y+1016000D01*
D21*
X+9700000Y+6570000D02*
X+9700000Y+6570000D01*
D22*
X+10703221Y+1450215D02*
X+10754832Y+1508276D01*
X+10754832Y+1740523D01*
X+10703221Y+1798584D01*
X+10651611Y+1798584D01*
X+10600000Y+1740523D01*
X+10600000Y+1508276D01*
X+10548390Y+1450215D01*
X+10496780Y+1450215D01*
X+10445169Y+1508276D01*
X+10445169Y+1740523D01*
X+10496780Y+1798584D01*
X+10754832Y+2263077D02*
X+10754832Y+1914708D01*
X+10445169Y+1914708D01*
X+10445169Y+2263077D01*
X+10600000Y+1914708D02*
X+10600000Y+2146954D01*
X+10754832Y+2379201D02*
X+10445169Y+2379201D01*
X+10754832Y+2727570D01*
X+10445169Y+2727570D01*
X+10703221Y+2843694D02*
X+10754832Y+2901755D01*
X+10754832Y+3134002D01*
X+10703221Y+3192063D01*
X+10651611Y+3192063D01*
X+10600000Y+3134002D01*
X+10600000Y+2901755D01*
X+10548390Y+2843694D01*
X+10496780Y+2843694D01*
X+10445169Y+2901755D01*
X+10445169Y+3134002D01*
X+10496780Y+3192063D01*
X+10548390Y+3308187D02*
X+10445169Y+3424310D01*
X+10445169Y+3540433D01*
X+10548390Y+3656556D01*
X+10651611Y+3656556D01*
X+10754832Y+3540433D01*
X+10754832Y+3424310D01*
X+10651611Y+3308187D01*
X+10548390Y+3308187D01*
X+10754832Y+3772680D02*
X+10445169Y+3772680D01*
X+10445169Y+4062988D01*
X+10496780Y+4121049D01*
X+10548390Y+4121049D01*
X+10600000Y+4062988D01*
X+10600000Y+3772680D01*
X+10600000Y+4062988D02*
X+10651611Y+4121049D01*
X+10754832Y+4121049D01*
X+10806442Y+4237173D02*
X+10806442Y+4585542D01*
X+10754832Y+5050035D02*
X+10754832Y+4701666D01*
X+10445169Y+4701666D01*
X+10445169Y+5050035D01*
X+10600000Y+4701666D02*
X+10600000Y+4933912D01*
X+10703221Y+5514528D02*
X+10754832Y+5456467D01*
X+10754832Y+5282282D01*
X+10651611Y+5166159D01*
X+10548390Y+5166159D01*
X+10445169Y+5282282D01*
X+10445169Y+5456467D01*
X+10496780Y+5514528D01*
X+10445169Y+5630652D02*
X+10703221Y+5630652D01*
X+10754832Y+5688713D01*
X+10754832Y+5920960D01*
X+10703221Y+5979021D01*
X+10445169Y+5979021D01*
D18*
X+14839840Y+1032000D02*
X+17360160Y+1032000D01*
X+17360160Y+7096160D01*
X+14839840Y+7096160D01*
X+14839840Y+1032000D01*
D21*
X+15200000Y+6586000D02*
X+15200000Y+6586000D01*
D22*
X+16254832Y+1466215D02*
X+15945169Y+1466215D01*
X+16100000Y+1640399D01*
X+15945169Y+1814584D01*
X+16254832Y+1814584D01*
X+16254832Y+1930708D02*
X+16048390Y+1930708D01*
X+15945169Y+2046831D01*
X+15945169Y+2162954D01*
X+16048390Y+2279077D01*
X+16254832Y+2279077D01*
X+16151611Y+1930708D02*
X+16151611Y+2279077D01*
X+16203221Y+2395201D02*
X+16254832Y+2453262D01*
X+16254832Y+2685509D01*
X+16203221Y+2743570D01*
X+16151611Y+2743570D01*
X+16100000Y+2685509D01*
X+16100000Y+2453262D01*
X+16048390Y+2395201D01*
X+15996780Y+2395201D01*
X+15945169Y+2453262D01*
X+15945169Y+2685509D01*
X+15996780Y+2743570D01*
X+15945169Y+2859694D02*
X+15945169Y+3208063D01*
X+15945169Y+3033878D02*
X+16254832Y+3033878D01*
X+16254832Y+3672556D02*
X+16254832Y+3324187D01*
X+15945169Y+3324187D01*
X+15945169Y+3672556D01*
X+16100000Y+3324187D02*
X+16100000Y+3556433D01*
X+16254832Y+3788680D02*
X+15945169Y+3788680D01*
X+15945169Y+4078988D01*
X+15996780Y+4137049D01*
X+16048390Y+4137049D01*
X+16100000Y+4078988D01*
X+16100000Y+3788680D01*
X+16100000Y+4078988D02*
X+16151611Y+4137049D01*
X+16254832Y+4137049D01*
X+16306442Y+4253173D02*
X+16306442Y+4601542D01*
X+16254832Y+5066035D02*
X+16254832Y+4717666D01*
X+15945169Y+4717666D01*
X+15945169Y+5066035D01*
X+16100000Y+4717666D02*
X+16100000Y+4949912D01*
X+16203221Y+5530528D02*
X+16254832Y+5472467D01*
X+16254832Y+5298282D01*
X+16151611Y+5182159D01*
X+16048390Y+5182159D01*
X+15945169Y+5298282D01*
X+15945169Y+5472467D01*
X+15996780Y+5530528D01*
X+15945169Y+5646652D02*
X+16203221Y+5646652D01*
X+16254832Y+5704713D01*
X+16254832Y+5936960D01*
X+16203221Y+5995021D01*
X+15945169Y+5995021D01*
D18*
X+12733840Y+8405840D02*
X+14024160Y+8405840D01*
X+14024160Y+9061160D01*
X+12733840Y+9061160D01*
X+12733840Y+8405840D01*
D21*
X+12998000Y+8670000D02*
X+12998000Y+8670000D01*
D23*
X+13106590Y+8761821D02*
X+13106590Y+8714619D01*
X+13117210Y+8705179D01*
X+13159691Y+8705179D01*
X+13170311Y+8714619D01*
X+13170311Y+8761821D01*
X+13191552Y+8761821D02*
X+13191552Y+8705179D01*
X+13255273Y+8705179D01*
X+13276514Y+8761821D02*
X+13340235Y+8761821D01*
X+13308374Y+8761821D02*
X+13308374Y+8705179D01*
X+13361476Y+8705179D02*
X+13361476Y+8761821D01*
X+13414577Y+8761821D01*
X+13425197Y+8752381D01*
X+13425197Y+8742940D01*
X+13414577Y+8733500D01*
X+13361476Y+8733500D01*
X+13414577Y+8733500D02*
X+13425197Y+8724060D01*
X+13425197Y+8705179D01*
X+13446438Y+8705179D02*
X+13446438Y+8742940D01*
X+13467678Y+8761821D01*
X+13488919Y+8761821D01*
X+13510159Y+8742940D01*
X+13510159Y+8705179D01*
X+13446438Y+8724060D02*
X+13510159Y+8724060D01*
X+13531400Y+8714619D02*
X+13542020Y+8705179D01*
X+13584501Y+8705179D01*
X+13595121Y+8714619D01*
X+13595121Y+8724060D01*
X+13584501Y+8733500D01*
X+13542020Y+8733500D01*
X+13531400Y+8742940D01*
X+13531400Y+8752381D01*
X+13542020Y+8761821D01*
X+13584501Y+8761821D01*
X+13595121Y+8752381D01*
X+13616362Y+8742940D02*
X+13637602Y+8761821D01*
X+13658843Y+8761821D01*
X+13680083Y+8742940D01*
X+13680083Y+8724060D01*
X+13658843Y+8705179D01*
X+13637602Y+8705179D01*
X+13616362Y+8724060D01*
X+13616362Y+8742940D01*
X+13701324Y+8705179D02*
X+13701324Y+8761821D01*
X+13765045Y+8705179D01*
X+13765045Y+8761821D01*
X+13796906Y+8761821D02*
X+13839387Y+8761821D01*
X+13818146Y+8761821D02*
X+13818146Y+8705179D01*
X+13796906Y+8705179D02*
X+13839387Y+8705179D01*
X+13934969Y+8714619D02*
X+13924349Y+8705179D01*
X+13892488Y+8705179D01*
X+13871248Y+8724060D01*
X+13871248Y+8742940D01*
X+13892488Y+8761821D01*
X+13924349Y+8761821D01*
X+13934969Y+8752381D01*
D18*
X+4708840Y+7727840D02*
X+5364160Y+7727840D01*
X+5364160Y+8764160D01*
X+4708840Y+8764160D01*
X+4708840Y+7727840D01*
D21*
X+5100000Y+7992000D02*
X+5100000Y+7992000D01*
D24*
X+4986335Y+8097410D02*
X+5086665Y+8097410D01*
X+5086665Y+8210281D01*
X+5103387Y+8247905D02*
X+5103387Y+8360776D01*
X+4986335Y+8417211D02*
X+4986335Y+8492459D01*
X+4986335Y+8454835D02*
X+5086665Y+8454835D01*
X+5086665Y+8417211D02*
X+5086665Y+8492459D01*
X+5086665Y+8548895D02*
X+4986335Y+8548895D01*
X+4986335Y+8642954D01*
X+5003057Y+8661766D01*
X+5019778Y+8661766D01*
X+5036500Y+8642954D01*
X+5036500Y+8548895D01*
X+5036500Y+8642954D02*
X+5053222Y+8661766D01*
X+5086665Y+8661766D01*
D18*
X+21235840Y+7735840D02*
X+21891160Y+7735840D01*
X+21891160Y+8772160D01*
X+21235840Y+8772160D01*
X+21235840Y+7735840D01*
D21*
X+21500000Y+8508000D02*
X+21500000Y+8508000D01*
D25*
X+21589217Y+7792992D02*
X+21537782Y+7792992D01*
X+21537782Y+7841212D01*
X+21546355Y+7850856D01*
X+21554927Y+7850856D01*
X+21563500Y+7841212D01*
X+21563500Y+7792992D01*
X+21563500Y+7841212D02*
X+21572072Y+7850856D01*
X+21589217Y+7850856D01*
X+21537782Y+7879788D02*
X+21537782Y+7918364D01*
X+21537782Y+7899076D02*
X+21589217Y+7899076D01*
X+21589217Y+7879788D02*
X+21589217Y+7918364D01*
X+21572072Y+7985872D02*
X+21572072Y+8005160D01*
X+21589217Y+8005160D01*
X+21589217Y+7966584D01*
X+21572072Y+7947296D01*
X+21554927Y+7947296D01*
X+21537782Y+7966584D01*
X+21537782Y+7995516D01*
X+21546355Y+8005160D01*
X+21589217Y+8024448D02*
X+21537782Y+8024448D01*
X+21537782Y+8082312D02*
X+21589217Y+8082312D01*
X+21563500Y+8024448D02*
X+21563500Y+8082312D01*
X+21537782Y+8101600D02*
X+21537782Y+8159464D01*
X+21537782Y+8130532D02*
X+21589217Y+8130532D01*
X+21597790Y+8178752D02*
X+21597790Y+8236616D01*
X+21537782Y+8265548D02*
X+21537782Y+8304124D01*
X+21537782Y+8284836D02*
X+21589217Y+8284836D01*
X+21589217Y+8265548D02*
X+21589217Y+8304124D01*
X+21589217Y+8333056D02*
X+21537782Y+8333056D01*
X+21537782Y+8381276D01*
X+21546355Y+8390920D01*
X+21554927Y+8390920D01*
X+21563500Y+8381276D01*
X+21563500Y+8333056D01*
X+21563500Y+8381276D02*
X+21572072Y+8390920D01*
X+21589217Y+8390920D01*
D18*
X+7699340Y+8395840D02*
X+8291160Y+8395840D01*
X+8291160Y+8987660D01*
X+7699340Y+8987660D01*
X+7699340Y+8395840D01*
D21*
X+8154000Y+8660000D02*
X+8154000Y+8660000D01*
D26*
X+7921937Y+8434581D02*
X+7890764Y+8434581D01*
X+7890764Y+8469649D02*
X+7921937Y+8469649D01*
X+7906350Y+8434581D02*
X+7906350Y+8469649D01*
X+7921937Y+8516407D02*
X+7921937Y+8481339D01*
X+7890764Y+8481339D01*
X+7890764Y+8516407D01*
X+7906350Y+8481339D02*
X+7906350Y+8504718D01*
X+7921937Y+8528097D02*
X+7901155Y+8528097D01*
X+7890764Y+8539786D01*
X+7890764Y+8551476D01*
X+7901155Y+8563165D01*
X+7921937Y+8563165D01*
X+7911546Y+8528097D02*
X+7911546Y+8563165D01*
X+7921937Y+8574855D02*
X+7890764Y+8574855D01*
X+7890764Y+8598234D01*
X+7901155Y+8609923D01*
X+7911546Y+8609923D01*
X+7921937Y+8598234D01*
X+7921937Y+8574855D01*
X+7927132Y+8621613D02*
X+7927132Y+8656681D01*
X+7890764Y+8668371D02*
X+7921937Y+8668371D01*
X+7921937Y+8703439D01*
X+7890764Y+8720973D02*
X+7890764Y+8744352D01*
X+7890764Y+8732663D02*
X+7921937Y+8732663D01*
X+7921937Y+8720973D02*
X+7921937Y+8744352D01*
X+7911546Y+8785266D02*
X+7911546Y+8796955D01*
X+7921937Y+8796955D01*
X+7921937Y+8773576D01*
X+7911546Y+8761887D01*
X+7901155Y+8761887D01*
X+7890764Y+8773576D01*
X+7890764Y+8791110D01*
X+7895960Y+8796955D01*
X+7921937Y+8808645D02*
X+7890764Y+8808645D01*
X+7890764Y+8843713D02*
X+7921937Y+8843713D01*
X+7906350Y+8808645D02*
X+7906350Y+8843713D01*
X+7890764Y+8855403D02*
X+7890764Y+8890471D01*
X+7890764Y+8872937D02*
X+7921937Y+8872937D01*
X+7901155Y+8913850D02*
X+7890764Y+8925540D01*
X+7921937Y+8925540D01*
D18*
X+17762840Y+8372340D02*
X+18354660Y+8372340D01*
X+18354660Y+8964160D01*
X+17762840Y+8964160D01*
X+17762840Y+8372340D01*
D21*
X+17900000Y+8700000D02*
X+17900000Y+8700000D01*
D26*
X+18163237Y+8411081D02*
X+18132064Y+8411081D01*
X+18132064Y+8446149D02*
X+18163237Y+8446149D01*
X+18147650Y+8411081D02*
X+18147650Y+8446149D01*
X+18163237Y+8492907D02*
X+18163237Y+8457839D01*
X+18132064Y+8457839D01*
X+18132064Y+8492907D01*
X+18147650Y+8457839D02*
X+18147650Y+8481218D01*
X+18163237Y+8504597D02*
X+18142455Y+8504597D01*
X+18132064Y+8516286D01*
X+18132064Y+8527976D01*
X+18142455Y+8539665D01*
X+18163237Y+8539665D01*
X+18152846Y+8504597D02*
X+18152846Y+8539665D01*
X+18163237Y+8551355D02*
X+18132064Y+8551355D01*
X+18132064Y+8574734D01*
X+18142455Y+8586423D01*
X+18152846Y+8586423D01*
X+18163237Y+8574734D01*
X+18163237Y+8551355D01*
X+18168432Y+8598113D02*
X+18168432Y+8633181D01*
X+18132064Y+8644871D02*
X+18163237Y+8644871D01*
X+18163237Y+8679939D01*
X+18132064Y+8697473D02*
X+18132064Y+8720852D01*
X+18132064Y+8709163D02*
X+18163237Y+8709163D01*
X+18163237Y+8697473D02*
X+18163237Y+8720852D01*
X+18152846Y+8761766D02*
X+18152846Y+8773455D01*
X+18163237Y+8773455D01*
X+18163237Y+8750076D01*
X+18152846Y+8738387D01*
X+18142455Y+8738387D01*
X+18132064Y+8750076D01*
X+18132064Y+8767610D01*
X+18137260Y+8773455D01*
X+18163237Y+8785145D02*
X+18132064Y+8785145D01*
X+18132064Y+8820213D02*
X+18163237Y+8820213D01*
X+18147650Y+8785145D02*
X+18147650Y+8820213D01*
X+18132064Y+8831903D02*
X+18132064Y+8866971D01*
X+18132064Y+8849437D02*
X+18163237Y+8849437D01*
X+18137260Y+8884505D02*
X+18132064Y+8890350D01*
X+18132064Y+8907884D01*
X+18137260Y+8913729D01*
X+18142455Y+8913729D01*
X+18147650Y+8907884D01*
X+18147650Y+8890350D01*
X+18152846Y+8884505D01*
X+18163237Y+8884505D01*
X+18163237Y+8913729D01*
D18*
X+17011100Y+7595100D02*
X+17188900Y+7595100D01*
X+17188900Y+8788900D01*
X+17011100Y+8788900D01*
X+17011100Y+7595100D01*
D27*
X+17100000Y+7684000D02*
X+17100000Y+7684000D01*
D28*
X+17133071Y+8155018D02*
X+17066930Y+8155018D01*
X+17066930Y+8217025D01*
X+17077953Y+8229427D01*
X+17088977Y+8229427D01*
X+17100000Y+8217025D01*
X+17100000Y+8155018D01*
X+17100000Y+8217025D02*
X+17111024Y+8229427D01*
X+17133071Y+8229427D01*
X+17077953Y+8266631D02*
X+17066930Y+8279033D01*
X+17066930Y+8316237D01*
X+17077953Y+8328639D01*
X+17088977Y+8328639D01*
X+17100000Y+8316237D01*
X+17111024Y+8328639D01*
X+17122048Y+8328639D01*
X+17133071Y+8316237D01*
X+17133071Y+8279033D01*
X+17122048Y+8266631D01*
X+17100000Y+8291434D02*
X+17100000Y+8316237D01*
D18*
X+15227840Y+7481840D02*
X+16264160Y+7481840D01*
X+16264160Y+8518160D01*
X+15227840Y+8518160D01*
X+15227840Y+7481840D01*
D29*
X+16000000Y+8000000D02*
X+16000000Y+8000000D01*
D72*
X+15631954Y+7563377D02*
X+15534926Y+7563377D01*
X+15534926Y+7654340D01*
X+15551097Y+7672532D01*
X+15567269Y+7672532D01*
X+15583440Y+7654340D01*
X+15599611Y+7672532D01*
X+15615783Y+7672532D01*
X+15631954Y+7654340D01*
X+15631954Y+7563377D01*
X+15583440Y+7563377D02*
X+15583440Y+7654340D01*
X+15534926Y+7708918D02*
X+15615783Y+7708918D01*
X+15631954Y+7727110D01*
X+15631954Y+7799881D01*
X+15615783Y+7818073D01*
X+15534926Y+7818073D01*
X+15534926Y+7854459D02*
X+15534926Y+7963614D01*
X+15631954Y+7854459D01*
X+15631954Y+7963614D01*
X+15534926Y+8000000D02*
X+15534926Y+8109155D01*
X+15631954Y+8000000D01*
X+15631954Y+8109155D01*
X+15631954Y+8254696D02*
X+15631954Y+8145541D01*
X+15534926Y+8145541D01*
X+15534926Y+8254696D01*
X+15583440Y+8145541D02*
X+15583440Y+8218311D01*
X+15631954Y+8291082D02*
X+15534926Y+8291082D01*
X+15534926Y+8382045D01*
X+15551097Y+8400237D01*
X+15567269Y+8400237D01*
X+15583440Y+8382045D01*
X+15583440Y+8291082D01*
X+15583440Y+8382045D02*
X+15599611Y+8400237D01*
X+15631954Y+8400237D01*
D18*
X+17008840Y-727660D02*
X+17600660Y-727660D01*
X+17600660Y-135840D01*
X+17008840Y-135840D01*
X+17008840Y-727660D01*
D21*
X+17146000Y-400000D02*
X+17146000Y-400000D01*
D73*
X+17410795Y-688925D02*
X+17376505Y-688925D01*
X+17376505Y-656779D01*
X+17382220Y-650349D01*
X+17387935Y-650349D01*
X+17393650Y-656779D01*
X+17393650Y-688925D01*
X+17393650Y-656779D02*
X+17399365Y-650349D01*
X+17410795Y-650349D01*
X+17410795Y-598914D02*
X+17410795Y-637490D01*
X+17376505Y-637490D01*
X+17376505Y-598914D01*
X+17393650Y-637490D02*
X+17393650Y-611773D01*
X+17410795Y-586055D02*
X+17376505Y-586055D01*
X+17376505Y-560338D01*
X+17387935Y-547479D01*
X+17399365Y-547479D01*
X+17410795Y-560338D01*
X+17410795Y-586055D01*
X+17416510Y-534620D02*
X+17416510Y-496044D01*
X+17376505Y-483185D02*
X+17410795Y-483185D01*
X+17410795Y-444609D01*
X+17376505Y-425321D02*
X+17376505Y-399604D01*
X+17376505Y-412462D02*
X+17410795Y-412462D01*
X+17410795Y-425321D02*
X+17410795Y-399604D01*
X+17399365Y-354598D02*
X+17399365Y-341739D01*
X+17410795Y-341739D01*
X+17410795Y-367457D01*
X+17399365Y-380315D01*
X+17387935Y-380315D01*
X+17376505Y-367457D01*
X+17376505Y-348169D01*
X+17382220Y-341739D01*
X+17410795Y-328880D02*
X+17376505Y-328880D01*
X+17376505Y-290304D02*
X+17410795Y-290304D01*
X+17393650Y-328880D02*
X+17393650Y-290304D01*
X+17376505Y-277445D02*
X+17376505Y-238869D01*
X+17376505Y-258157D02*
X+17410795Y-258157D01*
X+17387935Y-213152D02*
X+17376505Y-200293D01*
X+17410795Y-200293D01*
D18*
X+9162840Y-727660D02*
X+9754660Y-727660D01*
X+9754660Y-135840D01*
X+9162840Y-135840D01*
X+9162840Y-727660D01*
D21*
X+9300000Y-400000D02*
X+9300000Y-400000D01*
D73*
X+9564795Y-688925D02*
X+9530505Y-688925D01*
X+9530505Y-656779D01*
X+9536220Y-650349D01*
X+9541935Y-650349D01*
X+9547650Y-656779D01*
X+9547650Y-688925D01*
X+9547650Y-656779D02*
X+9553365Y-650349D01*
X+9564795Y-650349D01*
X+9564795Y-598914D02*
X+9564795Y-637490D01*
X+9530505Y-637490D01*
X+9530505Y-598914D01*
X+9547650Y-637490D02*
X+9547650Y-611773D01*
X+9564795Y-586055D02*
X+9530505Y-586055D01*
X+9530505Y-560338D01*
X+9541935Y-547479D01*
X+9553365Y-547479D01*
X+9564795Y-560338D01*
X+9564795Y-586055D01*
X+9570510Y-534620D02*
X+9570510Y-496044D01*
X+9530505Y-483185D02*
X+9564795Y-483185D01*
X+9564795Y-444609D01*
X+9530505Y-425321D02*
X+9530505Y-399604D01*
X+9530505Y-412462D02*
X+9564795Y-412462D01*
X+9564795Y-425321D02*
X+9564795Y-399604D01*
X+9553365Y-354598D02*
X+9553365Y-341739D01*
X+9564795Y-341739D01*
X+9564795Y-367457D01*
X+9553365Y-380315D01*
X+9541935Y-380315D01*
X+9530505Y-367457D01*
X+9530505Y-348169D01*
X+9536220Y-341739D01*
X+9564795Y-328880D02*
X+9530505Y-328880D01*
X+9530505Y-290304D02*
X+9564795Y-290304D01*
X+9547650Y-328880D02*
X+9547650Y-290304D01*
X+9530505Y-277445D02*
X+9530505Y-238869D01*
X+9530505Y-258157D02*
X+9564795Y-258157D01*
X+9536220Y-219581D02*
X+9530505Y-213152D01*
X+9530505Y-193864D01*
X+9536220Y-187434D01*
X+9541935Y-187434D01*
X+9547650Y-193864D01*
X+9547650Y-213152D01*
X+9553365Y-219581D01*
X+9564795Y-219581D01*
X+9564795Y-187434D01*
D18*
X+13111100Y+911100D02*
X+13288900Y+911100D01*
X+13288900Y+2104900D01*
X+13111100Y+2104900D01*
X+13111100Y+911100D01*
D27*
X+13200000Y+1000000D02*
X+13200000Y+1000000D01*
D28*
X+13233071Y+1471018D02*
X+13166930Y+1471018D01*
X+13166930Y+1533025D01*
X+13177953Y+1545427D01*
X+13188977Y+1545427D01*
X+13200000Y+1533025D01*
X+13200000Y+1471018D01*
X+13200000Y+1533025D02*
X+13211024Y+1545427D01*
X+13233071Y+1545427D01*
X+13177953Y+1582631D02*
X+13166930Y+1595033D01*
X+13166930Y+1632237D01*
X+13177953Y+1644639D01*
X+13188977Y+1644639D01*
X+13200000Y+1632237D01*
X+13200000Y+1595033D01*
X+13211024Y+1582631D01*
X+13233071Y+1582631D01*
X+13233071Y+1644639D01*
D18*
X+9127840Y+508840D02*
X+10418160Y+508840D01*
X+10418160Y+1164160D01*
X+9127840Y+1164160D01*
X+9127840Y+508840D01*
D21*
X+10154000Y+900000D02*
X+10154000Y+900000D01*
D23*
X+9195790Y+808179D02*
X+9195790Y+864821D01*
X+9238271Y+864821D01*
X+9259511Y+845940D01*
X+9259511Y+827060D01*
X+9238271Y+808179D01*
X+9195790Y+808179D01*
X+9344473Y+808179D02*
X+9280752Y+808179D01*
X+9280752Y+864821D01*
X+9344473Y+864821D01*
X+9280752Y+836500D02*
X+9323233Y+836500D01*
X+9365714Y+808179D02*
X+9365714Y+864821D01*
X+9418815Y+864821D01*
X+9429435Y+855381D01*
X+9429435Y+845940D01*
X+9418815Y+836500D01*
X+9429435Y+827060D01*
X+9429435Y+817619D01*
X+9418815Y+808179D01*
X+9365714Y+808179D01*
X+9365714Y+836500D02*
X+9418815Y+836500D01*
X+9450676Y+864821D02*
X+9450676Y+817619D01*
X+9461296Y+808179D01*
X+9503777Y+808179D01*
X+9514397Y+817619D01*
X+9514397Y+864821D01*
X+9578119Y+827060D02*
X+9599359Y+827060D01*
X+9599359Y+808179D01*
X+9556878Y+808179D01*
X+9535638Y+827060D01*
X+9535638Y+845940D01*
X+9556878Y+864821D01*
X+9588739Y+864821D01*
X+9599359Y+855381D01*
X+9663081Y+827060D02*
X+9684321Y+827060D01*
X+9684321Y+808179D01*
X+9641840Y+808179D01*
X+9620600Y+827060D01*
X+9620600Y+845940D01*
X+9641840Y+864821D01*
X+9673701Y+864821D01*
X+9684321Y+855381D01*
X+9769283Y+808179D02*
X+9705562Y+808179D01*
X+9705562Y+864821D01*
X+9769283Y+864821D01*
X+9705562Y+836500D02*
X+9748043Y+836500D01*
X+9790524Y+808179D02*
X+9790524Y+864821D01*
X+9843625Y+864821D01*
X+9854245Y+855381D01*
X+9854245Y+845940D01*
X+9843625Y+836500D01*
X+9790524Y+836500D01*
X+9843625Y+836500D02*
X+9854245Y+827060D01*
X+9854245Y+808179D01*
X+9875486Y+798739D02*
X+9939207Y+798739D01*
X+9960448Y+817619D02*
X+9971068Y+808179D01*
X+10013549Y+808179D01*
X+10024169Y+817619D01*
X+10024169Y+827060D01*
X+10013549Y+836500D01*
X+9971068Y+836500D01*
X+9960448Y+845940D01*
X+9960448Y+855381D01*
X+9971068Y+864821D01*
X+10013549Y+864821D01*
X+10024169Y+855381D01*
D18*
X+15787840Y+608840D02*
X+17078160Y+608840D01*
X+17078160Y+1264160D01*
X+15787840Y+1264160D01*
X+15787840Y+608840D01*
D21*
X+16814000Y+1000000D02*
X+16814000Y+1000000D01*
D30*
X+15856655Y+905096D02*
X+15856655Y+967903D01*
X+15903760Y+967903D01*
X+15927312Y+946967D01*
X+15927312Y+926032D01*
X+15903760Y+905096D01*
X+15856655Y+905096D01*
X+16021522Y+905096D02*
X+15950865Y+905096D01*
X+15950865Y+967903D01*
X+16021522Y+967903D01*
X+15950865Y+936500D02*
X+15997970Y+936500D01*
X+16045075Y+905096D02*
X+16045075Y+967903D01*
X+16103956Y+967903D01*
X+16115732Y+957435D01*
X+16115732Y+946967D01*
X+16103956Y+936500D01*
X+16115732Y+926032D01*
X+16115732Y+915564D01*
X+16103956Y+905096D01*
X+16045075Y+905096D01*
X+16045075Y+936500D02*
X+16103956Y+936500D01*
X+16139285Y+967903D02*
X+16139285Y+915564D01*
X+16151061Y+905096D01*
X+16198166Y+905096D01*
X+16209942Y+915564D01*
X+16209942Y+967903D01*
X+16280600Y+926032D02*
X+16304152Y+926032D01*
X+16304152Y+905096D01*
X+16257047Y+905096D01*
X+16233495Y+926032D01*
X+16233495Y+946967D01*
X+16257047Y+967903D01*
X+16292376Y+967903D01*
X+16304152Y+957435D01*
X+16374810Y+926032D02*
X+16398362Y+926032D01*
X+16398362Y+905096D01*
X+16351257Y+905096D01*
X+16327705Y+926032D01*
X+16327705Y+946967D01*
X+16351257Y+967903D01*
X+16386586Y+967903D01*
X+16398362Y+957435D01*
X+16421915Y+905096D02*
X+16421915Y+967903D01*
X+16480796Y+967903D01*
X+16492572Y+957435D01*
X+16492572Y+946967D01*
X+16480796Y+936500D01*
X+16421915Y+936500D01*
X+16480796Y+936500D02*
X+16492572Y+926032D01*
X+16492572Y+905096D01*
X+16516125Y+894628D02*
X+16586782Y+894628D01*
X+16610335Y+905096D02*
X+16610335Y+967903D01*
X+16645663Y+936500D01*
X+16680992Y+967903D01*
X+16680992Y+905096D01*
D18*
X+11671840Y-404160D02*
X+13470160Y-404160D01*
X+13470160Y+251160D01*
X+11671840Y+251160D01*
X+11671840Y-404160D01*
D21*
X+11936000Y-140000D02*
X+11936000Y-140000D01*
D31*
X+12355354Y-117394D02*
X+12355354Y-158288D01*
X+12401359Y-199182D01*
X+12585382Y-199182D01*
X+12631388Y-158288D01*
X+12631388Y+46182D01*
X+12769405Y+5288D02*
X+12815411Y+46182D01*
X+12953428Y+46182D01*
X+12999434Y+5288D01*
X+12999434Y-35606D01*
X+12953428Y-76500D01*
X+12999434Y-117394D01*
X+12999434Y-158288D01*
X+12953428Y-199182D01*
X+12815411Y-199182D01*
X+12769405Y-158288D01*
X+12861417Y-76500D02*
X+12953428Y-76500D01*
D18*
X+9867474Y+7757974D02*
X+10551526Y+7757974D01*
X+10551526Y+8442026D01*
X+9867474Y+8442026D01*
X+9867474Y+7757974D01*
D27*
X+10019000Y+8100000D02*
X+10019000Y+8100000D01*
D32*
X+10253263Y+7801322D02*
X+10352823Y+7801322D01*
X+10352823Y+7913326D01*
X+10352823Y+7950661D02*
X+10253263Y+7950661D01*
X+10253263Y+8025330D01*
X+10286450Y+8062665D01*
X+10319636Y+8062665D01*
X+10352823Y+8025330D01*
X+10352823Y+7950661D01*
X+10352823Y+8100000D02*
X+10253263Y+8100000D01*
X+10253263Y+8193336D01*
X+10269856Y+8212004D01*
X+10286450Y+8212004D01*
X+10303043Y+8193336D01*
X+10303043Y+8100000D01*
X+10303043Y+8193336D02*
X+10319636Y+8212004D01*
X+10352823Y+8212004D01*
X+10286450Y+8286673D02*
X+10253263Y+8324008D01*
X+10352823Y+8324008D01*
D18*
X+10841840Y-364160D02*
X+11624160Y-364160D01*
X+11624160Y+291160D01*
X+10841840Y+291160D01*
X+10841840Y-364160D01*
D21*
X+11106000Y-100000D02*
X+11106000Y-100000D01*
D33*
X+11395983Y-322241D02*
X+11374817Y-322241D01*
X+11385400Y-310336D01*
X+11374817Y-298430D01*
X+11395983Y-298430D01*
X+11381872Y-290492D02*
X+11374817Y-282555D01*
X+11374817Y-274618D01*
X+11381872Y-266681D01*
X+11388928Y-266681D01*
X+11395983Y-274618D01*
X+11395983Y-282555D01*
X+11388928Y-290492D01*
X+11381872Y-290492D01*
X+11374817Y-258743D02*
X+11374817Y-234932D01*
X+11374817Y-246838D02*
X+11395983Y-246838D01*
X+11381872Y-226994D02*
X+11374817Y-219057D01*
X+11374817Y-211120D01*
X+11381872Y-203183D01*
X+11388928Y-203183D01*
X+11395983Y-211120D01*
X+11395983Y-219057D01*
X+11388928Y-226994D01*
X+11381872Y-226994D01*
X+11395983Y-195245D02*
X+11374817Y-195245D01*
X+11374817Y-175402D01*
X+11378345Y-171434D01*
X+11381872Y-171434D01*
X+11385400Y-175402D01*
X+11385400Y-195245D01*
X+11385400Y-175402D02*
X+11388928Y-171434D01*
X+11395983Y-171434D01*
X+11399511Y-163496D02*
X+11399511Y-139685D01*
X+11395983Y-131747D02*
X+11374817Y-131747D01*
X+11374817Y-115873D01*
X+11381872Y-107936D01*
X+11388928Y-107936D01*
X+11395983Y-115873D01*
X+11395983Y-131747D01*
X+11395983Y-99998D02*
X+11374817Y-99998D01*
X+11374817Y-80155D01*
X+11378345Y-76187D01*
X+11381872Y-76187D01*
X+11385400Y-80155D01*
X+11385400Y-99998D01*
X+11385400Y-80155D02*
X+11388928Y-76187D01*
X+11395983Y-76187D01*
X+11374817Y-64281D02*
X+11374817Y-48406D01*
X+11374817Y-56344D02*
X+11395983Y-56344D01*
X+11395983Y-64281D02*
X+11395983Y-48406D01*
X+11374817Y-36500D02*
X+11385400Y-36500D01*
X+11395983Y-24595D01*
X+11385400Y-12689D01*
X+11374817Y-12689D01*
X+11395983Y+19060D02*
X+11395983Y-4751D01*
X+11374817Y-4751D01*
X+11374817Y+19060D01*
X+11385400Y-4751D02*
X+11385400Y+11123D01*
X+11395983Y+26998D02*
X+11374817Y+26998D01*
X+11374817Y+46841D01*
X+11378345Y+50809D01*
X+11381872Y+50809D01*
X+11385400Y+46841D01*
X+11385400Y+26998D01*
X+11385400Y+46841D02*
X+11388928Y+50809D01*
X+11395983Y+50809D01*
X+11399511Y+58747D02*
X+11399511Y+82558D01*
X+11374817Y+90496D02*
X+11395983Y+90496D01*
X+11395983Y+114307D01*
X+11381872Y+122245D02*
X+11374817Y+130182D01*
X+11374817Y+138119D01*
X+11381872Y+146056D01*
X+11388928Y+146056D01*
X+11395983Y+138119D01*
X+11395983Y+130182D01*
X+11388928Y+122245D01*
X+11381872Y+122245D01*
X+11388928Y+169868D02*
X+11388928Y+177805D01*
X+11395983Y+177805D01*
X+11395983Y+161931D01*
X+11388928Y+153994D01*
X+11381872Y+153994D01*
X+11374817Y+161931D01*
X+11374817Y+173837D01*
X+11378345Y+177805D01*
X+11374817Y+189711D02*
X+11374817Y+205586D01*
X+11374817Y+197648D02*
X+11395983Y+197648D01*
X+11395983Y+189711D02*
X+11395983Y+205586D01*
X+11392455Y+241303D02*
X+11395983Y+237335D01*
X+11395983Y+225429D01*
X+11388928Y+217492D01*
X+11381872Y+217492D01*
X+11374817Y+225429D01*
X+11374817Y+237335D01*
X+11378345Y+241303D01*
D18*
X+9111100Y+7095100D02*
X+9288900Y+7095100D01*
X+9288900Y+8288900D01*
X+9111100Y+8288900D01*
X+9111100Y+7095100D01*
D27*
X+9200000Y+8200000D02*
X+9200000Y+8200000D01*
D28*
X+9233071Y+7530558D02*
X+9166930Y+7530558D01*
X+9166930Y+7592565D01*
X+9177953Y+7604967D01*
X+9188977Y+7604967D01*
X+9200000Y+7592565D01*
X+9200000Y+7530558D01*
X+9200000Y+7592565D02*
X+9211024Y+7604967D01*
X+9233071Y+7604967D01*
X+9188977Y+7654573D02*
X+9166930Y+7679376D01*
X+9233071Y+7679376D01*
D18*
X+12808840Y+2281840D02*
X+13464160Y+2281840D01*
X+13464160Y+3064160D01*
X+12808840Y+3064160D01*
X+12808840Y+2281840D01*
D21*
X+13200000Y+2546000D02*
X+13200000Y+2546000D01*
D34*
X+12850752Y+2849213D02*
X+12850752Y+2801588D01*
X+12904329Y+2801588D01*
X+12922189Y+2801588D02*
X+12922189Y+2849213D01*
X+12957907Y+2849213D01*
X+12975766Y+2833338D01*
X+12975766Y+2817463D01*
X+12957907Y+2801588D01*
X+12922189Y+2801588D01*
X+12993626Y+2801588D02*
X+12993626Y+2849213D01*
X+13038274Y+2849213D01*
X+13047203Y+2841275D01*
X+13047203Y+2833338D01*
X+13038274Y+2825400D01*
X+12993626Y+2825400D01*
X+13038274Y+2825400D02*
X+13047203Y+2817463D01*
X+13047203Y+2801588D01*
X+13065063Y+2793650D02*
X+13118640Y+2793650D01*
X+13136500Y+2817463D02*
X+13136500Y+2809525D01*
X+13145429Y+2801588D01*
X+13181148Y+2801588D01*
X+13190077Y+2809525D01*
X+13190077Y+2849213D01*
X+13207937Y+2801588D02*
X+13207937Y+2849213D01*
X+13234725Y+2825400D01*
X+13261514Y+2849213D01*
X+13261514Y+2801588D01*
X+13279374Y+2801588D02*
X+13279374Y+2849213D01*
X+13324022Y+2849213D01*
X+13332951Y+2841275D01*
X+13332951Y+2833338D01*
X+13324022Y+2825400D01*
X+13279374Y+2825400D01*
X+13350811Y+2801588D02*
X+13350811Y+2849213D01*
X+13395459Y+2849213D01*
X+13404388Y+2841275D01*
X+13404388Y+2833338D01*
X+13395459Y+2825400D01*
X+13350811Y+2825400D01*
X+13395459Y+2825400D02*
X+13404388Y+2817463D01*
X+13404388Y+2801588D01*
D18*
X+12808840Y+3381840D02*
X+13464160Y+3381840D01*
X+13464160Y+4164160D01*
X+12808840Y+4164160D01*
X+12808840Y+3381840D01*
D21*
X+13200000Y+3646000D02*
X+13200000Y+3646000D01*
D35*
X+12850756Y+3941274D02*
X+12850756Y+3909525D01*
X+12886474Y+3909525D01*
X+12934098Y+3909525D02*
X+12898380Y+3909525D01*
X+12898380Y+3941274D01*
X+12934098Y+3941274D01*
X+12898380Y+3925400D02*
X+12922192Y+3925400D01*
X+12946004Y+3909525D02*
X+12946004Y+3941274D01*
X+12981722Y+3941274D01*
X+12946004Y+3925400D02*
X+12969816Y+3925400D01*
X+12993628Y+3941274D02*
X+13029346Y+3941274D01*
X+13011487Y+3941274D02*
X+13011487Y+3909525D01*
X+13041252Y+3904233D02*
X+13076970Y+3904233D01*
X+13094829Y+3941274D02*
X+13118641Y+3941274D01*
X+13106735Y+3941274D02*
X+13106735Y+3909525D01*
X+13094829Y+3909525D02*
X+13118641Y+3909525D01*
X+13136500Y+3909525D02*
X+13136500Y+3941274D01*
X+13166265Y+3941274D01*
X+13172218Y+3935983D01*
X+13172218Y+3930691D01*
X+13166265Y+3925400D01*
X+13136500Y+3925400D01*
X+13166265Y+3925400D02*
X+13172218Y+3920108D01*
X+13172218Y+3909525D01*
X+13184124Y+3904233D02*
X+13219842Y+3904233D01*
X+13231748Y+3920108D02*
X+13231748Y+3914816D01*
X+13237701Y+3909525D01*
X+13261513Y+3909525D01*
X+13267466Y+3914816D01*
X+13267466Y+3941274D01*
X+13279372Y+3909525D02*
X+13279372Y+3941274D01*
X+13297231Y+3925400D01*
X+13315090Y+3941274D01*
X+13315090Y+3909525D01*
X+13326996Y+3909525D02*
X+13326996Y+3941274D01*
X+13356761Y+3941274D01*
X+13362714Y+3935983D01*
X+13362714Y+3930691D01*
X+13356761Y+3925400D01*
X+13326996Y+3925400D01*
X+13374620Y+3909525D02*
X+13374620Y+3941274D01*
X+13404385Y+3941274D01*
X+13410338Y+3935983D01*
X+13410338Y+3930691D01*
X+13404385Y+3925400D01*
X+13374620Y+3925400D01*
X+13404385Y+3925400D02*
X+13410338Y+3920108D01*
X+13410338Y+3909525D01*
D18*
X+12808840Y+4481840D02*
X+13464160Y+4481840D01*
X+13464160Y+5264160D01*
X+12808840Y+5264160D01*
X+12808840Y+4481840D01*
D21*
X+13200000Y+4746000D02*
X+13200000Y+4746000D01*
D36*
X+12850754Y+5010746D02*
X+12850754Y+5040053D01*
X+12878229Y+5040053D01*
X+12883724Y+5035169D01*
X+12883724Y+5030284D01*
X+12878229Y+5025400D01*
X+12850754Y+5025400D01*
X+12878229Y+5025400D02*
X+12883724Y+5020515D01*
X+12883724Y+5010746D01*
X+12900210Y+5040053D02*
X+12922190Y+5040053D01*
X+12911200Y+5040053D02*
X+12911200Y+5010746D01*
X+12900210Y+5010746D02*
X+12922190Y+5010746D01*
X+12960656Y+5020515D02*
X+12971646Y+5020515D01*
X+12971646Y+5010746D01*
X+12949666Y+5010746D01*
X+12938676Y+5020515D01*
X+12938676Y+5030284D01*
X+12949666Y+5040053D01*
X+12966151Y+5040053D01*
X+12971646Y+5035169D01*
X+12982637Y+5010746D02*
X+12982637Y+5040053D01*
X+13015607Y+5040053D02*
X+13015607Y+5010746D01*
X+12982637Y+5025400D02*
X+13015607Y+5025400D01*
X+13026598Y+5040053D02*
X+13059568Y+5040053D01*
X+13043083Y+5040053D02*
X+13043083Y+5010746D01*
X+13070559Y+5005861D02*
X+13103529Y+5005861D01*
X+13120015Y+5040053D02*
X+13141995Y+5040053D01*
X+13131005Y+5040053D02*
X+13131005Y+5010746D01*
X+13120015Y+5010746D02*
X+13141995Y+5010746D01*
X+13158481Y+5010746D02*
X+13158481Y+5040053D01*
X+13185956Y+5040053D01*
X+13191451Y+5035169D01*
X+13191451Y+5030284D01*
X+13185956Y+5025400D01*
X+13158481Y+5025400D01*
X+13185956Y+5025400D02*
X+13191451Y+5020515D01*
X+13191451Y+5010746D01*
X+13202442Y+5005861D02*
X+13235412Y+5005861D01*
X+13246403Y+5020515D02*
X+13246403Y+5015630D01*
X+13251898Y+5010746D01*
X+13273878Y+5010746D01*
X+13279373Y+5015630D01*
X+13279373Y+5040053D01*
X+13290364Y+5010746D02*
X+13290364Y+5040053D01*
X+13306849Y+5025400D01*
X+13323334Y+5040053D01*
X+13323334Y+5010746D01*
X+13334325Y+5010746D02*
X+13334325Y+5040053D01*
X+13361800Y+5040053D01*
X+13367295Y+5035169D01*
X+13367295Y+5030284D01*
X+13361800Y+5025400D01*
X+13334325Y+5025400D01*
X+13378286Y+5010746D02*
X+13378286Y+5040053D01*
X+13405761Y+5040053D01*
X+13411256Y+5035169D01*
X+13411256Y+5030284D01*
X+13405761Y+5025400D01*
X+13378286Y+5025400D01*
X+13405761Y+5025400D02*
X+13411256Y+5020515D01*
X+13411256Y+5010746D01*
D18*
X+12808840Y+5627840D02*
X+13464160Y+5627840D01*
X+13464160Y+6664160D01*
X+12808840Y+6664160D01*
X+12808840Y+5627840D01*
D21*
X+13200000Y+5892000D02*
X+13200000Y+5892000D01*
D37*
X+13125461Y+5983808D02*
X+13143859Y+5983808D01*
X+13147538Y+5987947D01*
X+13147538Y+6004504D01*
X+13143859Y+6008644D01*
X+13125461Y+6008644D01*
X+13143859Y+6016923D02*
X+13147538Y+6021062D01*
X+13147538Y+6037619D01*
X+13143859Y+6041759D01*
X+13140179Y+6041759D01*
X+13136500Y+6037619D01*
X+13136500Y+6021062D01*
X+13132820Y+6016923D01*
X+13129141Y+6016923D01*
X+13125461Y+6021062D01*
X+13125461Y+6037619D01*
X+13129141Y+6041759D01*
X+13151218Y+6050038D02*
X+13151218Y+6074874D01*
X+13147538Y+6083153D02*
X+13125461Y+6083153D01*
X+13125461Y+6103849D01*
X+13129141Y+6107989D01*
X+13132820Y+6107989D01*
X+13136500Y+6103849D01*
X+13136500Y+6083153D01*
X+13136500Y+6103849D02*
X+13140179Y+6107989D01*
X+13147538Y+6107989D01*
X+13125461Y+6116268D02*
X+13147538Y+6141104D01*
X+13147538Y+6116268D02*
X+13125461Y+6141104D01*
X+13125461Y+6174219D02*
X+13147538Y+6149383D01*
X+13143859Y+6182498D02*
X+13147538Y+6186637D01*
X+13147538Y+6203194D01*
X+13143859Y+6207334D01*
X+13140179Y+6207334D01*
X+13136500Y+6203194D01*
X+13136500Y+6186637D01*
X+13132820Y+6182498D01*
X+13129141Y+6182498D01*
X+13125461Y+6186637D01*
X+13125461Y+6203194D01*
X+13129141Y+6207334D01*
X+13125461Y+6215613D02*
X+13147538Y+6215613D01*
X+13147538Y+6240449D01*
X+13147538Y+6248728D02*
X+13132820Y+6248728D01*
X+13125461Y+6257006D01*
X+13125461Y+6265285D01*
X+13132820Y+6273564D01*
X+13147538Y+6273564D01*
X+13140179Y+6248728D02*
X+13140179Y+6273564D01*
X+13125461Y+6281843D02*
X+13136500Y+6281843D01*
X+13147538Y+6294261D01*
X+13136500Y+6306679D01*
X+13125461Y+6306679D01*
X+13147538Y+6339794D02*
X+13147538Y+6314958D01*
X+13125461Y+6314958D01*
X+13125461Y+6339794D01*
X+13136500Y+6314958D02*
X+13136500Y+6331515D01*
X+13151218Y+6348073D02*
X+13151218Y+6372909D01*
X+13125461Y+6381188D02*
X+13125461Y+6406024D01*
X+13125461Y+6393606D02*
X+13147538Y+6393606D01*
X+13125461Y+6414303D02*
X+13147538Y+6439139D01*
X+13147538Y+6414303D02*
X+13125461Y+6439139D01*
X+13151218Y+6447418D02*
X+13151218Y+6472254D01*
X+13140179Y+6480533D02*
X+13143859Y+6480533D01*
X+13147538Y+6484672D01*
X+13147538Y+6501229D01*
X+13143859Y+6505369D01*
X+13125461Y+6505369D01*
X+13147538Y+6513648D02*
X+13125461Y+6513648D01*
X+13136500Y+6526066D01*
X+13125461Y+6538484D01*
X+13147538Y+6538484D01*
X+13147538Y+6546763D02*
X+13125461Y+6546763D01*
X+13125461Y+6567459D01*
X+13129141Y+6571599D01*
X+13132820Y+6571599D01*
X+13136500Y+6567459D01*
X+13136500Y+6546763D01*
X+13147538Y+6579878D02*
X+13125461Y+6579878D01*
X+13125461Y+6600574D01*
X+13129141Y+6604714D01*
X+13132820Y+6604714D01*
X+13136500Y+6600574D01*
X+13136500Y+6579878D01*
X+13136500Y+6600574D02*
X+13140179Y+6604714D01*
X+13147538Y+6604714D01*
D18*
X+12808840Y+7035840D02*
X+13464160Y+7035840D01*
X+13464160Y+8072160D01*
X+12808840Y+8072160D01*
X+12808840Y+7035840D01*
D21*
X+13200000Y+7300000D02*
X+13200000Y+7300000D01*
D37*
X+13125461Y+7391808D02*
X+13143859Y+7391808D01*
X+13147538Y+7395947D01*
X+13147538Y+7412504D01*
X+13143859Y+7416644D01*
X+13125461Y+7416644D01*
X+13143859Y+7424923D02*
X+13147538Y+7429062D01*
X+13147538Y+7445619D01*
X+13143859Y+7449759D01*
X+13140179Y+7449759D01*
X+13136500Y+7445619D01*
X+13136500Y+7429062D01*
X+13132820Y+7424923D01*
X+13129141Y+7424923D01*
X+13125461Y+7429062D01*
X+13125461Y+7445619D01*
X+13129141Y+7449759D01*
X+13151218Y+7458038D02*
X+13151218Y+7482874D01*
X+13125461Y+7491153D02*
X+13125461Y+7515989D01*
X+13125461Y+7503571D02*
X+13147538Y+7503571D01*
X+13125461Y+7524268D02*
X+13147538Y+7549104D01*
X+13147538Y+7524268D02*
X+13125461Y+7549104D01*
X+13125461Y+7582219D02*
X+13147538Y+7557383D01*
X+13143859Y+7590498D02*
X+13147538Y+7594637D01*
X+13147538Y+7611194D01*
X+13143859Y+7615334D01*
X+13140179Y+7615334D01*
X+13136500Y+7611194D01*
X+13136500Y+7594637D01*
X+13132820Y+7590498D01*
X+13129141Y+7590498D01*
X+13125461Y+7594637D01*
X+13125461Y+7611194D01*
X+13129141Y+7615334D01*
X+13125461Y+7623613D02*
X+13147538Y+7623613D01*
X+13147538Y+7648449D01*
X+13147538Y+7656728D02*
X+13132820Y+7656728D01*
X+13125461Y+7665006D01*
X+13125461Y+7673285D01*
X+13132820Y+7681564D01*
X+13147538Y+7681564D01*
X+13140179Y+7656728D02*
X+13140179Y+7681564D01*
X+13125461Y+7689843D02*
X+13136500Y+7689843D01*
X+13147538Y+7702261D01*
X+13136500Y+7714679D01*
X+13125461Y+7714679D01*
X+13147538Y+7747794D02*
X+13147538Y+7722958D01*
X+13125461Y+7722958D01*
X+13125461Y+7747794D01*
X+13136500Y+7722958D02*
X+13136500Y+7739515D01*
X+13151218Y+7756073D02*
X+13151218Y+7780909D01*
X+13147538Y+7789188D02*
X+13125461Y+7789188D01*
X+13125461Y+7809884D01*
X+13129141Y+7814024D01*
X+13132820Y+7814024D01*
X+13136500Y+7809884D01*
X+13136500Y+7789188D01*
X+13136500Y+7809884D02*
X+13140179Y+7814024D01*
X+13147538Y+7814024D01*
X+13125461Y+7822303D02*
X+13147538Y+7847139D01*
X+13147538Y+7822303D02*
X+13125461Y+7847139D01*
X+13151218Y+7855418D02*
X+13151218Y+7880254D01*
X+13140179Y+7888533D02*
X+13143859Y+7888533D01*
X+13147538Y+7892672D01*
X+13147538Y+7909229D01*
X+13143859Y+7913369D01*
X+13125461Y+7913369D01*
X+13147538Y+7921648D02*
X+13125461Y+7921648D01*
X+13136500Y+7934066D01*
X+13125461Y+7946484D01*
X+13147538Y+7946484D01*
X+13147538Y+7954763D02*
X+13125461Y+7954763D01*
X+13125461Y+7975459D01*
X+13129141Y+7979599D01*
X+13132820Y+7979599D01*
X+13136500Y+7975459D01*
X+13136500Y+7954763D01*
X+13147538Y+7987878D02*
X+13125461Y+7987878D01*
X+13125461Y+8008574D01*
X+13129141Y+8012714D01*
X+13132820Y+8012714D01*
X+13136500Y+8008574D01*
X+13136500Y+7987878D01*
X+13136500Y+8008574D02*
X+13140179Y+8012714D01*
X+13147538Y+8012714D01*
D17*
X+4800000Y+9200000D02*
X+21800000Y+9200000D01*
X+21800000Y+7200000D01*
X+4800000Y+9200000D02*
X+4800000Y+7200000D01*
X+9000000Y+7200000D01*
X+21800000Y+7200000D02*
X+17600000Y+7200000D01*
X+17600000Y-800000D01*
X+9000000Y+7200000D02*
X+9000000Y-800000D01*
X+17600000Y-800000D01*
D18*
X+15631840Y-564160D02*
X+16668160Y-564160D01*
X+16668160Y+91160D01*
X+15631840Y+91160D01*
X+15631840Y-564160D01*
D21*
X+15896000Y-300000D02*
X+15896000Y-300000D01*
D38*
X+16104281Y-302540D02*
X+16104281Y-170460D01*
X+16228105Y-170460D01*
X+16252870Y-192473D01*
X+16252870Y-214487D01*
X+16228105Y-236500D01*
X+16104281Y-236500D01*
X+16327164Y-170460D02*
X+16426224Y-170460D01*
X+16376694Y-170460D02*
X+16376694Y-302540D01*
X+16327164Y-302540D02*
X+16426224Y-302540D01*
D18*
X+13873840Y+408840D02*
X+15164160Y+408840D01*
X+15164160Y+1064160D01*
X+13873840Y+1064160D01*
X+13873840Y+408840D01*
D21*
X+14900000Y+800000D02*
X+14900000Y+800000D01*
D30*
X+13942655Y+705096D02*
X+13942655Y+767903D01*
X+14001536Y+767903D01*
X+14013312Y+757435D01*
X+14013312Y+746967D01*
X+14001536Y+736500D01*
X+14013312Y+726032D01*
X+14013312Y+715564D01*
X+14001536Y+705096D01*
X+13942655Y+705096D01*
X+13942655Y+736500D02*
X+14001536Y+736500D01*
X+14036865Y+767903D02*
X+14036865Y+705096D01*
X+14107522Y+705096D01*
X+14131075Y+767903D02*
X+14131075Y+715564D01*
X+14142851Y+705096D01*
X+14189956Y+705096D01*
X+14201732Y+715564D01*
X+14201732Y+767903D01*
X+14295942Y+705096D02*
X+14225285Y+705096D01*
X+14225285Y+767903D01*
X+14295942Y+767903D01*
X+14225285Y+736500D02*
X+14272390Y+736500D01*
X+14319495Y+767903D02*
X+14390152Y+767903D01*
X+14354823Y+767903D02*
X+14354823Y+705096D01*
X+14413705Y+746967D02*
X+14437257Y+767903D01*
X+14460810Y+767903D01*
X+14484362Y+746967D01*
X+14484362Y+726032D01*
X+14460810Y+705096D01*
X+14437257Y+705096D01*
X+14413705Y+726032D01*
X+14413705Y+746967D01*
X+14507915Y+746967D02*
X+14531467Y+767903D01*
X+14555020Y+767903D01*
X+14578572Y+746967D01*
X+14578572Y+726032D01*
X+14555020Y+705096D01*
X+14531467Y+705096D01*
X+14507915Y+726032D01*
X+14507915Y+746967D01*
X+14602125Y+767903D02*
X+14672782Y+767903D01*
X+14637453Y+767903D02*
X+14637453Y+705096D01*
X+14696335Y+705096D02*
X+14696335Y+767903D01*
X+14766992Y+767903D02*
X+14766992Y+705096D01*
X+14696335Y+736500D02*
X+14766992Y+736500D01*
D18*
X+11681840Y-724160D02*
X+13480160Y-724160D01*
X+13480160Y-68840D01*
X+11681840Y-68840D01*
X+11681840Y-724160D01*
D21*
X+11946000Y-460000D02*
X+11946000Y-460000D01*
D31*
X+12365354Y-437394D02*
X+12365354Y-478288D01*
X+12411359Y-519182D01*
X+12595382Y-519182D01*
X+12641388Y-478288D01*
X+12641388Y-273818D01*
X+12825411Y-355606D02*
X+12917423Y-273818D01*
X+12917423Y-519182D01*
D18*
X+10841840Y-714160D02*
X+11624160Y-714160D01*
X+11624160Y-58840D01*
X+10841840Y-58840D01*
X+10841840Y-714160D01*
D21*
X+11106000Y-450000D02*
X+11106000Y-450000D01*
D39*
X+11417150Y-672247D02*
X+11353650Y-672247D01*
X+11385400Y-636529D01*
X+11353650Y-600811D01*
X+11417150Y-600811D01*
X+11374817Y-576998D02*
X+11353650Y-553186D01*
X+11353650Y-529374D01*
X+11374817Y-505562D01*
X+11395983Y-505562D01*
X+11417150Y-529374D01*
X+11417150Y-553186D01*
X+11395983Y-576998D01*
X+11374817Y-576998D01*
X+11353650Y-481749D02*
X+11353650Y-410313D01*
X+11353650Y-446031D02*
X+11417150Y-446031D01*
X+11374817Y-386500D02*
X+11353650Y-362688D01*
X+11353650Y-338876D01*
X+11374817Y-315064D01*
X+11395983Y-315064D01*
X+11417150Y-338876D01*
X+11417150Y-362688D01*
X+11395983Y-386500D01*
X+11374817Y-386500D01*
X+11417150Y-291251D02*
X+11353650Y-291251D01*
X+11353650Y-231721D01*
X+11364233Y-219815D01*
X+11374817Y-219815D01*
X+11385400Y-231721D01*
X+11385400Y-291251D01*
X+11385400Y-231721D02*
X+11395983Y-219815D01*
X+11417150Y-219815D01*
X+11374817Y-172190D02*
X+11353650Y-148378D01*
X+11417150Y-148378D01*
M02*
